<svg width="313" height="86" viewBox="0 0 313 86" fill="none" xmlns="http://www.w3.org/2000/svg">
<path d="M311.261 76.0819C311.261 80.6649 307.276 84.3773 302.348 84.3773H10.6635C5.73734 84.3773 1.73877 80.6649 1.73877 76.0819V9.92879C1.73877 5.34791 5.73734 1.62256 10.6635 1.62256H302.346C307.276 1.62256 311.259 5.34791 311.259 9.92879L311.261 76.0819Z" fill="white"/>
<path d="M301.407 1.72269C306.775 1.72269 311.142 5.77276 311.142 10.75V75.25C311.142 80.2273 306.775 84.2773 301.407 84.2773H11.5926C6.22522 84.2773 1.85771 80.2273 1.85771 75.25V10.75C1.85771 5.77276 6.22522 1.72269 11.5926 1.72269H301.407ZM301.407 7.62939e-06H11.5926C5.21956 7.62939e-06 0 4.8402 0 10.75V75.25C0 81.1598 5.21956 86 11.5926 86H301.407C307.78 86 313 81.1598 313 75.25V10.75C313 4.8402 307.78 7.62939e-06 301.407 7.62939e-06Z" fill="#A6A6A6"/>
<path d="M69.8523 42.5355C69.785 35.6061 75.9708 32.2349 76.2537 32.0779C72.7504 27.3415 67.3204 26.6943 65.4123 26.6427C60.8518 26.1977 56.428 29.1733 54.1049 29.1733C51.7354 29.1733 48.1579 26.6857 44.3022 26.7588C39.3406 26.8298 34.6989 29.4936 32.1532 33.6302C26.8994 42.0647 30.8177 54.4594 35.8512 61.277C38.3691 64.616 41.3113 68.3441 45.1624 68.2129C48.93 68.0689 50.3373 65.9855 54.8839 65.9855C59.3888 65.9855 60.7103 68.2129 64.6379 68.1291C68.6814 68.0689 71.2271 64.7751 73.657 61.4061C76.5667 57.5791 77.7352 53.8101 77.7816 53.6166C77.6865 53.5865 69.9288 50.841 69.8523 42.5355Z" fill="black"/>
<path d="M62.433 22.1578C64.4594 19.8079 65.8459 16.6108 65.461 13.3665C62.5281 13.4869 58.8602 15.2477 56.748 17.5461C54.8793 19.5714 53.2099 22.891 53.6412 26.0128C56.9358 26.2407 60.3185 24.4712 62.433 22.1578Z" fill="black"/>
<path d="M113.723 21.5194C113.723 24.05 112.905 25.9549 111.27 27.2341C109.756 28.4145 107.605 29.0057 104.818 29.0057C103.436 29.0057 102.254 28.9498 101.264 28.838V15.0114C102.555 14.8179 103.946 14.719 105.449 14.719C108.103 14.719 110.104 15.2543 111.454 16.325C112.965 17.5355 113.723 19.2662 113.723 21.5194ZM111.161 21.5818C111.161 19.9413 110.693 18.6836 109.756 17.8064C108.82 16.9313 107.452 16.4927 105.65 16.4927C104.885 16.4927 104.234 16.54 103.693 16.6389V27.1503C103.993 27.1933 104.54 27.2126 105.335 27.2126C107.194 27.2126 108.63 26.7332 109.64 25.7743C110.651 24.8154 111.161 23.4179 111.161 21.5818Z" fill="black"/>
<path d="M127.308 23.7296C127.308 25.2884 126.828 26.5655 125.868 27.5674C124.862 28.5972 123.528 29.1111 121.864 29.1111C120.259 29.1111 118.982 28.6187 118.029 27.6297C117.078 26.6429 116.603 25.398 116.603 23.8973C116.603 22.3278 117.092 21.04 118.075 20.0403C119.058 19.0405 120.38 18.5396 122.045 18.5396C123.649 18.5396 124.938 19.0319 125.914 20.0188C126.842 20.9777 127.308 22.216 127.308 23.7296ZM124.787 23.8028C124.787 22.8675 124.569 22.0655 124.136 21.3969C123.626 20.5885 122.9 20.1843 121.956 20.1843C120.98 20.1843 120.238 20.5885 119.728 21.3969C119.293 22.0655 119.077 22.8804 119.077 23.8436C119.077 24.7789 119.295 25.5808 119.728 26.2494C120.255 27.0578 120.987 27.462 121.933 27.462C122.861 27.462 123.589 27.0514 124.113 26.228C124.563 25.5464 124.787 24.738 124.787 23.8028Z" fill="black"/>
<path d="M145.522 18.7458L142.102 28.8809H139.876L138.46 24.4799C138.1 23.3812 137.808 22.289 137.581 21.2054H137.537C137.326 22.3191 137.034 23.4092 136.658 24.4799L135.154 28.8809H132.902L129.687 18.7458H132.184L133.419 23.564C133.718 24.7035 133.964 25.7892 134.161 26.8169H134.205C134.386 25.9698 134.685 24.8906 135.107 23.5855L136.658 18.748H138.638L140.124 23.4823C140.484 24.6369 140.776 25.7484 141.001 26.8191H141.068C141.233 25.7764 141.481 24.6648 141.81 23.4823L143.136 18.748H145.522V18.7458Z" fill="black"/>
<path d="M158.118 28.8809H155.688V23.0759C155.688 21.2871 154.956 20.3927 153.486 20.3927C152.765 20.3927 152.183 20.6378 151.731 21.1302C151.283 21.6225 151.056 22.203 151.056 22.8674V28.8788H148.626V21.6419C148.626 20.7518 148.596 19.7864 148.538 18.7415H150.673L150.787 20.3261H150.854C151.137 19.8337 151.559 19.4274 152.113 19.1027C152.772 18.7243 153.509 18.533 154.316 18.533C155.336 18.533 156.185 18.8383 156.859 19.451C157.699 20.2014 158.118 21.3215 158.118 22.8093V28.8809V28.8809Z" fill="black"/>
<path d="M164.819 28.881H162.392V14.0955H164.819V28.881Z" fill="black"/>
<path d="M179.124 23.7296C179.124 25.2884 178.644 26.5655 177.684 27.5674C176.678 28.5972 175.343 29.1111 173.68 29.1111C172.073 29.1111 170.796 28.6187 169.845 27.6297C168.895 26.6429 168.419 25.398 168.419 23.8973C168.419 22.3278 168.909 21.04 169.892 20.0403C170.875 19.0405 172.196 18.5396 173.859 18.5396C175.465 18.5396 176.752 19.0319 177.731 20.0188C178.658 20.9777 179.124 22.216 179.124 23.7296ZM176.601 23.8028C176.601 22.8675 176.384 22.0655 175.95 21.3969C175.442 20.5885 174.714 20.1843 173.773 20.1843C172.794 20.1843 172.053 20.5885 171.545 21.3969C171.109 22.0655 170.893 22.8804 170.893 23.8436C170.893 24.7789 171.111 25.5808 171.545 26.2494C172.071 27.0578 172.804 27.462 173.75 27.462C174.677 27.462 175.403 27.0514 175.927 26.228C176.379 25.5464 176.601 24.738 176.601 23.8028Z" fill="black"/>
<path d="M190.884 28.881H188.702L188.521 27.7136H188.454C187.707 28.6446 186.643 29.1111 185.261 29.1111C184.23 29.1111 183.395 28.8036 182.767 28.193C182.196 27.6383 181.911 26.9482 181.911 26.129C181.911 24.8906 182.468 23.9468 183.587 23.2932C184.705 22.6396 186.277 22.3192 188.301 22.3343V22.1451C188.301 20.81 187.545 20.1435 186.031 20.1435C184.953 20.1435 184.002 20.395 183.182 20.8938L182.688 19.4146C183.703 18.8319 184.958 18.5396 186.437 18.5396C189.293 18.5396 190.726 19.9371 190.726 22.7321V26.4644C190.726 27.4771 190.779 28.2833 190.884 28.881ZM188.361 25.398V23.835C185.681 23.792 184.341 24.4736 184.341 25.8775C184.341 26.4064 184.494 26.802 184.807 27.0664C185.12 27.3309 185.519 27.462 185.994 27.462C186.527 27.462 187.026 27.3051 187.48 26.9934C187.937 26.6795 188.217 26.2817 188.322 25.7936C188.347 25.684 188.361 25.5507 188.361 25.398Z" fill="black"/>
<path d="M204.69 28.881H202.534L202.42 27.2535H202.353C201.664 28.4919 200.491 29.1111 198.843 29.1111C197.526 29.1111 196.429 28.6316 195.56 27.6727C194.69 26.7138 194.257 25.469 194.257 23.9403C194.257 22.2999 194.727 20.9712 195.673 19.9564C196.589 19.0104 197.711 18.5374 199.047 18.5374C200.515 18.5374 201.542 18.9953 202.126 19.9134H202.172V14.0955H204.604V26.1505C204.604 27.1374 204.632 28.0468 204.69 28.881ZM202.172 24.6068V22.9169C202.172 22.6245 202.149 22.388 202.105 22.2074C201.968 21.6656 201.674 21.2098 201.226 20.8422C200.774 20.4745 200.229 20.2896 199.601 20.2896C198.694 20.2896 197.985 20.6229 197.463 21.2915C196.946 21.9602 196.684 22.8137 196.684 23.8565C196.684 24.8584 196.932 25.6711 197.431 26.2967C197.957 26.9632 198.667 27.2965 199.555 27.2965C200.352 27.2965 200.99 27.0191 201.474 26.4623C201.943 25.9484 202.172 25.3292 202.172 24.6068Z" fill="black"/>
<path d="M225.471 23.7296C225.471 25.2884 224.991 26.5655 224.031 27.5674C223.025 28.5972 221.694 29.1111 220.027 29.1111C218.425 29.1111 217.148 28.6187 216.193 27.6297C215.242 26.6429 214.767 25.398 214.767 23.8973C214.767 22.3278 215.256 21.04 216.239 20.0403C217.222 19.0405 218.543 18.5396 220.21 18.5396C221.813 18.5396 223.104 19.0319 224.078 20.0188C225.005 20.9777 225.471 22.216 225.471 23.7296ZM222.953 23.8028C222.953 22.8675 222.735 22.0655 222.302 21.3969C221.789 20.5885 221.066 20.1843 220.12 20.1843C219.146 20.1843 218.404 20.5885 217.892 21.3969C217.456 22.0655 217.24 22.8804 217.24 23.8436C217.24 24.7789 217.458 25.5808 217.892 26.2494C218.418 27.0578 219.151 27.462 220.097 27.462C221.024 27.462 221.755 27.0514 222.279 26.228C222.726 25.5464 222.953 24.738 222.953 23.8028Z" fill="black"/>
<path d="M238.536 28.8809H236.108V23.0759C236.108 21.2871 235.376 20.3927 233.903 20.3927C233.182 20.3927 232.6 20.6378 232.151 21.1302C231.701 21.6225 231.476 22.203 231.476 22.8674V28.8788H229.044V21.6419C229.044 20.7518 229.016 19.7864 228.958 18.7415H231.091L231.205 20.3261H231.272C231.557 19.8337 231.979 19.4274 232.531 19.1027C233.192 18.7243 233.927 18.533 234.736 18.533C235.754 18.533 236.602 18.8383 237.277 19.451C238.118 20.2014 238.536 21.3215 238.536 22.8093V28.8809V28.8809Z" fill="black"/>
<path d="M254.889 20.4338H252.213V25.3573C252.213 26.6086 252.689 27.2342 253.63 27.2342C254.066 27.2342 254.427 27.1998 254.713 27.1289L254.775 28.8381C254.295 29.0058 253.665 29.0897 252.888 29.0897C251.928 29.0897 251.182 28.8188 250.641 28.277C250.099 27.7352 249.83 26.8236 249.83 25.5443V20.4338H248.232V18.746H249.83V16.8884L252.211 16.2219V18.7439H254.887V20.4338H254.889Z" fill="black"/>
<path d="M267.752 28.881H265.32V23.119C265.32 21.3023 264.587 20.3928 263.119 20.3928C261.993 20.3928 261.223 20.9196 260.801 21.9731C260.729 22.1945 260.687 22.4654 260.687 22.7836V28.8789H258.26V14.0955H260.687V20.2036H260.734C261.499 19.0921 262.595 18.5374 264.017 18.5374C265.023 18.5374 265.855 18.8427 266.516 19.4554C267.339 20.2187 267.752 21.3539 267.752 22.8546V28.881V28.881Z" fill="black"/>
<path d="M281.021 23.3341C281.021 23.7383 280.988 24.078 280.93 24.3554H273.643C273.676 25.3573 274.023 26.1205 274.698 26.6494C275.315 27.1224 276.11 27.3589 277.084 27.3589C278.162 27.3589 279.145 27.1998 280.031 26.8795L280.411 28.4447C279.374 28.8618 278.155 29.0703 276.743 29.0703C275.05 29.0703 273.717 28.6081 272.753 27.6836C271.784 26.7591 271.304 25.5185 271.304 23.9619C271.304 22.4333 271.751 21.1605 272.653 20.1457C273.594 19.0621 274.867 18.5203 276.474 18.5203C278.046 18.5203 279.24 19.0621 280.047 20.1457C280.698 21.0057 281.021 22.0699 281.021 23.3341ZM278.702 22.7515C278.721 22.0828 278.561 21.5066 278.231 21.0207C277.809 20.3951 277.167 20.0812 276.298 20.0812C275.505 20.0812 274.858 20.3865 274.364 20.9992C273.961 21.4873 273.722 22.0699 273.643 22.7515H278.702Z" fill="black"/>
<path d="M124.377 67.7335H119.111L116.227 59.3292H106.202L103.454 67.7335H98.3281L108.261 39.1213H114.395L124.377 67.7335ZM115.358 55.8032L112.749 48.3319C112.473 47.5687 111.956 45.7713 111.194 42.9419H111.101C110.797 44.1588 110.308 45.9562 109.636 48.3319L107.074 55.8032H115.358V55.8032Z" fill="black"/>
<path d="M149.92 57.1643C149.92 60.6731 148.897 63.4466 146.852 65.4826C145.021 67.2951 142.746 68.2002 140.031 68.2002C137.1 68.2002 134.995 67.2241 133.713 65.2719H133.62V76.1402H128.677V53.8941C128.677 51.6882 128.615 49.4243 128.494 47.1023H132.841L133.117 50.3724H133.21C134.858 47.9085 137.36 46.6787 140.717 46.6787C143.342 46.6787 145.533 47.6398 147.286 49.564C149.043 51.4904 149.92 54.0231 149.92 57.1643ZM144.884 57.332C144.884 55.3239 144.397 53.6684 143.418 52.3655C142.35 51.0067 140.914 50.3273 139.115 50.3273C137.896 50.3273 136.787 50.7057 135.797 51.4517C134.805 52.2042 134.156 53.1868 133.852 54.4037C133.699 54.9713 133.623 55.4357 133.623 55.8012V59.2412C133.623 60.7419 134.119 62.0082 135.111 63.0424C136.104 64.0765 137.393 64.5925 138.978 64.5925C140.84 64.5925 142.289 63.926 143.326 62.5973C144.364 61.2665 144.884 59.5121 144.884 57.332Z" fill="black"/>
<path d="M175.51 57.1643C175.51 60.6731 174.487 63.4466 172.44 65.4826C170.611 67.2951 168.336 68.2002 165.621 68.2002C162.69 68.2002 160.585 67.2241 159.305 65.2719H159.213V76.1402H154.27V53.8941C154.27 51.6882 154.207 49.4243 154.086 47.1023H158.434L158.71 50.3724H158.802C160.448 47.9085 162.95 46.6787 166.31 46.6787C168.932 46.6787 171.123 47.6398 172.88 49.564C174.631 51.4904 175.51 54.0231 175.51 57.1643ZM170.474 57.332C170.474 55.3239 169.985 53.6684 169.006 52.3655C167.937 51.0067 166.507 50.3273 164.705 50.3273C163.483 50.3273 162.377 50.7057 161.385 51.4517C160.393 52.2042 159.746 53.1868 159.442 54.4037C159.291 54.9713 159.213 55.4357 159.213 55.8012V59.2412C159.213 60.7419 159.709 62.0082 160.697 63.0424C161.689 64.0744 162.978 64.5925 164.568 64.5925C166.43 64.5925 167.879 63.926 168.916 62.5973C169.954 61.2665 170.474 59.5121 170.474 57.332Z" fill="black"/>
<path d="M204.12 59.7098C204.12 62.1436 203.209 64.1238 201.38 65.6524C199.37 67.323 196.571 68.1572 192.975 68.1572C189.655 68.1572 186.993 67.5638 184.979 66.3748L186.124 62.5543C188.294 63.7712 190.675 64.3818 193.27 64.3818C195.131 64.3818 196.58 63.9905 197.621 63.2122C198.658 62.4339 199.175 61.389 199.175 60.0861C199.175 58.9251 198.748 57.9468 197.893 57.1535C197.042 56.3601 195.621 55.6227 193.636 54.9411C188.234 53.0728 185.535 50.3358 185.535 46.7367C185.535 44.3846 186.481 42.456 188.375 40.9553C190.262 39.4525 192.78 38.7021 195.929 38.7021C198.737 38.7021 201.069 39.1558 202.931 40.0609L201.695 43.7977C199.956 42.9205 197.99 42.4819 195.79 42.4819C194.051 42.4819 192.692 42.8796 191.718 43.6708C190.895 44.3782 190.483 45.2403 190.483 46.2616C190.483 47.3925 190.953 48.3277 191.899 49.063C192.722 49.7424 194.218 50.4777 196.388 51.2711C199.043 52.2622 200.993 53.4211 202.247 54.7498C203.497 56.0742 204.12 57.7318 204.12 59.7098Z" fill="black"/>
<path d="M220.463 50.5421H215.015V60.5589C215.015 63.1067 215.975 64.3795 217.899 64.3795C218.783 64.3795 219.515 64.3085 220.095 64.1666L220.232 67.6475C219.258 67.985 217.976 68.1549 216.388 68.1549C214.435 68.1549 212.91 67.6023 211.808 66.4994C210.712 65.3943 210.16 63.541 210.16 60.9373V50.5378H206.914V47.0978H210.16V43.3202L215.015 41.9614V47.0978H220.463V50.5421Z" fill="black"/>
<path d="M245.047 57.2482C245.047 60.4194 244.068 63.0231 242.116 65.0591C240.069 67.1554 237.351 68.2003 233.964 68.2003C230.7 68.2003 228.101 67.1962 226.162 65.1881C224.224 63.18 223.255 60.6452 223.255 57.59C223.255 54.393 224.252 51.7743 226.253 49.7382C228.249 47.7 230.943 46.6809 234.33 46.6809C237.595 46.6809 240.222 47.685 242.204 49.6952C244.101 51.6453 245.047 54.1629 245.047 57.2482ZM239.918 57.3965C239.918 55.4938 239.48 53.8619 238.592 52.501C237.555 50.8541 236.074 50.0328 234.154 50.0328C232.167 50.0328 230.658 50.8562 229.622 52.501C228.734 53.8641 228.295 55.5217 228.295 57.4825C228.295 59.3853 228.734 61.0171 229.622 62.3759C230.69 64.0228 232.183 64.8441 234.11 64.8441C235.997 64.8441 237.479 64.0056 238.548 62.3329C239.459 60.9462 239.918 59.2971 239.918 57.3965Z" fill="black"/>
<path d="M261.113 51.1335C260.624 51.0497 260.102 51.0067 259.555 51.0067C257.816 51.0067 256.472 51.6151 255.526 52.8342C254.703 53.9092 254.29 55.268 254.29 56.9084V67.7337H249.349L249.395 53.5996C249.395 51.2217 249.333 49.0566 249.21 47.1044H253.515L253.696 51.0518H253.833C254.355 49.6952 255.178 48.603 256.305 47.7838C257.406 47.0464 258.595 46.6787 259.878 46.6787C260.334 46.6787 260.747 46.7088 261.113 46.7626V51.1335Z" fill="black"/>
<path d="M283.221 56.4417C283.221 57.263 283.163 57.9553 283.04 58.5208H268.21C268.268 60.559 268.985 62.1177 270.362 63.1927C271.612 64.1538 273.228 64.6354 275.212 64.6354C277.408 64.6354 279.411 64.3107 281.213 63.6593L281.987 66.8413C279.882 67.6927 277.396 68.1162 274.528 68.1162C271.078 68.1162 268.37 67.1745 266.4 65.2933C264.434 63.412 263.448 60.8858 263.448 57.7167C263.448 54.6056 264.364 52.0149 266.198 49.9487C268.118 47.7428 270.712 46.6399 273.977 46.6399C277.183 46.6399 279.611 47.7428 281.259 49.9487C282.564 51.701 283.221 53.8682 283.221 56.4417ZM278.507 55.2528C278.539 53.894 278.217 52.7201 277.547 51.7289C276.692 50.454 275.377 49.8176 273.608 49.8176C271.992 49.8176 270.677 50.4389 269.673 51.6859C268.85 52.6771 268.361 53.866 268.21 55.2506H278.507V55.2528Z" fill="black"/>
</svg>
