<svg width="1359" height="631" viewBox="0 0 1359 631" fill="none" xmlns="http://www.w3.org/2000/svg">
<path d="M1458.2 2.96421C1395.07 2.96421 1331.82 -5.7345 1275.86 29.123C1241.03 50.8211 1218.48 84.6507 1198.93 119.909C1174.26 164.385 1157.44 215.944 1118.76 249.164C1080.08 282.384 1032.24 302.45 984.885 313.176C927.503 326.174 873.122 288.042 834.396 249.472C786.801 202.069 753.328 137.723 752.534 69.4382C752.27 46.7514 769.576 21.66 793.773 18.8133C835.576 13.8953 841.674 138.915 842.705 163.302C844.058 195.329 845.92 229.893 835.934 260.859C815.128 325.375 715.436 348.5 700.285 352.03C685.133 355.56 581.936 382 481.936 398.5C381.936 415 266.408 405.47 166.646 437.892C116.073 454.328 63.2026 484.945 30.4669 527.601C5.36742 560.306 5.3988 589.918 2 629.005" stroke="url(#paint0_linear_235_1341)" stroke-width="4" stroke-linecap="round" stroke-dasharray="12 12"/>
<defs>
<linearGradient id="paint0_linear_235_1341" x1="2.43597" y1="528" x2="1409.44" y2="1.99998" gradientUnits="userSpaceOnUse">
<stop stop-color="#00A3F4" stop-opacity="0.42"/>
<stop offset="0.563099" stop-color="#00A4F4" stop-opacity="0.11"/>
<stop offset="0.887261" stop-color="#2C79EB"/>
</linearGradient>
</defs>
</svg>
