<svg width="309" height="85" viewBox="0 0 309 85" fill="none" xmlns="http://www.w3.org/2000/svg">
<path d="M297.556 85H11.4444C5.15286 85 0 80.2161 0 74.375V10.625C0 4.78387 5.15286 -3.8147e-05 11.4444 -3.8147e-05H297.556C303.847 -3.8147e-05 309 4.78387 309 10.625V74.375C309 80.2161 303.847 85 297.556 85Z" fill="black"/>
<path d="M297.556 1.70261C302.854 1.70261 307.166 5.70559 307.166 10.625V74.375C307.166 79.2944 302.854 83.2973 297.556 83.2973H11.4444C6.14567 83.2973 1.83397 79.2944 1.83397 74.375V10.625C1.83397 5.70559 6.14567 1.70261 11.4444 1.70261H297.556ZM297.556 -3.8147e-05H11.4444C5.15286 -3.8147e-05 0 4.78387 0 10.625V74.375C0 80.2161 5.15286 85 11.4444 85H297.556C303.847 85 309 80.2161 309 74.375V10.625C309 4.78387 303.847 -3.8147e-05 297.556 -3.8147e-05Z" fill="#A6A6A6"/>
<path d="M23.8847 16.0199C23.2124 16.6733 22.8232 17.6906 22.8232 19.0081V66.0026C22.8232 67.3201 23.2124 68.3374 23.8847 68.9908L24.0507 69.1343L52.4157 42.8108V42.1893L24.0507 15.8658L23.8847 16.0199Z" fill="url(#paint0_linear_340_594)"/>
<path d="M61.8601 51.5896L52.4155 42.8107V42.1891L61.8715 33.4102L62.0832 33.5244L73.2816 39.4399C76.4775 41.1187 76.4775 43.8812 73.2816 45.5705L62.0832 51.4754L61.8601 51.5896Z" fill="url(#paint1_linear_340_594)"/>
<path d="M62.0835 51.4755L52.4158 42.5L23.8848 68.9908C24.9462 70.0268 26.6772 70.1516 28.6457 69.1157L62.0835 51.4755Z" fill="url(#paint2_linear_340_594)"/>
<path d="M62.0835 33.5245L28.6457 15.8844C26.6772 14.859 24.9462 14.9839 23.8848 16.0198L52.4158 42.5L62.0835 33.5245Z" fill="url(#paint3_linear_340_594)"/>
<path d="M108.533 21.768C108.533 23.5424 107.961 24.9635 106.834 26.0233C105.538 27.2797 103.85 27.9119 101.781 27.9119C99.8042 27.9119 98.1162 27.2691 96.7314 26.002C95.3437 24.7164 94.6514 23.1386 94.6514 21.25C94.6514 19.3614 95.3437 17.7836 96.7314 16.5086C98.1162 15.2309 99.8042 14.5881 101.781 14.5881C102.765 14.5881 103.704 14.7767 104.599 15.1274C105.492 15.4806 106.219 15.9588 106.745 16.5484L105.549 17.6694C104.631 16.6627 103.381 16.166 101.781 16.166C100.339 16.166 99.089 16.6334 98.0275 17.5764C96.9775 18.522 96.451 19.7466 96.451 21.25C96.451 22.7535 96.9775 23.9886 98.0275 24.9342C99.089 25.8666 100.339 26.3447 101.781 26.3447C103.312 26.3447 104.599 25.8666 105.615 24.9236C106.285 24.2994 106.665 23.4388 106.765 22.3391H101.781V20.8038H108.43C108.511 21.1358 108.533 21.4572 108.533 21.768Z" fill="white" stroke="white" stroke-width="0.16" stroke-miterlimit="10"/>
<path d="M119.082 16.4449H112.837V20.4824H118.467V22.0177H112.837V26.0552H119.082V27.6197H111.068V14.8804H119.082V16.4449Z" fill="white" stroke="white" stroke-width="0.16" stroke-miterlimit="10"/>
<path d="M126.526 27.6197H124.758V16.4449H120.927V14.8804H130.36V16.4449H126.526V27.6197Z" fill="white" stroke="white" stroke-width="0.16" stroke-miterlimit="10"/>
<path d="M137.187 27.6197V14.8804H138.952V27.6197H137.187Z" fill="white" stroke="white" stroke-width="0.16" stroke-miterlimit="10"/>
<path d="M146.778 27.6197H145.024V16.4449H141.179V14.8804H150.623V16.4449H146.778V27.6197Z" fill="white" stroke="white" stroke-width="0.16" stroke-miterlimit="10"/>
<path d="M168.483 25.9808C167.129 27.2691 165.453 27.9119 163.453 27.9119C161.441 27.9119 159.765 27.2691 158.411 25.9808C157.061 24.6952 156.389 23.1174 156.389 21.25C156.389 19.3827 157.061 17.8049 158.411 16.5192C159.765 15.2309 161.441 14.5881 163.453 14.5881C165.441 14.5881 167.118 15.2309 168.471 16.5299C169.833 17.8261 170.505 19.3933 170.505 21.25C170.505 23.1174 169.833 24.6952 168.483 25.9808ZM159.719 24.913C160.738 25.8666 161.976 26.3447 163.453 26.3447C164.918 26.3447 166.168 25.8666 167.175 24.913C168.191 23.9594 168.706 22.7349 168.706 21.25C168.706 19.7652 168.191 18.5406 167.175 17.587C166.168 16.6334 164.918 16.1553 163.453 16.1553C161.976 16.1553 160.738 16.6334 159.719 17.587C158.703 18.5406 158.188 19.7652 158.188 21.25C158.188 22.7349 158.703 23.9594 159.719 24.913Z" fill="white" stroke="white" stroke-width="0.16" stroke-miterlimit="10"/>
<path d="M172.986 27.6197V14.8804H175.132L181.804 24.7882H181.881L181.804 22.3391V14.8804H183.569V27.6197H181.727L174.74 17.2232H174.662L174.74 19.6829V27.6197H172.986Z" fill="white" stroke="white" stroke-width="0.16" stroke-miterlimit="10"/>
<path d="M155.953 46.2242C150.577 46.2242 146.186 50.0226 146.186 55.2634C146.186 60.4617 150.577 64.2999 155.953 64.2999C161.341 64.2999 165.733 60.4617 165.733 55.2634C165.733 50.0226 161.341 46.2242 155.953 46.2242ZM155.953 60.7406C153.004 60.7406 150.466 58.4801 150.466 55.2634C150.466 52.0042 153.004 49.7835 155.953 49.7835C158.903 49.7835 161.453 52.0042 161.453 55.2634C161.453 58.4801 158.903 60.7406 155.953 60.7406ZM134.641 46.2242C129.254 46.2242 124.873 50.0226 124.873 55.2634C124.873 60.4617 129.254 64.2999 134.641 64.2999C140.026 64.2999 144.409 60.4617 144.409 55.2634C144.409 50.0226 140.026 46.2242 134.641 46.2242ZM134.641 60.7406C131.688 60.7406 129.142 58.4801 129.142 55.2634C129.142 52.0042 131.688 49.7835 134.641 49.7835C137.591 49.7835 140.129 52.0042 140.129 55.2634C140.129 58.4801 137.591 60.7406 134.641 60.7406ZM109.28 48.9946V52.8356H119.16C118.871 54.9818 118.098 56.5596 116.914 57.6593C115.472 58.9874 113.226 60.4617 109.28 60.4617C103.2 60.4617 98.4394 55.9062 98.4394 50.2617C98.4394 44.6171 103.2 40.0617 109.28 40.0617C112.568 40.0617 114.959 41.2543 116.725 42.8003L119.64 40.0935C117.171 37.9048 113.887 36.2234 109.28 36.2234C100.943 36.2234 93.936 42.5213 93.936 50.2617C93.936 58.002 100.943 64.2999 109.28 64.2999C113.786 64.2999 117.171 62.9293 119.832 60.3581C122.559 57.8267 123.408 54.2673 123.408 51.3932C123.408 50.5007 123.328 49.6799 123.185 48.9946H109.28ZM212.984 51.9723C212.18 49.9509 209.699 46.2242 204.647 46.2242C199.64 46.2242 195.471 49.8871 195.471 55.2634C195.471 60.3262 199.597 64.2999 205.127 64.2999C209.599 64.2999 212.18 61.7685 213.241 60.2943L209.923 58.241C208.815 59.7445 207.308 60.7406 205.127 60.7406C202.962 60.7406 201.408 59.8189 200.412 58.002L213.433 53.0003L212.984 51.9723ZM199.708 54.9818C199.597 51.4968 202.624 49.7118 204.793 49.7118C206.492 49.7118 207.934 50.5007 208.415 51.6296L199.708 54.9818ZM189.125 63.7501H193.405V37.1876H189.125V63.7501ZM182.115 48.2376H181.972C181.011 47.1804 179.177 46.2242 176.854 46.2242C171.979 46.2242 167.521 50.1979 167.521 55.2926C167.521 60.3581 171.979 64.2999 176.854 64.2999C179.177 64.2999 181.011 63.3357 181.972 62.2467H182.115V63.5429C182.115 66.9987 180.127 68.8554 176.92 68.8554C174.305 68.8554 172.682 67.1023 172.013 65.6281L168.291 67.0704C169.363 69.4664 172.205 72.4148 176.92 72.4148C181.938 72.4148 186.173 69.6735 186.173 63.0037V46.774H182.115V48.2376ZM177.22 60.7406C174.27 60.7406 171.801 58.4482 171.801 55.2926C171.801 52.1078 174.27 49.7835 177.22 49.7835C180.127 49.7835 182.419 52.1078 182.419 55.2926C182.419 58.4482 180.127 60.7406 177.22 60.7406ZM233.023 37.1876H222.786V63.7501H227.055V53.6856H233.023C237.764 53.6856 242.413 50.5007 242.413 45.4353C242.413 40.3724 237.753 37.1876 233.023 37.1876ZM233.135 49.9907H227.055V40.8824H233.135C236.322 40.8824 238.142 43.3395 238.142 45.4353C238.142 47.4912 236.322 49.9907 233.135 49.9907ZM259.523 46.1737C256.439 46.1737 253.231 47.4381 251.912 50.2404L255.7 51.7146C256.516 50.2404 258.015 49.7623 259.6 49.7623C261.815 49.7623 264.061 50.9974 264.095 53.1782V53.4571C263.322 53.0428 261.669 52.4292 259.634 52.4292C255.554 52.4292 251.397 54.5143 251.397 58.4057C251.397 61.9651 254.739 64.2574 258.496 64.2574C261.368 64.2574 262.953 63.0542 263.949 61.6543H264.095V63.7076H268.218V53.5182C268.218 48.8087 264.43 46.1737 259.523 46.1737ZM259.008 60.7299C257.612 60.7299 255.666 60.0871 255.666 58.4801C255.666 56.4242 258.092 55.6353 260.192 55.6353C262.072 55.6353 262.953 56.0204 264.095 56.5278C263.76 58.9874 261.48 60.7299 259.008 60.7299ZM283.239 46.7554L278.332 58.2703H278.186L273.113 46.7554H268.51L276.132 62.847L271.783 71.8012H276.243L287.988 46.7554H283.239ZM244.759 63.7501H249.04V37.1876H244.759V63.7501Z" fill="white"/>
<defs>
<linearGradient id="paint0_linear_340_594" x1="49.8972" y1="66.4919" x2="14.3328" y2="28.1847" gradientUnits="userSpaceOnUse">
<stop stop-color="#00A0FF"/>
<stop offset="0.0066" stop-color="#00A1FF"/>
<stop offset="0.2601" stop-color="#00BEFF"/>
<stop offset="0.5122" stop-color="#00D2FF"/>
<stop offset="0.7604" stop-color="#00DFFF"/>
<stop offset="1" stop-color="#00E3FF"/>
</linearGradient>
<linearGradient id="paint1_linear_340_594" x1="77.4431" y1="42.4969" x2="22.0591" y2="42.4969" gradientUnits="userSpaceOnUse">
<stop stop-color="#FFE000"/>
<stop offset="0.4087" stop-color="#FFBD00"/>
<stop offset="0.7754" stop-color="#FFA500"/>
<stop offset="1" stop-color="#FF9C00"/>
</linearGradient>
<linearGradient id="paint2_linear_340_594" x1="56.8264" y1="37.6208" x2="8.5982" y2="-14.327" gradientUnits="userSpaceOnUse">
<stop stop-color="#FF3A44"/>
<stop offset="1" stop-color="#C31162"/>
</linearGradient>
<linearGradient id="paint3_linear_340_594" x1="16.7029" y1="84.6256" x2="38.239" y2="61.4288" gradientUnits="userSpaceOnUse">
<stop stop-color="#32A071"/>
<stop offset="0.0685" stop-color="#2DA771"/>
<stop offset="0.4762" stop-color="#15CF74"/>
<stop offset="0.8009" stop-color="#06E775"/>
<stop offset="1" stop-color="#00F076"/>
</linearGradient>
</defs>
</svg>
