<svg width="92" height="91" viewBox="0 0 92 91" fill="none" xmlns="http://www.w3.org/2000/svg">
<g clip-path="url(#clip0_356_194)">
<path fill-rule="evenodd" clip-rule="evenodd" d="M5.06046 45.3778C1.90371 63.1025 15.594 68.1612 27.289 65.5778C38.9839 62.9945 42.5387 63.4723 58.5532 66.25C74.5677 69.0276 84.0578 61.9706 86.9112 48.5234C89.7645 35.0761 80.1609 20.3758 57.177 14.9197C34.1932 9.4636 8.21721 27.653 5.06046 45.3778Z" fill="#F4F8FF"/>
<path d="M46 97.0654C68.8646 97.0654 87.4 94.4331 87.4 91.186C87.4 87.939 68.8646 85.3067 46 85.3067C23.1354 85.3067 4.59998 87.939 4.59998 91.186C4.59998 94.4331 23.1354 97.0654 46 97.0654Z" fill="#F8FBFF"/>
<path d="M65.3523 29.385C66.2303 29.385 66.942 28.681 66.942 27.8126C66.942 26.9442 66.2303 26.2402 65.3523 26.2402C64.4744 26.2402 63.7626 26.9442 63.7626 27.8126C63.7626 28.681 64.4744 29.385 65.3523 29.385Z" fill="url(#paint0_linear_356_194)"/>
<path d="M9.78365 36.4948C11.654 36.4948 13.1703 34.9951 13.1703 33.145C13.1703 31.295 11.654 29.7952 9.78365 29.7952C7.91327 29.7952 6.39703 31.295 6.39703 33.145C6.39703 34.9951 7.91327 36.4948 9.78365 36.4948Z" fill="url(#paint1_linear_356_194)"/>
<path fill-rule="evenodd" clip-rule="evenodd" d="M23.814 26.2402H51.8748C52.7913 26.2402 53.6703 26.6004 54.3184 27.2414C54.9665 27.8824 55.3306 28.7519 55.3306 29.6584V88.178C55.3306 89.0845 54.9665 89.954 54.3184 90.595C53.6703 91.236 52.7913 91.5962 51.8748 91.5962H23.814C23.3602 91.5962 22.9108 91.5078 22.4916 91.336C22.0723 91.1642 21.6913 90.9124 21.3704 90.595C21.0495 90.2776 20.795 89.9008 20.6213 89.4861C20.4477 89.0713 20.3583 88.6269 20.3583 88.178V29.6584C20.3583 29.2095 20.4477 28.7651 20.6213 28.3503C20.795 27.9356 21.0495 27.5588 21.3704 27.2414C21.6913 26.924 22.0723 26.6722 22.4916 26.5004C22.9108 26.3286 23.3602 26.2402 23.814 26.2402Z" fill="#456594"/>
<mask id="mask0_356_194" style="mask-type:luminance" maskUnits="userSpaceOnUse" x="20" y="26" width="36" height="66">
<path fill-rule="evenodd" clip-rule="evenodd" d="M23.814 26.2402H51.8748C52.7913 26.2402 53.6703 26.6004 54.3184 27.2414C54.9665 27.8824 55.3306 28.7519 55.3306 29.6584V88.178C55.3306 89.0845 54.9665 89.954 54.3184 90.595C53.6703 91.236 52.7913 91.5962 51.8748 91.5962H23.814C23.3602 91.5962 22.9108 91.5078 22.4916 91.336C22.0723 91.1642 21.6913 90.9124 21.3704 90.595C21.0495 90.2776 20.795 89.9008 20.6213 89.4861C20.4477 89.0713 20.3583 88.6269 20.3583 88.178V29.6584C20.3583 29.2095 20.4477 28.7651 20.6213 28.3503C20.795 27.9356 21.0495 27.5588 21.3704 27.2414C21.6913 26.924 22.0723 26.6722 22.4916 26.5004C22.9108 26.3286 23.3602 26.2402 23.814 26.2402Z" fill="white"/>
</mask>
<g mask="url(#mask0_356_194)">
<path d="M21.5189 37.9109H21.4031C21.1741 37.9109 20.9884 38.0946 20.9884 38.3211V50.883C20.9884 51.1096 21.1741 51.2933 21.4031 51.2933H21.5189C21.7479 51.2933 21.9336 51.1096 21.9336 50.883V38.3211C21.9336 38.0946 21.7479 37.9109 21.5189 37.9109Z" fill="#D9E8FF"/>
</g>
<mask id="mask1_356_194" style="mask-type:luminance" maskUnits="userSpaceOnUse" x="20" y="26" width="36" height="66">
<path fill-rule="evenodd" clip-rule="evenodd" d="M23.814 26.2402H51.8748C52.7913 26.2402 53.6703 26.6004 54.3184 27.2414C54.9665 27.8824 55.3306 28.7519 55.3306 29.6584V88.178C55.3306 89.0845 54.9665 89.954 54.3184 90.595C53.6703 91.236 52.7913 91.5962 51.8748 91.5962H23.814C23.3602 91.5962 22.9108 91.5078 22.4916 91.336C22.0723 91.1642 21.6913 90.9124 21.3704 90.595C21.0495 90.2776 20.795 89.9008 20.6213 89.4861C20.4477 89.0713 20.3583 88.6269 20.3583 88.178V29.6584C20.3583 29.2095 20.4477 28.7651 20.6213 28.3503C20.795 27.9356 21.0495 27.5588 21.3704 27.2414C21.6913 26.924 22.0723 26.6722 22.4916 26.5004C22.9108 26.3286 23.3602 26.2402 23.814 26.2402Z" fill="white"/>
</mask>
<g mask="url(#mask1_356_194)">
<path d="M21.5189 53.4719H21.4031C21.1741 53.4719 20.9884 53.6555 20.9884 53.8821V58.6635C20.9884 58.8901 21.1741 59.0737 21.4031 59.0737H21.5189C21.7479 59.0737 21.9336 58.8901 21.9336 58.6635V53.8821C21.9336 53.6555 21.7479 53.4719 21.5189 53.4719Z" fill="#D9E8FF"/>
</g>
<mask id="mask2_356_194" style="mask-type:luminance" maskUnits="userSpaceOnUse" x="20" y="26" width="36" height="66">
<path fill-rule="evenodd" clip-rule="evenodd" d="M23.814 26.2402H51.8748C52.7913 26.2402 53.6703 26.6004 54.3184 27.2414C54.9665 27.8824 55.3306 28.7519 55.3306 29.6584V88.178C55.3306 89.0845 54.9665 89.954 54.3184 90.595C53.6703 91.236 52.7913 91.5962 51.8748 91.5962H23.814C23.3602 91.5962 22.9108 91.5078 22.4916 91.336C22.0723 91.1642 21.6913 90.9124 21.3704 90.595C21.0495 90.2776 20.795 89.9008 20.6213 89.4861C20.4477 89.0713 20.3583 88.6269 20.3583 88.178V29.6584C20.3583 29.2095 20.4477 28.7651 20.6213 28.3503C20.795 27.9356 21.0495 27.5588 21.3704 27.2414C21.6913 26.924 22.0723 26.6722 22.4916 26.5004C22.9108 26.3286 23.3602 26.2402 23.814 26.2402Z" fill="white"/>
</mask>
<g mask="url(#mask2_356_194)">
<path fill-rule="evenodd" clip-rule="evenodd" d="M26.0195 26.2402H53.6077C54.5242 26.2402 55.4032 26.6004 56.0512 27.2414C56.6993 27.8824 57.0634 28.7519 57.0634 29.6584V88.178C57.0634 88.6269 56.974 89.0713 56.8004 89.4861C56.6267 89.9008 56.3721 90.2776 56.0512 90.595C55.7303 90.9124 55.3494 91.1642 54.9301 91.336C54.5108 91.5078 54.0615 91.5962 53.6077 91.5962H26.0195C25.103 91.5962 24.224 91.236 23.5759 90.595C22.9278 89.954 22.5637 89.0845 22.5637 88.178V29.6584C22.5637 29.2095 22.6531 28.7651 22.8268 28.3503C23.0004 27.9356 23.255 27.5588 23.5759 27.2414C23.8968 26.924 24.2777 26.6722 24.697 26.5004C25.1163 26.3286 25.5657 26.2402 26.0195 26.2402Z" fill="url(#paint2_linear_356_194)"/>
</g>
<mask id="mask3_356_194" style="mask-type:luminance" maskUnits="userSpaceOnUse" x="20" y="26" width="36" height="66">
<path fill-rule="evenodd" clip-rule="evenodd" d="M23.814 26.2402H51.8748C52.7913 26.2402 53.6703 26.6004 54.3184 27.2414C54.9665 27.8824 55.3306 28.7519 55.3306 29.6584V88.178C55.3306 89.0845 54.9665 89.954 54.3184 90.595C53.6703 91.236 52.7913 91.5962 51.8748 91.5962H23.814C23.3602 91.5962 22.9108 91.5078 22.4916 91.336C22.0723 91.1642 21.6913 90.9124 21.3704 90.595C21.0495 90.2776 20.795 89.9008 20.6213 89.4861C20.4477 89.0713 20.3583 88.6269 20.3583 88.178V29.6584C20.3583 29.2095 20.4477 28.7651 20.6213 28.3503C20.795 27.9356 21.0495 27.5588 21.3704 27.2414C21.6913 26.924 22.0723 26.6722 22.4916 26.5004C22.9108 26.3286 23.3602 26.2402 23.814 26.2402Z" fill="white"/>
</mask>
<g mask="url(#mask3_356_194)">
<path d="M35.324 28.4188C35.585 28.4188 35.7966 28.2098 35.7966 27.9519C35.7966 27.6941 35.585 27.4851 35.324 27.4851C35.063 27.4851 34.8514 27.6941 34.8514 27.9519C34.8514 28.2098 35.063 28.4188 35.324 28.4188Z" fill="#456594"/>
</g>
<mask id="mask4_356_194" style="mask-type:luminance" maskUnits="userSpaceOnUse" x="20" y="26" width="36" height="66">
<path fill-rule="evenodd" clip-rule="evenodd" d="M23.814 26.2402H51.8748C52.7913 26.2402 53.6703 26.6004 54.3184 27.2414C54.9665 27.8824 55.3306 28.7519 55.3306 29.6584V88.178C55.3306 89.0845 54.9665 89.954 54.3184 90.595C53.6703 91.236 52.7913 91.5962 51.8748 91.5962H23.814C23.3602 91.5962 22.9108 91.5078 22.4916 91.336C22.0723 91.1642 21.6913 90.9124 21.3704 90.595C21.0495 90.2776 20.795 89.9008 20.6213 89.4861C20.4477 89.0713 20.3583 88.6269 20.3583 88.178V29.6584C20.3583 29.2095 20.4477 28.7651 20.6213 28.3503C20.795 27.9356 21.0495 27.5588 21.3704 27.2414C21.6913 26.924 22.0723 26.6722 22.4916 26.5004C22.9108 26.3286 23.3602 26.2402 23.814 26.2402Z" fill="white"/>
</mask>
<g mask="url(#mask4_356_194)">
<path fill-rule="evenodd" clip-rule="evenodd" d="M25.187 29.3524H52.5497C52.953 29.3524 53.3398 29.5109 53.6249 29.7929C53.9101 30.075 54.0703 30.4575 54.0703 30.8564V86.8696C54.0703 87.6692 53.7491 88.436 53.1775 89.0014C52.6059 89.5668 51.8307 89.8844 51.0223 89.8844H26.7144C25.906 89.8844 25.1308 89.5668 24.5592 89.0014C23.9876 88.436 23.6664 87.6692 23.6664 86.8696V30.8564C23.6664 30.4575 23.8266 30.075 24.1118 29.7929C24.397 29.5109 24.7837 29.3524 25.187 29.3524Z" fill="url(#paint3_linear_356_194)"/>
</g>
<path d="M39.1972 51.8084C44.4266 51.8084 48.666 47.6151 48.666 42.4425C48.666 37.2699 44.4266 33.0766 39.1972 33.0766C33.9677 33.0766 29.7283 37.2699 29.7283 42.4425C29.7283 47.6151 33.9677 51.8084 39.1972 51.8084Z" fill="url(#paint4_linear_356_194)"/>
<path d="M39.1971 49.6207C43.3578 49.6207 46.7307 46.3457 46.7307 42.3057C46.7307 38.2658 43.3578 34.9908 39.1971 34.9908C35.0365 34.9908 31.6636 38.2658 31.6636 42.3057C31.6636 46.3457 35.0365 49.6207 39.1971 49.6207Z" stroke="white" stroke-width="2.2"/>
<path fill-rule="evenodd" clip-rule="evenodd" d="M60.059 68.9553C59.9316 69.3367 60.2468 69.5514 61.0044 69.5993C62.1409 69.6711 65.4576 69.2851 68.3092 69.732C71.1608 70.179 76.1982 70.2111 76.4295 68.6428C76.442 68.5581 76.2851 68.5186 76.2475 68.4459C75.9629 67.8958 72.3551 67.8284 65.4242 68.2435L60.059 68.9553Z" fill="#1F3454"/>
<path fill-rule="evenodd" clip-rule="evenodd" d="M72.1636 91.0656C71.2569 91.7743 70.8698 92.2843 71.0022 92.5956C71.2007 93.0625 72.0303 92.9858 72.6133 92.8228C73.0019 92.7142 73.7301 92.4286 74.7978 91.9662C74.5334 90.2971 74.5802 89.3128 74.9382 89.0135L75.1256 91.344L75.4628 91.3101C75.1997 89.6598 75.1995 88.638 75.4622 88.2447C75.7248 87.8513 75.4492 87.3968 74.6352 86.8809L72.1636 91.0656ZM58.4531 89.9261C56.9032 90.6098 56.0957 91.0953 56.0305 91.3827C55.9654 91.67 56.0699 91.8753 56.3441 91.9986C58.3851 91.7881 59.4793 91.6367 59.6267 91.5446C59.8478 91.4064 60.5172 89.4565 61.0344 89.4045C61.3793 89.3699 61.5926 90.0146 61.6745 91.3387L62.2122 91.2847C62.0524 90.0002 62.0892 89.1661 62.3225 88.7825C62.6725 88.207 62.645 87.005 61.7356 86.9481C61.1293 86.9101 60.0352 87.9028 58.4531 89.9261Z" fill="#021229"/>
<path fill-rule="evenodd" clip-rule="evenodd" d="M69.4776 69.8109C69.4921 70.5086 69.5239 70.9836 69.5731 71.236C69.9026 72.9254 70.3011 73.7577 70.4964 74.1109C70.855 74.7595 72.5272 85.8317 72.3173 87.88C72.1773 89.2455 72.1261 90.3073 72.1635 91.0655C72.6397 91.4572 73.3096 91.4998 74.1733 91.1932C74.1293 89.1669 74.2696 87.7618 74.5943 86.9777C74.6255 85.7049 74.6058 84.2713 74.5354 82.6769C74.4684 81.1574 75.007 79.3205 74.9512 77.5491C74.9192 76.5324 74.5834 75.5162 74.1 74.6477C73.7738 73.5632 73.6024 72.0034 73.5858 69.9684C73.5691 67.9334 72.1997 67.8809 69.4776 69.8109Z" fill="#FFDDC6"/>
<mask id="mask5_356_194" style="mask-type:luminance" maskUnits="userSpaceOnUse" x="70" y="68" width="6" height="24">
<path fill-rule="evenodd" clip-rule="evenodd" d="M75.1376 69.5175C75.1969 70.2129 75.2155 70.6886 75.1932 70.9447C75.044 72.6588 74.7356 73.5279 74.5787 73.8993C74.2906 74.5814 73.7977 85.7658 74.2229 87.7812C74.5064 89.1247 74.6696 90.1754 74.7125 90.9334C74.2803 91.3722 73.6186 91.4838 72.7272 91.2681C72.5569 89.2484 72.2688 87.8655 71.863 87.1193C71.6976 85.8567 71.5656 84.4289 71.4671 82.836C71.3732 81.3179 70.6434 79.5467 70.5117 77.7793C70.4361 76.7648 70.6627 75.7194 71.0517 74.8058C71.2614 73.6934 71.2671 72.1245 71.0686 70.0989C70.8701 68.0733 72.2264 67.8795 75.1376 69.5175Z" fill="white"/>
</mask>
<g mask="url(#mask5_356_194)">
<path fill-rule="evenodd" clip-rule="evenodd" d="M73.7594 69.3898C72.1992 70.2514 70.7813 70.7155 69.5056 70.7822L69.4616 69.2286L73.7594 69.3898Z" fill="#FDBF93"/>
</g>
<path fill-rule="evenodd" clip-rule="evenodd" d="M62.8301 68.8048C62.2119 70.161 61.9769 71.5129 62.125 72.8606C62.3471 74.882 60.2682 83.9613 59.4984 86.6536C58.871 88.0139 58.5226 89.1048 58.4531 89.9261C58.8742 90.3317 59.2073 90.4357 59.4524 90.238C59.6975 90.0404 60.5609 88.9757 62.0427 87.044C62.0432 86.4196 62.097 85.9579 62.2039 85.6589C62.3643 85.2105 63.9275 80.2477 64.6974 79.04C65.4673 77.8322 66.3175 75.2598 65.7871 73.1849C65.7273 72.1102 66.1381 71.0964 67.0194 70.1434C67.2387 69.9063 67.6781 69.6172 67.6153 69.4428C67.4891 69.0919 65.894 68.8792 62.8301 68.8048Z" fill="#FFDDC6"/>
<mask id="mask6_356_194" style="mask-type:luminance" maskUnits="userSpaceOnUse" x="57" y="68" width="12" height="22">
<path fill-rule="evenodd" clip-rule="evenodd" d="M62.0562 68.8449C62.8143 70.1298 63.191 71.45 63.1861 72.8056C63.1788 74.8389 66.2058 83.6535 67.2559 86.2514C68.0236 87.5395 68.4854 88.5883 68.6413 89.398C68.2654 89.8449 67.9451 89.9827 67.6804 89.8115C67.4158 89.6402 66.4446 88.6707 64.7668 86.9028C64.7003 86.2818 64.598 85.8282 64.4601 85.542C64.2532 85.1125 62.1741 80.3386 61.2808 79.2171C60.3875 78.0956 59.2701 75.6251 59.5783 73.5067C59.5242 72.4318 59.0086 71.466 58.0314 70.6093C57.7883 70.3962 57.3207 70.1541 57.3646 69.9742C57.4531 69.6121 59.017 69.2357 62.0562 68.8449Z" fill="white"/>
</mask>
<g mask="url(#mask6_356_194)">
<path fill-rule="evenodd" clip-rule="evenodd" d="M67.6153 69.5844C64.0715 69.5351 62.1923 69.8501 61.9775 70.5294L62.246 68.6394C63.6257 68.6943 64.6373 68.7784 65.2809 68.8916C66.0792 69.05 66.8607 69.2819 67.6153 69.5844Z" fill="#FDBF93"/>
</g>
<path fill-rule="evenodd" clip-rule="evenodd" d="M76.4475 68.6394C72.3695 69.8856 69.2359 70.1819 67.047 69.5282C64.858 68.8745 62.5286 68.6835 60.0589 68.9552C60.5833 66.6148 61.3372 63.8408 62.3206 60.633C63.304 57.4253 64.4324 54.5662 65.7059 52.0557H73.6583C73.7676 54.1185 74.275 57.1046 75.1805 61.014C76.086 64.9234 76.5083 67.4652 76.4475 68.6394Z" fill="#2E4972"/>
<mask id="mask7_356_194" style="mask-type:luminance" maskUnits="userSpaceOnUse" x="59" y="51" width="17" height="20">
<path fill-rule="evenodd" clip-rule="evenodd" d="M59.337 69.5263C63.5245 70.3441 66.6721 70.3148 68.78 69.4384C70.8879 68.5619 73.1843 68.1311 75.6693 68.146C74.9004 65.8727 73.8574 63.1918 72.5404 60.1033C71.2234 57.0148 69.7991 54.288 68.2673 51.9229L60.3584 52.7451C60.4678 54.8079 60.2787 57.8301 59.7913 61.8117C59.3039 65.7933 59.1525 68.3648 59.337 69.5263Z" fill="white"/>
</mask>
<g mask="url(#mask7_356_194)">
<path fill-rule="evenodd" clip-rule="evenodd" d="M75.472 52.7099C70.8457 53.9545 68.0282 55.0836 67.0194 56.0974C65.5063 57.6179 63.18 61.7634 62.0442 70.9131L59.1699 71.0564C59.6282 67.1756 60.0237 64.5337 60.3564 63.1307C61.9377 56.4616 64.0676 53.1383 65.4346 51.6263L75.8359 51.7046L75.472 52.7099Z" fill="#1F3454"/>
</g>
<path fill-rule="evenodd" clip-rule="evenodd" d="M70.631 41.8083H67.4651C66.7934 41.8083 66.2527 41.8273 65.0457 42.9547C63.8387 44.0821 59.6392 46.6647 59.6392 47.9124C59.6392 49.16 60.7057 51.6264 61.6066 53.0316L62.8938 52.175C62.6511 51.1965 62.4828 50.4656 62.3888 49.9825C62.2948 49.4994 62.1939 48.8461 62.0861 48.0224L66.2207 45.7923C65.6646 46.7643 65.7104 47.8461 66.3579 49.0378L65.6574 52.175L73.6584 52.0557L73.8312 49.4512C74.6428 47.5666 75.2036 46.6243 75.5135 46.6243C75.7181 46.6243 77.019 46.8963 78.4497 47.3297C80.27 47.8811 82.3902 48.666 83.4701 48.4239C85.2606 48.0224 83.1435 41.887 82.5539 40.1637C81.9643 38.4404 81.3685 37.3934 81.3685 36.6463C81.5607 36.2941 81.682 35.9085 81.7257 35.5106C81.773 34.9734 81.8752 34.5389 81.6822 34.4799C81.4891 34.421 81.3494 34.563 81.3494 34.8807C81.3494 35.1984 81.3563 35.6764 81.0364 35.9135C81.0203 34.5471 80.9619 33.805 80.861 33.6873C80.7096 33.5106 80.5265 33.6822 80.4317 34.5785C80.3685 35.176 80.3369 35.6408 80.3369 35.9727C79.6831 34.8713 79.2065 34.2181 78.9073 34.0131C78.4584 33.7056 78.2353 34.0148 78.7032 34.5785C79.1711 35.1422 79.8245 36.1074 79.8245 36.4939C78.9716 36.1464 78.4042 36.1972 78.1223 36.6463C77.6995 37.3199 78.0479 37.5433 78.2066 37.3829C78.3654 37.2225 78.4501 36.9171 78.7925 36.8271C79.1348 36.7372 80.0758 37.3043 79.7666 38.0368C79.4575 38.7692 78.6924 38.2703 78.3716 37.8512C78.0509 37.4321 77.4966 38.0393 78.2066 38.5867C78.9167 39.1342 79.491 39.1342 80.1235 39.1357C80.6777 39.9347 81.0388 40.8492 81.1786 41.8083C81.3055 42.7343 81.4598 43.9805 81.6415 45.547C80.7715 45.2517 80.1466 45.0174 79.7666 44.8438C77.1164 43.6335 75.5823 42.807 75.1405 42.6684C74.6036 42.5 73.1005 42.2133 70.631 41.8083Z" fill="#FFDDC6"/>
<mask id="mask8_356_194" style="mask-type:luminance" maskUnits="userSpaceOnUse" x="59" y="33" width="26" height="21">
<path fill-rule="evenodd" clip-rule="evenodd" d="M70.631 41.8083H67.4651C66.7934 41.8083 66.2527 41.8273 65.0457 42.9547C63.8387 44.0821 59.6392 46.6647 59.6392 47.9124C59.6392 49.16 60.7057 51.6264 61.6066 53.0316L62.8938 52.175C62.6511 51.1965 62.4828 50.4656 62.3888 49.9825C62.2948 49.4994 62.1939 48.8461 62.0861 48.0224L66.2207 45.7923C65.6646 46.7643 65.7104 47.8461 66.3579 49.0378L65.6574 52.175L73.6584 52.0557L73.8312 49.4512C74.6428 47.5666 75.2036 46.6243 75.5135 46.6243C75.7181 46.6243 77.019 46.8963 78.4497 47.3297C80.27 47.8811 82.3902 48.666 83.4701 48.4239C85.2606 48.0224 83.1435 41.887 82.5539 40.1637C81.9643 38.4404 81.3685 37.3934 81.3685 36.6463C81.5607 36.2941 81.682 35.9085 81.7257 35.5106C81.773 34.9734 81.8752 34.5389 81.6822 34.4799C81.4891 34.421 81.3494 34.563 81.3494 34.8807C81.3494 35.1984 81.3563 35.6764 81.0364 35.9135C81.0203 34.5471 80.9619 33.805 80.861 33.6873C80.7096 33.5106 80.5265 33.6822 80.4317 34.5785C80.3685 35.176 80.3369 35.6408 80.3369 35.9727C79.6831 34.8713 79.2065 34.2181 78.9073 34.0131C78.4584 33.7056 78.2353 34.0148 78.7032 34.5785C79.1711 35.1422 79.8245 36.1074 79.8245 36.4939C78.9716 36.1464 78.4042 36.1972 78.1223 36.6463C77.6995 37.3199 78.0479 37.5433 78.2066 37.3829C78.3654 37.2225 78.4501 36.9171 78.7925 36.8271C79.1348 36.7372 80.0758 37.3043 79.7666 38.0368C79.4575 38.7692 78.6924 38.2703 78.3716 37.8512C78.0509 37.4321 77.4966 38.0393 78.2066 38.5867C78.9167 39.1342 79.491 39.1342 80.1235 39.1357C80.6777 39.9347 81.0388 40.8492 81.1786 41.8083C81.3055 42.7343 81.4598 43.9805 81.6415 45.547C80.7715 45.2517 80.1466 45.0174 79.7666 44.8438C77.1164 43.6335 75.5823 42.807 75.1405 42.6684C74.6036 42.5 73.1005 42.2133 70.631 41.8083Z" fill="white"/>
</mask>
<g mask="url(#mask8_356_194)">
<path fill-rule="evenodd" clip-rule="evenodd" d="M67.0731 41.6504C67.5224 42.8192 67.5236 43.7935 67.0764 44.5734C66.6293 45.3533 66.3401 45.7614 66.209 45.7975C66.054 45.9852 65.938 46.1173 65.8611 46.1937L65.5388 49.2326L65.9691 49.6165L65.1511 52.7627H73.9439L74.3382 49.2326L75.5134 46.8136C74.3528 46.5353 74.2285 45.0709 75.1404 42.4205C76.0524 39.7701 73.3633 39.5134 67.0731 41.6504Z" fill="#80A5DC"/>
<mask id="mask9_356_194" style="mask-type:luminance" maskUnits="userSpaceOnUse" x="65" y="40" width="11" height="13">
<path fill-rule="evenodd" clip-rule="evenodd" d="M67.0731 41.6504C67.5224 42.8192 67.5236 43.7935 67.0764 44.5734C66.6293 45.3533 66.3401 45.7614 66.209 45.7975C66.054 45.9852 65.938 46.1173 65.8611 46.1937L65.5388 49.2326L65.9691 49.6165L65.1511 52.7627H73.9439L74.3382 49.2326L75.5134 46.8136C74.3528 46.5353 74.2285 45.0709 75.1404 42.4205C76.0524 39.7701 73.3633 39.5134 67.0731 41.6504Z" fill="white"/>
</mask>
<g mask="url(#mask9_356_194)">
<path fill-rule="evenodd" clip-rule="evenodd" d="M65.7933 46.9969C65.633 47.8332 65.8708 48.5512 66.5068 49.1511C67.1853 49.7909 72.2329 50.0894 73.065 49.4615C73.8216 48.8905 74.6155 47.3859 74.6203 45.8845L75.4275 46.8996L73.6851 52.2974L65.4576 52.5394L65.8529 49.4615L65.547 47.4764L65.7933 46.9969ZM67.465 41.8083C67.8925 43.5795 67.5025 44.9072 66.2951 45.7916L67.0731 41.7484L67.465 41.8083Z" fill="#7398CF"/>
</g>
</g>
<path fill-rule="evenodd" clip-rule="evenodd" d="M63.4984 52.8814C63.5986 53.0378 63.785 53.1501 64.0575 53.218C64.6006 52.6788 64.9464 52.3881 65.0951 52.346C65.2438 52.304 65.4134 52.2581 65.6038 52.2085C65.8625 51.8386 66.0909 51.6202 66.2889 51.5533C66.4868 51.4864 66.8707 51.426 67.4405 51.3722C67.5001 51.6079 67.4073 51.7522 67.1621 51.8052C66.7942 51.8847 66.4832 51.8991 66.386 52.0288C67.1156 52.2184 67.6165 52.5348 67.8887 52.9782C67.8977 53.1387 67.8156 53.2204 67.6423 53.2233C67.6493 53.4191 67.5281 53.48 67.2789 53.4061C67.0683 53.3437 66.8821 53.2095 66.6617 53.1048C66.498 53.0385 66.3202 53.0133 66.1442 53.0317L67.0993 53.6778C66.9661 53.8348 66.7869 53.8658 66.5617 53.7706C66.3364 53.6755 66.0981 53.5656 65.8469 53.441C65.4892 53.493 65.2744 53.519 65.2027 53.519C65.0951 53.519 64.6295 54.6896 64.0575 54.6537C63.4855 54.6177 63.2769 54.6537 62.1951 53.6778C61.4739 53.0272 60.8444 51.9171 60.3068 50.3475L62.1951 49.0478C62.4764 50.3859 62.6866 51.262 62.8258 51.6764C62.9651 52.119 63.194 52.5289 63.4984 52.8814Z" fill="#FFDDC6"/>
<path fill-rule="evenodd" clip-rule="evenodd" d="M73.0825 40.0113C73.0273 40.8357 73.0499 41.4064 73.1503 41.7235C73.2507 42.0406 73.6026 42.2569 74.2061 42.3724C73.5881 42.9305 72.8061 43.185 71.86 43.136C70.914 43.087 70.117 42.6473 69.4691 41.817C70.1926 41.7872 70.6243 41.5779 70.7642 41.1891C70.9041 40.8002 70.9576 40.3241 70.9246 39.7606L73.0825 40.0113Z" fill="#FFDDC6"/>
<mask id="mask10_356_194" style="mask-type:luminance" maskUnits="userSpaceOnUse" x="69" y="39" width="6" height="5">
<path fill-rule="evenodd" clip-rule="evenodd" d="M73.0825 40.0113C73.0273 40.8357 73.0499 41.4064 73.1503 41.7235C73.2507 42.0406 73.6026 42.2569 74.2061 42.3724C73.5881 42.9305 72.8061 43.185 71.86 43.136C70.914 43.087 70.117 42.6473 69.4691 41.817C70.1926 41.7872 70.6243 41.5779 70.7642 41.1891C70.9041 40.8002 70.9576 40.3241 70.9246 39.7606L73.0825 40.0113Z" fill="white"/>
</mask>
<g mask="url(#mask10_356_194)">
<path fill-rule="evenodd" clip-rule="evenodd" d="M73.1684 40.2989C72.4145 40.9248 71.5081 41.3444 70.5392 41.516C70.7812 40.2489 70.9022 39.6154 70.9022 39.6154L73.2334 39.7595L73.1684 40.2989Z" fill="#FDBF93"/>
</g>
<path fill-rule="evenodd" clip-rule="evenodd" d="M69.7121 37.2315C69.2628 34.8986 69.7398 33.7686 71.1431 33.8413C71.8105 33.2335 72.7198 33.2693 73.871 33.9487C75.5978 34.9677 74.9025 37.438 73.8531 38.6574C73.1535 39.4704 71.7732 38.995 69.7121 37.2315Z" fill="#021229"/>
<path fill-rule="evenodd" clip-rule="evenodd" d="M69.8653 36.5151C69.6701 36.4367 69.5396 36.4509 69.4739 36.5578C69.3824 36.7067 69.5308 36.8929 69.63 37.1484C69.7252 37.3939 69.6955 37.6993 69.8939 37.6576C70.0671 37.6211 70.0575 37.2402 69.8653 36.5151ZM74.4283 36.7618C74.6486 36.6981 74.7858 36.7229 74.8398 36.836C74.9151 36.9935 74.7415 37.1319 74.6158 37.3758C74.4952 37.6101 74.553 37.9049 74.3091 37.8923C74.1368 37.8833 74.1766 37.5065 74.4283 36.7618Z" fill="#FFDDC6"/>
<path fill-rule="evenodd" clip-rule="evenodd" d="M74.4134 36.5317C74.5146 39.3116 72.9381 40.4642 71.9968 40.4155C71.0554 40.3667 69.6225 39.0769 70.1208 36.4891C70.4509 36.0223 70.6719 35.7276 70.7838 35.605C70.9474 35.4304 71.056 35.2123 71.0963 34.9776C71.5043 35.3947 72.0507 35.7684 72.7356 36.0988C73.0262 36.239 73.5855 36.3833 74.4134 36.5317Z" fill="#FFDDC6"/>
<path fill-rule="evenodd" clip-rule="evenodd" d="M72.4071 38.29C72.3171 38.448 72.2047 38.5236 72.07 38.5166C71.9352 38.5096 71.8489 38.4238 71.8112 38.2591C71.8453 38.2952 71.8865 38.324 71.9323 38.3437C71.9782 38.3635 72.0276 38.3737 72.0775 38.3739C72.1934 38.3792 72.3082 38.35 72.4071 38.29Z" fill="#FDBF93"/>
<path d="M71.4183 37.5648C71.5328 37.5648 71.6257 37.473 71.6257 37.3597C71.6257 37.2464 71.5328 37.1546 71.4183 37.1546C71.3038 37.1546 71.2109 37.2464 71.2109 37.3597C71.2109 37.473 71.3038 37.5648 71.4183 37.5648Z" fill="#352A23"/>
<path d="M72.9644 37.6378C73.079 37.6378 73.1718 37.546 73.1718 37.4327C73.1718 37.3194 73.079 37.2276 72.9644 37.2276C72.8499 37.2276 72.7571 37.3194 72.7571 37.4327C72.7571 37.546 72.8499 37.6378 72.9644 37.6378Z" fill="#352A23"/>
<path fill-rule="evenodd" clip-rule="evenodd" d="M73.2223 36.6338C73.1298 36.579 72.7497 36.5223 72.603 36.5147C72.4563 36.5071 72.4603 36.6562 72.5754 36.6411C72.7631 36.6335 72.9511 36.6503 73.1344 36.6911C73.2633 36.726 73.3148 36.6885 73.2223 36.6338ZM71.1042 36.524C71.202 36.4791 71.586 36.462 71.7327 36.4696C71.8793 36.4772 71.8597 36.625 71.7468 36.5981C71.5609 36.5712 71.3722 36.5685 71.1855 36.5901C71.0536 36.6115 71.0064 36.5689 71.1042 36.524Z" fill="#55473D"/>
<path fill-rule="evenodd" clip-rule="evenodd" d="M72.6221 39.0803C72.229 39.5078 71.8539 39.4884 71.4966 39.0219L72.6221 39.0803Z" fill="#8F6344"/>
<mask id="mask11_356_194" style="mask-type:luminance" maskUnits="userSpaceOnUse" x="71" y="39" width="2" height="1">
<path fill-rule="evenodd" clip-rule="evenodd" d="M72.6221 39.0803C72.229 39.5078 71.8539 39.4884 71.4966 39.0219L72.6221 39.0803Z" fill="white"/>
</mask>
<g mask="url(#mask11_356_194)">
<path fill-rule="evenodd" clip-rule="evenodd" d="M72.7443 38.811L71.4191 38.7423L71.3917 38.9819C71.5893 39.0797 71.8023 39.1438 72.0216 39.1713C72.2581 39.1653 72.4924 39.1246 72.7169 39.0505L72.7443 38.811Z" fill="white"/>
</g>
<path fill-rule="evenodd" clip-rule="evenodd" d="M71.0963 34.9776C71.1334 35.4966 71.8046 36.1608 73.1099 36.9702C73.9613 37.5927 74.2562 38.5141 73.9944 39.7345C75.1338 38.561 75.4276 37.5873 74.8758 36.8135C74.5789 36.3971 73.2298 36.3272 72.5535 35.9952C72.025 35.7203 71.5351 35.3782 71.0963 34.9776Z" fill="#163057"/>
<path d="M71.9704 37.4248C71.9879 37.0948 71.7287 36.8131 71.3914 36.7956C71.0542 36.7781 70.7667 37.0315 70.7492 37.3614C70.7317 37.6914 70.9909 37.9731 71.3281 37.9906C71.6653 38.0081 71.9529 37.7547 71.9704 37.4248Z" stroke="white" stroke-width="0.55"/>
<path d="M73.6062 37.5023C73.6237 37.1723 73.3645 36.8906 73.0273 36.8731C72.6901 36.8556 72.4025 37.109 72.3851 37.439C72.3676 37.769 72.6268 38.0506 72.964 38.0681C73.3012 38.0856 73.5888 37.8323 73.6062 37.5023Z" stroke="white" stroke-width="0.55"/>
<path d="M72.392 37.3395L71.9759 37.3179M70.7705 37.2171L69.9116 36.5733" stroke="white" stroke-width="0.55"/>
<path fill-rule="evenodd" clip-rule="evenodd" d="M71.0963 34.9776C71.1099 35.645 70.8764 36.2841 70.3958 36.895C69.6749 37.8113 69.6294 38.7925 70.6032 40.0892C69.6906 39.5922 69.2345 38.9078 69.2349 38.036C69.2352 37.3245 69.5397 36.9764 70.3591 36.1091C70.4821 35.9789 70.7278 35.6017 71.0963 34.9776Z" fill="#163057"/>
<path fill-rule="evenodd" clip-rule="evenodd" d="M73.4086 39.7453C74.6979 40.89 75.2034 41.974 74.9251 42.9973C74.5077 44.5323 73.0732 44.2727 73.2959 46.4786C72.1486 46.1549 71.5586 45.6215 71.5257 44.8784C71.4763 43.7638 72.9069 43.2398 72.9875 41.7194L73.0765 40.0396C73.1559 39.9788 73.2142 39.9319 73.2514 39.8989C73.2887 39.8659 73.3411 39.8147 73.4086 39.7453Z" fill="#021229"/>
<path d="M73.1228 40.0585C73.011 41.5719 72.7753 42.5405 72.4158 42.9643C71.8764 43.5999 70.5726 44.9983 72.1635 45.8936" stroke="#021229" stroke-width="0.55"/>
<path d="M81.8017 79.4274C82.756 79.4274 83.5296 78.6622 83.5296 77.7183C83.5296 76.7744 82.756 76.0092 81.8017 76.0092C80.8474 76.0092 80.0739 76.7744 80.0739 77.7183C80.0739 78.6622 80.8474 79.4274 81.8017 79.4274Z" fill="url(#paint5_linear_356_194)"/>
<path d="M15.1743 83.2558C15.9115 77.1821 15.9115 72.8068 15.1743 70.1299M14.3449 83.2558C13.9436 79.9957 12.81 76.8656 11.0273 74.095M16.0036 83.2558C16.1971 80.2091 17.2108 78.0214 19.0447 76.6928" stroke="#293D5A" stroke-width="0.385"/>
<path fill-rule="evenodd" clip-rule="evenodd" d="M11.9949 83.9394H18.2153L17.3956 91.0026C17.3766 91.166 17.2976 91.3168 17.1735 91.4262C17.0494 91.5357 16.8889 91.5962 16.7227 91.5962H13.4876C13.3213 91.5962 13.1609 91.5357 13.0368 91.4262C12.9127 91.3168 12.8336 91.166 12.8147 91.0026L11.9949 83.9394Z" fill="#85A1CC"/>
<path d="M11.9529 82.8456H18.3956C18.5311 82.8456 18.661 82.8988 18.7568 82.9936C18.8526 83.0884 18.9065 83.2169 18.9065 83.3509V84.1177C18.9065 84.2517 18.8526 84.3803 18.7568 84.475C18.661 84.5698 18.5311 84.623 18.3956 84.623H11.9529C11.8174 84.623 11.6875 84.5698 11.5917 84.475C11.4958 84.3803 11.442 84.2517 11.442 84.1177V83.3509C11.442 83.2846 11.4552 83.2188 11.4809 83.1575C11.5066 83.0962 11.5442 83.0405 11.5917 82.9936C11.6391 82.9467 11.6954 82.9094 11.7574 82.884C11.8194 82.8586 11.8858 82.8456 11.9529 82.8456Z" fill="#456594"/>
<path d="M16.6323 79.9941C16.3639 78.2662 16.8082 76.9154 17.9653 75.942C19.7009 74.4817 21.4107 74.5023 22.5876 74.8099C23.3722 75.015 23.97 75.3923 24.3812 75.942C23.202 76.0699 22.3348 76.3119 21.7795 76.6681C20.9467 77.2024 20.8585 77.9314 19.0149 78.443C17.7858 78.7841 16.9917 79.3011 16.6323 79.9941Z" fill="#4D84D5"/>
<path d="M15.576 77.8862C14.5669 77.2581 14.1085 76.4162 14.2009 75.3605C14.3395 73.7769 12.6512 72.8581 12.6512 70.3236C12.6512 67.7892 12.912 66.8926 11.9949 64.2506C13.7985 64.7702 15.0827 65.7488 15.8474 67.1866C16.9944 69.3433 16.4469 70.6361 16.8453 73.3623C17.1109 75.1798 16.6878 76.6878 15.576 77.8862Z" fill="#4D84D5"/>
<path d="M13.7621 79.8933C12.7618 79.889 12.0643 79.4154 11.6693 78.4727C11.0769 77.0585 10.2183 77.0517 9.64662 75.3367C9.2655 74.1934 8.66597 73.4832 7.84802 73.206C8.75165 72.6613 9.68677 72.5819 10.6534 72.9677C12.1033 73.5465 12.2955 74.779 13.417 76.1654C14.1646 77.0897 14.2797 78.3324 13.7621 79.8933Z" fill="#4D84D5"/>
<path d="M51.7485 54H25.2515C24.5603 54 24 54.4105 24 54.9169V61.0831C24 61.5895 24.5603 62 25.2515 62H51.7485C52.4397 62 53 61.5895 53 61.0831V54.9169C53 54.4105 52.4397 54 51.7485 54Z" fill="url(#paint6_linear_356_194)"/>
<path d="M51.7485 63H25.2515C24.5603 63 24 63.4105 24 63.9169V70.0831C24 70.5895 24.5603 71 25.2515 71H51.7485C52.4397 71 53 70.5895 53 70.0831V63.9169C53 63.4105 52.4397 63 51.7485 63Z" fill="url(#paint7_linear_356_194)"/>
<path d="M51.7485 72H25.2515C24.5603 72 24 72.4105 24 72.9169V79.0831C24 79.5895 24.5603 80 25.2515 80H51.7485C52.4397 80 53 79.5895 53 79.0831V72.9169C53 72.4105 52.4397 72 51.7485 72Z" fill="url(#paint8_linear_356_194)"/>
<path d="M35 58H49.0204" stroke="white" stroke-width="2.75" stroke-linecap="round"/>
<path d="M35 67H49.0204" stroke="white" stroke-width="2.75" stroke-linecap="round"/>
<path d="M35 76H49.0204" stroke="white" stroke-width="2.75" stroke-linecap="round"/>
<path fill-rule="evenodd" clip-rule="evenodd" d="M27.9973 56H28.0027C28.5324 56 29.0404 56.2107 29.415 56.5858C29.7896 56.9609 30 57.4696 30 58C30 58.5304 29.7896 59.0391 29.415 59.4142C29.0404 59.7893 28.5324 60 28.0027 60H27.9973C27.4676 60 26.9596 59.7893 26.585 59.4142C26.2104 59.0391 26 58.5304 26 58C26 57.4696 26.2104 56.9609 26.585 56.5858C26.9596 56.2107 27.4676 56 27.9973 56Z" fill="white"/>
<path fill-rule="evenodd" clip-rule="evenodd" d="M27.9973 65H28.0027C28.5324 65 29.0404 65.2107 29.415 65.5858C29.7896 65.9609 30 66.4696 30 67C30 67.5304 29.7896 68.0391 29.415 68.4142C29.0404 68.7893 28.5324 69 28.0027 69H27.9973C27.4676 69 26.9596 68.7893 26.585 68.4142C26.2104 68.0391 26 67.5304 26 67C26 66.4696 26.2104 65.9609 26.585 65.5858C26.9596 65.2107 27.4676 65 27.9973 65Z" fill="white"/>
<path fill-rule="evenodd" clip-rule="evenodd" d="M27.9973 74H28.0027C28.5324 74 29.0404 74.2107 29.415 74.5858C29.7896 74.9609 30 75.4696 30 76C30 76.5304 29.7896 77.0391 29.415 77.4142C29.0404 77.7893 28.5324 78 28.0027 78H27.9973C27.4676 78 26.9596 77.7893 26.585 77.4142C26.2104 77.0391 26 76.5304 26 76C26 75.4696 26.2104 74.9609 26.585 74.5858C26.9596 74.2107 27.4676 74 27.9973 74Z" fill="white"/>
<path fill-rule="evenodd" clip-rule="evenodd" d="M27.994 57.3533C28.0331 57.2496 28.0995 57.1607 28.1848 57.0978C28.2701 57.035 28.3706 57.001 28.4736 57C28.7626 57 28.9706 57.2687 28.9968 57.5889C29.0043 57.6636 28.9986 57.7391 28.9798 57.8114C28.9364 58.0047 28.8402 58.1791 28.7039 58.3116L27.994 59L27.2961 58.3115C27.1598 58.179 27.0636 58.0046 27.0202 57.8114C27.0014 57.7391 26.9957 57.6635 27.0032 57.5888C27.0294 57.2687 27.2374 57 27.5264 57C27.6279 57.0012 27.7267 57.0355 27.8101 57.0984C27.8934 57.1614 27.9575 57.2502 27.994 57.3533Z" fill="url(#paint9_linear_356_194)"/>
<path fill-rule="evenodd" clip-rule="evenodd" d="M27.994 66.3533C28.0331 66.2496 28.0995 66.1607 28.1848 66.0978C28.2701 66.035 28.3706 66.001 28.4736 66C28.7626 66 28.9706 66.2687 28.9968 66.5889C29.0043 66.6636 28.9986 66.7391 28.9798 66.8114C28.9364 67.0047 28.8402 67.1791 28.7039 67.3116L27.994 68L27.2961 67.3115C27.1598 67.179 27.0636 67.0046 27.0202 66.8114C27.0014 66.7391 26.9957 66.6635 27.0032 66.5888C27.0294 66.2687 27.2374 66 27.5264 66C27.6279 66.0012 27.7267 66.0355 27.8101 66.0984C27.8934 66.1614 27.9575 66.2502 27.994 66.3533Z" fill="url(#paint10_linear_356_194)"/>
<path fill-rule="evenodd" clip-rule="evenodd" d="M27.994 75.3533C28.0331 75.2496 28.0995 75.1607 28.1848 75.0978C28.2701 75.035 28.3706 75.001 28.4736 75C28.7626 75 28.9706 75.2687 28.9968 75.5889C29.0043 75.6636 28.9986 75.7391 28.9798 75.8114C28.9364 76.0047 28.8402 76.1791 28.7039 76.3116L27.994 77L27.2961 76.3115C27.1598 76.179 27.0636 76.0046 27.0202 75.8114C27.0014 75.7391 26.9957 75.6635 27.0032 75.5888C27.0294 75.2687 27.2374 75 27.5264 75C27.6279 75.0012 27.7267 75.0355 27.8101 75.0984C27.8934 75.1614 27.9575 75.2502 27.994 75.3533Z" fill="url(#paint11_linear_356_194)"/>
</g>
<defs>
<linearGradient id="paint0_linear_356_194" x1="65.3529" y1="26.2411" x2="65.3529" y2="29.3848" gradientUnits="userSpaceOnUse">
<stop stop-color="#FFB47F"/>
<stop offset="1" stop-color="#F2751E"/>
</linearGradient>
<linearGradient id="paint1_linear_356_194" x1="9.78282" y1="29.7932" x2="9.78282" y2="36.4951" gradientUnits="userSpaceOnUse">
<stop stop-color="#FDC7A1"/>
<stop offset="1" stop-color="#FAA468"/>
</linearGradient>
<linearGradient id="paint2_linear_356_194" x1="39.823" y1="26.2572" x2="39.823" y2="91.5911" gradientUnits="userSpaceOnUse">
<stop stop-color="#C2DAFF"/>
<stop offset="1" stop-color="#95BFFF"/>
</linearGradient>
<linearGradient id="paint3_linear_356_194" x1="38.8665" y1="29.3716" x2="38.8665" y2="89.8833" gradientUnits="userSpaceOnUse">
<stop stop-color="#FCFDFF"/>
<stop offset="1" stop-color="#EBF3FF"/>
</linearGradient>
<linearGradient id="paint4_linear_356_194" x1="39.1931" y1="33.0754" x2="39.1931" y2="51.8133" gradientUnits="userSpaceOnUse">
<stop stop-color="#598FDF"/>
<stop offset="1" stop-color="#2D66BC"/>
</linearGradient>
<linearGradient id="paint5_linear_356_194" x1="81.8018" y1="76.0091" x2="81.8018" y2="79.4285" gradientUnits="userSpaceOnUse">
<stop stop-color="#A1C7FF"/>
<stop offset="1" stop-color="#2C79EC"/>
</linearGradient>
<linearGradient id="paint6_linear_356_194" x1="38.4967" y1="53.9993" x2="38.4967" y2="62.002" gradientUnits="userSpaceOnUse">
<stop stop-color="#D3E2F9"/>
<stop offset="1" stop-color="#B4C9E8"/>
</linearGradient>
<linearGradient id="paint7_linear_356_194" x1="38.4967" y1="62.9993" x2="38.4967" y2="71.002" gradientUnits="userSpaceOnUse">
<stop stop-color="#D3E2F9"/>
<stop offset="1" stop-color="#B4C9E8"/>
</linearGradient>
<linearGradient id="paint8_linear_356_194" x1="38.4967" y1="71.9993" x2="38.4967" y2="80.002" gradientUnits="userSpaceOnUse">
<stop stop-color="#D3E2F9"/>
<stop offset="1" stop-color="#B4C9E8"/>
</linearGradient>
<linearGradient id="paint9_linear_356_194" x1="27.9997" y1="57.0006" x2="27.9997" y2="59" gradientUnits="userSpaceOnUse">
<stop stop-color="#FDC7A1"/>
<stop offset="1" stop-color="#FAA468"/>
</linearGradient>
<linearGradient id="paint10_linear_356_194" x1="27.9997" y1="66.0006" x2="27.9997" y2="68" gradientUnits="userSpaceOnUse">
<stop stop-color="#FDC7A1"/>
<stop offset="1" stop-color="#FAA468"/>
</linearGradient>
<linearGradient id="paint11_linear_356_194" x1="27.9997" y1="75.0006" x2="27.9997" y2="77" gradientUnits="userSpaceOnUse">
<stop stop-color="#FDC7A1"/>
<stop offset="1" stop-color="#FAA468"/>
</linearGradient>
<clipPath id="clip0_356_194">
<rect width="92" height="91" fill="white"/>
</clipPath>
</defs>
</svg>
