<svg width="92" height="91" viewBox="0 0 92 91" fill="none" xmlns="http://www.w3.org/2000/svg">
<g clip-path="url(#clip0_327_850)">
<path fill-rule="evenodd" clip-rule="evenodd" d="M5.06058 45.3778C1.90383 63.1025 15.5942 68.1612 27.2891 65.5778C38.984 62.9945 42.5388 63.4723 58.5533 66.25C74.5678 69.0276 84.058 61.9706 86.9113 48.5234C89.7646 35.0761 80.161 20.3758 57.1772 14.9197C34.1933 9.4636 8.21733 27.653 5.06058 45.3778Z" fill="#F4F8FF"/>
<path d="M46.0001 97.0654C68.8647 97.0654 87.4001 94.4331 87.4001 91.186C87.4001 87.939 68.8647 85.3067 46.0001 85.3067C23.1355 85.3067 4.6001 87.939 4.6001 91.186C4.6001 94.4331 23.1355 97.0654 46.0001 97.0654Z" fill="#F8FBFF"/>
<path d="M65.3524 29.385C66.2303 29.385 66.942 28.681 66.942 27.8126C66.942 26.9442 66.2303 26.2402 65.3524 26.2402C64.4744 26.2402 63.7627 26.9442 63.7627 27.8126C63.7627 28.681 64.4744 29.385 65.3524 29.385Z" fill="url(#paint0_linear_327_850)"/>
<path d="M9.78359 36.4948C11.654 36.4948 13.1702 34.9951 13.1702 33.145C13.1702 31.295 11.654 29.7952 9.78359 29.7952C7.91321 29.7952 6.39697 31.295 6.39697 33.145C6.39697 34.9951 7.91321 36.4948 9.78359 36.4948Z" fill="url(#paint1_linear_327_850)"/>
<path fill-rule="evenodd" clip-rule="evenodd" d="M23.8142 26.2402H51.8749C52.7915 26.2402 53.6704 26.6004 54.3185 27.2414C54.9666 27.8824 55.3307 28.7519 55.3307 29.6584V88.178C55.3307 89.0845 54.9666 89.954 54.3185 90.595C53.6704 91.236 52.7914 91.5962 51.8749 91.5962H23.8142C23.3603 91.5962 22.911 91.5078 22.4917 91.336C22.0724 91.1642 21.6915 90.9124 21.3706 90.595C21.0497 90.2776 20.7951 89.9008 20.6215 89.4861C20.4478 89.0713 20.3584 88.6269 20.3584 88.178V29.6584C20.3584 29.2095 20.4478 28.7651 20.6215 28.3503C20.7951 27.9356 21.0497 27.5588 21.3706 27.2414C21.6915 26.924 22.0724 26.6722 22.4917 26.5004C22.911 26.3286 23.3603 26.2402 23.8142 26.2402Z" fill="#456594"/>
<mask id="mask0_327_850" style="mask-type:luminance" maskUnits="userSpaceOnUse" x="20" y="26" width="36" height="66">
<path fill-rule="evenodd" clip-rule="evenodd" d="M23.8142 26.2402H51.8749C52.7915 26.2402 53.6704 26.6004 54.3185 27.2414C54.9666 27.8824 55.3307 28.7519 55.3307 29.6584V88.178C55.3307 89.0845 54.9666 89.954 54.3185 90.595C53.6704 91.236 52.7914 91.5962 51.8749 91.5962H23.8142C23.3603 91.5962 22.911 91.5078 22.4917 91.336C22.0724 91.1642 21.6915 90.9124 21.3706 90.595C21.0497 90.2776 20.7951 89.9008 20.6215 89.4861C20.4478 89.0713 20.3584 88.6269 20.3584 88.178V29.6584C20.3584 29.2095 20.4478 28.7651 20.6215 28.3503C20.7951 27.9356 21.0497 27.5588 21.3706 27.2414C21.6915 26.924 22.0724 26.6722 22.4917 26.5004C22.911 26.3286 23.3603 26.2402 23.8142 26.2402Z" fill="white"/>
</mask>
<g mask="url(#mask0_327_850)">
<path d="M21.5192 37.9109H21.4035C21.1745 37.9109 20.9888 38.0946 20.9888 38.3211V50.883C20.9888 51.1096 21.1745 51.2933 21.4035 51.2933H21.5192C21.7483 51.2933 21.934 51.1096 21.934 50.883V38.3211C21.934 38.0946 21.7483 37.9109 21.5192 37.9109Z" fill="#D9E8FF"/>
</g>
<mask id="mask1_327_850" style="mask-type:luminance" maskUnits="userSpaceOnUse" x="20" y="26" width="36" height="66">
<path fill-rule="evenodd" clip-rule="evenodd" d="M23.8142 26.2402H51.8749C52.7915 26.2402 53.6704 26.6004 54.3185 27.2414C54.9666 27.8824 55.3307 28.7519 55.3307 29.6584V88.178C55.3307 89.0845 54.9666 89.954 54.3185 90.595C53.6704 91.236 52.7914 91.5962 51.8749 91.5962H23.8142C23.3603 91.5962 22.911 91.5078 22.4917 91.336C22.0724 91.1642 21.6915 90.9124 21.3706 90.595C21.0497 90.2776 20.7951 89.9008 20.6215 89.4861C20.4478 89.0713 20.3584 88.6269 20.3584 88.178V29.6584C20.3584 29.2095 20.4478 28.7651 20.6215 28.3503C20.7951 27.9356 21.0497 27.5588 21.3706 27.2414C21.6915 26.924 22.0724 26.6722 22.4917 26.5004C22.911 26.3286 23.3603 26.2402 23.8142 26.2402Z" fill="white"/>
</mask>
<g mask="url(#mask1_327_850)">
<path d="M21.5192 53.4719H21.4035C21.1745 53.4719 20.9888 53.6556 20.9888 53.8821V58.6635C20.9888 58.8901 21.1745 59.0738 21.4035 59.0738H21.5192C21.7483 59.0738 21.934 58.8901 21.934 58.6635V53.8821C21.934 53.6556 21.7483 53.4719 21.5192 53.4719Z" fill="#D9E8FF"/>
</g>
<mask id="mask2_327_850" style="mask-type:luminance" maskUnits="userSpaceOnUse" x="20" y="26" width="36" height="66">
<path fill-rule="evenodd" clip-rule="evenodd" d="M23.8142 26.2402H51.8749C52.7915 26.2402 53.6704 26.6004 54.3185 27.2414C54.9666 27.8824 55.3307 28.7519 55.3307 29.6584V88.178C55.3307 89.0845 54.9666 89.954 54.3185 90.595C53.6704 91.236 52.7914 91.5962 51.8749 91.5962H23.8142C23.3603 91.5962 22.911 91.5078 22.4917 91.336C22.0724 91.1642 21.6915 90.9124 21.3706 90.595C21.0497 90.2776 20.7951 89.9008 20.6215 89.4861C20.4478 89.0713 20.3584 88.6269 20.3584 88.178V29.6584C20.3584 29.2095 20.4478 28.7651 20.6215 28.3503C20.7951 27.9356 21.0497 27.5588 21.3706 27.2414C21.6915 26.924 22.0724 26.6722 22.4917 26.5004C22.911 26.3286 23.3603 26.2402 23.8142 26.2402Z" fill="white"/>
</mask>
<g mask="url(#mask2_327_850)">
<path fill-rule="evenodd" clip-rule="evenodd" d="M26.0197 26.2402H53.6079C54.5244 26.2402 55.4034 26.6004 56.0515 27.2414C56.6996 27.8824 57.0637 28.7519 57.0637 29.6584V88.178C57.0637 88.6269 56.9743 89.0713 56.8006 89.4861C56.6269 89.9008 56.3724 90.2776 56.0515 90.595C55.7306 90.9124 55.3496 91.1642 54.9304 91.336C54.5111 91.5078 54.0617 91.5962 53.6079 91.5962H26.0197C25.1032 91.5962 24.2242 91.236 23.5761 90.595C22.9281 89.954 22.564 89.0845 22.564 88.178V29.6584C22.564 29.2095 22.6534 28.7651 22.827 28.3503C23.0007 27.9356 23.2552 27.5588 23.5761 27.2414C23.897 26.924 24.278 26.6722 24.6973 26.5004C25.1165 26.3286 25.5659 26.2402 26.0197 26.2402Z" fill="url(#paint2_linear_327_850)"/>
</g>
<mask id="mask3_327_850" style="mask-type:luminance" maskUnits="userSpaceOnUse" x="20" y="26" width="36" height="66">
<path fill-rule="evenodd" clip-rule="evenodd" d="M23.8142 26.2402H51.8749C52.7915 26.2402 53.6704 26.6004 54.3185 27.2414C54.9666 27.8824 55.3307 28.7519 55.3307 29.6584V88.178C55.3307 89.0845 54.9666 89.954 54.3185 90.595C53.6704 91.236 52.7914 91.5962 51.8749 91.5962H23.8142C23.3603 91.5962 22.911 91.5078 22.4917 91.336C22.0724 91.1642 21.6915 90.9124 21.3706 90.595C21.0497 90.2776 20.7951 89.9008 20.6215 89.4861C20.4478 89.0713 20.3584 88.6269 20.3584 88.178V29.6584C20.3584 29.2095 20.4478 28.7651 20.6215 28.3503C20.7951 27.9356 21.0497 27.5588 21.3706 27.2414C21.6915 26.924 22.0724 26.6722 22.4917 26.5004C22.911 26.3286 23.3603 26.2402 23.8142 26.2402Z" fill="white"/>
</mask>
<g mask="url(#mask3_327_850)">
<path d="M35.3242 28.4188C35.5852 28.4188 35.7968 28.2098 35.7968 27.9519C35.7968 27.6941 35.5852 27.4851 35.3242 27.4851C35.0632 27.4851 34.8516 27.6941 34.8516 27.9519C34.8516 28.2098 35.0632 28.4188 35.3242 28.4188Z" fill="#456594"/>
</g>
<mask id="mask4_327_850" style="mask-type:luminance" maskUnits="userSpaceOnUse" x="20" y="26" width="36" height="66">
<path fill-rule="evenodd" clip-rule="evenodd" d="M23.8142 26.2402H51.8749C52.7915 26.2402 53.6704 26.6004 54.3185 27.2414C54.9666 27.8824 55.3307 28.7519 55.3307 29.6584V88.178C55.3307 89.0845 54.9666 89.954 54.3185 90.595C53.6704 91.236 52.7914 91.5962 51.8749 91.5962H23.8142C23.3603 91.5962 22.911 91.5078 22.4917 91.336C22.0724 91.1642 21.6915 90.9124 21.3706 90.595C21.0497 90.2776 20.7951 89.9008 20.6215 89.4861C20.4478 89.0713 20.3584 88.6269 20.3584 88.178V29.6584C20.3584 29.2095 20.4478 28.7651 20.6215 28.3503C20.7951 27.9356 21.0497 27.5588 21.3706 27.2414C21.6915 26.924 22.0724 26.6722 22.4917 26.5004C22.911 26.3286 23.3603 26.2402 23.8142 26.2402Z" fill="white"/>
</mask>
<g mask="url(#mask4_327_850)">
<path fill-rule="evenodd" clip-rule="evenodd" d="M25.187 29.3524H52.5498C52.9531 29.3524 53.3398 29.5109 53.625 29.7929C53.9101 30.075 54.0703 30.4575 54.0703 30.8564V86.8696C54.0703 87.6692 53.7492 88.436 53.1776 89.0014C52.606 89.5668 51.8307 89.8844 51.0224 89.8844H26.7145C25.9061 89.8844 25.1308 89.5668 24.5592 89.0014C23.9876 88.436 23.6665 87.6692 23.6665 86.8696V30.8564C23.6665 30.4575 23.8267 30.075 24.1119 29.7929C24.397 29.5109 24.7838 29.3524 25.187 29.3524Z" fill="url(#paint3_linear_327_850)"/>
</g>
<path d="M39.1973 51.8084C44.4268 51.8084 48.6662 47.6151 48.6662 42.4425C48.6662 37.2699 44.4268 33.0766 39.1973 33.0766C33.9679 33.0766 29.7285 37.2699 29.7285 42.4425C29.7285 47.6151 33.9679 51.8084 39.1973 51.8084Z" fill="url(#paint4_linear_327_850)"/>
<path d="M39.1971 49.6207C43.3577 49.6207 46.7306 46.3457 46.7306 42.3057C46.7306 38.2658 43.3577 34.9908 39.1971 34.9908C35.0364 34.9908 31.6636 38.2658 31.6636 42.3057C31.6636 46.3457 35.0364 49.6207 39.1971 49.6207Z" stroke="white" stroke-width="2.2"/>
<path fill-rule="evenodd" clip-rule="evenodd" d="M60.0587 68.9553C59.9314 69.3367 60.2465 69.5514 61.0042 69.5993C62.1407 69.6711 65.4574 69.2851 68.309 69.732C71.1605 70.179 76.1979 70.2111 76.4293 68.6428C76.4417 68.5581 76.2849 68.5186 76.2473 68.4459C75.9626 67.8958 72.3548 67.8284 65.4239 68.2435L60.0587 68.9553Z" fill="#1F3454"/>
<path fill-rule="evenodd" clip-rule="evenodd" d="M72.1635 91.0656C71.2569 91.7743 70.8697 92.2843 71.0021 92.5956C71.2007 93.0625 72.0303 92.9858 72.6132 92.8228C73.0019 92.7142 73.7301 92.4286 74.7978 91.9662C74.5333 90.2971 74.5801 89.3128 74.9382 89.0135L75.1256 91.344L75.4627 91.3101C75.1996 89.6598 75.1994 88.638 75.4621 88.2447C75.7248 87.8513 75.4491 87.3968 74.6352 86.8809L72.1635 91.0656ZM58.4531 89.9261C56.9031 90.6098 56.0956 91.0953 56.0305 91.3827C55.9653 91.67 56.0699 91.8753 56.344 91.9986C58.385 91.7881 59.4792 91.6367 59.6267 91.5446C59.8478 91.4064 60.5172 89.4565 61.0344 89.4045C61.3792 89.3699 61.5926 90.0146 61.6745 91.3387L62.2121 91.2847C62.0523 90.0002 62.0891 89.1661 62.3224 88.7825C62.6724 88.207 62.645 87.005 61.7355 86.9481C61.1293 86.9101 60.0351 87.9028 58.4531 89.9261Z" fill="#021229"/>
<path fill-rule="evenodd" clip-rule="evenodd" d="M69.4775 69.8109C69.492 70.5086 69.5238 70.9836 69.573 71.236C69.9026 72.9254 70.3011 73.7577 70.4964 74.1109C70.855 74.7595 72.5272 85.8317 72.3172 87.88C72.1773 89.2455 72.126 90.3073 72.1634 91.0655C72.6396 91.4572 73.3095 91.4998 74.1732 91.1932C74.1292 89.1669 74.2696 87.7618 74.5943 86.9777C74.6254 85.7049 74.6058 84.2713 74.5354 82.6769C74.4683 81.1574 75.0069 79.3205 74.9512 77.5491C74.9192 76.5324 74.5833 75.5162 74.0999 74.6477C73.7737 73.5632 73.6023 72.0034 73.5857 69.9684C73.569 67.9334 72.1997 67.8809 69.4775 69.8109Z" fill="#FFDDC6"/>
<mask id="mask5_327_850" style="mask-type:luminance" maskUnits="userSpaceOnUse" x="70" y="68" width="6" height="24">
<path fill-rule="evenodd" clip-rule="evenodd" d="M75.1374 69.5175C75.1968 70.2129 75.2153 70.6886 75.1931 70.9447C75.0439 72.6588 74.7355 73.5279 74.5786 73.8993C74.2905 74.5814 73.7976 85.7658 74.2228 87.7812C74.5063 89.1247 74.6695 90.1754 74.7124 90.9334C74.2802 91.3722 73.6185 91.4838 72.7271 91.2681C72.5567 89.2484 72.2687 87.8655 71.8629 87.1193C71.6974 85.8567 71.5655 84.4289 71.4669 82.836C71.3731 81.3179 70.6433 79.5467 70.5115 77.7793C70.4359 76.7648 70.6625 75.7194 71.0516 74.8058C71.2613 73.6934 71.2669 72.1245 71.0684 70.0989C70.8699 68.0733 72.2263 67.8795 75.1374 69.5175Z" fill="white"/>
</mask>
<g mask="url(#mask5_327_850)">
<path fill-rule="evenodd" clip-rule="evenodd" d="M73.7592 69.3898C72.199 70.2514 70.7811 70.7155 69.5054 70.7822L69.4614 69.2286L73.7592 69.3898Z" fill="#FDBF93"/>
</g>
<path fill-rule="evenodd" clip-rule="evenodd" d="M62.8302 68.8048C62.212 70.161 61.977 71.5129 62.1251 72.8606C62.3472 74.882 60.2683 83.9613 59.4985 86.6536C58.8711 88.0139 58.5226 89.1048 58.4531 89.9261C58.8742 90.3317 59.2073 90.4357 59.4525 90.238C59.6976 90.0404 60.561 88.9757 62.0427 87.044C62.0433 86.4196 62.0971 85.9579 62.204 85.6589C62.3643 85.2105 63.9276 80.2477 64.6975 79.04C65.4673 77.8322 66.3176 75.2598 65.7872 73.1849C65.7274 72.1102 66.1382 71.0964 67.0194 70.1434C67.2387 69.9063 67.6781 69.6172 67.6154 69.4428C67.4891 69.0919 65.8941 68.8792 62.8302 68.8048Z" fill="#FFDDC6"/>
<mask id="mask6_327_850" style="mask-type:luminance" maskUnits="userSpaceOnUse" x="57" y="68" width="12" height="22">
<path fill-rule="evenodd" clip-rule="evenodd" d="M62.0563 68.8449C62.8144 70.1298 63.191 71.45 63.1862 72.8056C63.1789 74.8389 66.2058 83.6535 67.2559 86.2514C68.0237 87.5395 68.4855 88.5883 68.6414 89.398C68.2655 89.8449 67.9452 89.9827 67.6805 89.8115C67.4158 89.6402 66.4446 88.6707 64.7669 86.9028C64.7003 86.2818 64.5981 85.8282 64.4602 85.542C64.2533 85.1125 62.1742 80.3386 61.2809 79.2171C60.3876 78.0956 59.2702 75.6251 59.5784 73.5067C59.5243 72.4318 59.0086 71.466 58.0314 70.6093C57.7883 70.3962 57.3208 70.1541 57.3647 69.9742C57.4532 69.6121 59.0171 69.2357 62.0563 68.8449Z" fill="white"/>
</mask>
<g mask="url(#mask6_327_850)">
<path fill-rule="evenodd" clip-rule="evenodd" d="M67.6153 69.5844C64.0715 69.5351 62.1923 69.8501 61.9775 70.5294L62.246 68.6394C63.6257 68.6943 64.6373 68.7784 65.2809 68.8916C66.0792 69.05 66.8607 69.2819 67.6153 69.5844Z" fill="#FDBF93"/>
</g>
<path fill-rule="evenodd" clip-rule="evenodd" d="M76.4477 68.6394C72.3696 69.8856 69.2361 70.1819 67.0471 69.5282C64.8582 68.8745 62.5288 68.6835 60.0591 68.9552C60.5835 66.6148 61.3374 63.8408 62.3208 60.633C63.3042 57.4253 64.4326 54.5662 65.706 52.0557H73.6585C73.7678 54.1185 74.2752 57.1046 75.1807 61.014C76.0862 64.9234 76.5085 67.4652 76.4477 68.6394Z" fill="#2E4972"/>
<mask id="mask7_327_850" style="mask-type:luminance" maskUnits="userSpaceOnUse" x="59" y="51" width="17" height="20">
<path fill-rule="evenodd" clip-rule="evenodd" d="M59.3373 69.5263C63.5247 70.3441 66.6724 70.3148 68.7803 69.4384C70.8882 68.5619 73.1846 68.1311 75.6695 68.146C74.9006 65.8727 73.8577 63.1918 72.5407 60.1033C71.2237 57.0148 69.7993 54.288 68.2676 51.9229L60.3587 52.7451C60.468 54.8079 60.279 57.8301 59.7916 61.8117C59.3041 65.7933 59.1527 68.3648 59.3373 69.5263Z" fill="white"/>
</mask>
<g mask="url(#mask7_327_850)">
<path fill-rule="evenodd" clip-rule="evenodd" d="M75.472 52.7099C70.8458 53.9545 68.0282 55.0836 67.0195 56.0974C65.5064 57.6179 63.1801 61.7634 62.0443 70.9131L59.1699 71.0564C59.6283 67.1756 60.0238 64.5337 60.3564 63.1307C61.9377 56.4616 64.0676 53.1383 65.4346 51.6263L75.836 51.7046L75.472 52.7099Z" fill="#1F3454"/>
</g>
<path fill-rule="evenodd" clip-rule="evenodd" d="M70.631 41.8083H67.4651C66.7933 41.8083 66.2526 41.8273 65.0456 42.9547C63.8386 44.0821 59.6392 46.6647 59.6392 47.9124C59.6392 49.16 60.7057 51.6264 61.6065 53.0316L62.8937 52.175C62.651 51.1965 62.4827 50.4656 62.3887 49.9825C62.2947 49.4994 62.1938 48.8461 62.086 48.0224L66.2206 45.7923C65.6646 46.7643 65.7103 47.8461 66.3578 49.0378L65.6574 52.175L73.6584 52.0557L73.8312 49.4512C74.6427 47.5666 75.2035 46.6243 75.5134 46.6243C75.718 46.6243 77.0189 46.8963 78.4496 47.3297C80.2699 47.8811 82.3902 48.666 83.4701 48.4239C85.2606 48.0224 83.1434 41.887 82.5538 40.1637C81.9642 38.4404 81.3684 37.3934 81.3684 36.6463C81.5606 36.2941 81.6819 35.9085 81.7257 35.5106C81.773 34.9734 81.8752 34.5389 81.6821 34.4799C81.489 34.421 81.3494 34.563 81.3494 34.8807C81.3494 35.1984 81.3563 35.6764 81.0363 35.9135C81.0203 34.5471 80.9618 33.805 80.8609 33.6873C80.7095 33.5106 80.5264 33.6822 80.4317 34.5785C80.3685 35.176 80.3369 35.6408 80.3369 35.9727C79.683 34.8713 79.2064 34.2181 78.9072 34.0131C78.4583 33.7056 78.2353 34.0148 78.7031 34.5785C79.171 35.1422 79.8245 36.1074 79.8245 36.4939C78.9715 36.1464 78.4041 36.1972 78.1223 36.6463C77.6995 37.3199 78.0478 37.5433 78.2066 37.3829C78.3654 37.2225 78.4501 36.9171 78.7924 36.8271C79.1348 36.7372 80.0757 37.3043 79.7666 38.0368C79.4574 38.7692 78.6923 38.2703 78.3716 37.8512C78.0508 37.4321 77.4966 38.0393 78.2066 38.5867C78.9166 39.1342 79.4909 39.1342 80.1234 39.1357C80.6777 39.9347 81.0387 40.8492 81.1786 41.8083C81.3055 42.7343 81.4598 43.9805 81.6414 45.547C80.7715 45.2517 80.1465 45.0174 79.7666 44.8438C77.1163 43.6335 75.5823 42.807 75.1404 42.6684C74.6036 42.5 73.1004 42.2133 70.631 41.8083Z" fill="#FFDDC6"/>
<mask id="mask8_327_850" style="mask-type:luminance" maskUnits="userSpaceOnUse" x="59" y="33" width="26" height="21">
<path fill-rule="evenodd" clip-rule="evenodd" d="M70.631 41.8083H67.4651C66.7933 41.8083 66.2526 41.8273 65.0456 42.9547C63.8386 44.0821 59.6392 46.6647 59.6392 47.9124C59.6392 49.16 60.7057 51.6264 61.6065 53.0316L62.8937 52.175C62.651 51.1965 62.4827 50.4656 62.3887 49.9825C62.2947 49.4994 62.1938 48.8461 62.086 48.0224L66.2206 45.7923C65.6646 46.7643 65.7103 47.8461 66.3578 49.0378L65.6574 52.175L73.6584 52.0557L73.8312 49.4512C74.6427 47.5666 75.2035 46.6243 75.5134 46.6243C75.718 46.6243 77.0189 46.8963 78.4496 47.3297C80.2699 47.8811 82.3902 48.666 83.4701 48.4239C85.2606 48.0224 83.1434 41.887 82.5538 40.1637C81.9642 38.4404 81.3684 37.3934 81.3684 36.6463C81.5606 36.2941 81.6819 35.9085 81.7257 35.5106C81.773 34.9734 81.8752 34.5389 81.6821 34.4799C81.489 34.421 81.3494 34.563 81.3494 34.8807C81.3494 35.1984 81.3563 35.6764 81.0363 35.9135C81.0203 34.5471 80.9618 33.805 80.8609 33.6873C80.7095 33.5106 80.5264 33.6822 80.4317 34.5785C80.3685 35.176 80.3369 35.6408 80.3369 35.9727C79.683 34.8713 79.2064 34.2181 78.9072 34.0131C78.4583 33.7056 78.2353 34.0148 78.7031 34.5785C79.171 35.1422 79.8245 36.1074 79.8245 36.4939C78.9715 36.1464 78.4041 36.1972 78.1223 36.6463C77.6995 37.3199 78.0478 37.5433 78.2066 37.3829C78.3654 37.2225 78.4501 36.9171 78.7924 36.8271C79.1348 36.7372 80.0757 37.3043 79.7666 38.0368C79.4574 38.7692 78.6923 38.2703 78.3716 37.8512C78.0508 37.4321 77.4966 38.0393 78.2066 38.5867C78.9166 39.1342 79.4909 39.1342 80.1234 39.1357C80.6777 39.9347 81.0387 40.8492 81.1786 41.8083C81.3055 42.7343 81.4598 43.9805 81.6414 45.547C80.7715 45.2517 80.1465 45.0174 79.7666 44.8438C77.1163 43.6335 75.5823 42.807 75.1404 42.6684C74.6036 42.5 73.1004 42.2133 70.631 41.8083Z" fill="white"/>
</mask>
<g mask="url(#mask8_327_850)">
<path fill-rule="evenodd" clip-rule="evenodd" d="M67.0729 41.6504C67.5222 42.8192 67.5233 43.7935 67.0762 44.5734C66.629 45.3534 66.3399 45.7614 66.2087 45.7975C66.0537 45.9852 65.9378 46.1173 65.8609 46.1937L65.5386 49.2326L65.9689 49.6166L65.1509 52.7627H73.9436L74.3379 49.2326L75.5132 46.8136C74.3526 46.5353 74.2282 45.0709 75.1402 42.4205C76.0522 39.7701 73.363 39.5134 67.0729 41.6504Z" fill="#80A5DC"/>
<mask id="mask9_327_850" style="mask-type:luminance" maskUnits="userSpaceOnUse" x="65" y="40" width="11" height="13">
<path fill-rule="evenodd" clip-rule="evenodd" d="M67.0729 41.6504C67.5222 42.8192 67.5233 43.7935 67.0762 44.5734C66.629 45.3534 66.3399 45.7614 66.2087 45.7975C66.0537 45.9852 65.9378 46.1173 65.8609 46.1937L65.5386 49.2326L65.9689 49.6166L65.1509 52.7627H73.9436L74.3379 49.2326L75.5132 46.8136C74.3526 46.5353 74.2282 45.0709 75.1402 42.4205C76.0522 39.7701 73.363 39.5134 67.0729 41.6504Z" fill="white"/>
</mask>
<g mask="url(#mask9_327_850)">
<path fill-rule="evenodd" clip-rule="evenodd" d="M65.7932 46.9969C65.6329 47.8332 65.8707 48.5513 66.5068 49.1511C67.1852 49.7909 72.2328 50.0895 73.0649 49.4615C73.8215 48.8905 74.6154 47.3859 74.6203 45.8845L75.4274 46.8996L73.685 52.2974L65.4575 52.5394L65.8529 49.4615L65.5469 47.4764L65.7932 46.9969ZM67.465 41.8084C67.8924 43.5795 67.5024 44.9072 66.295 45.7916L67.073 41.7484L67.465 41.8084Z" fill="#7398CF"/>
</g>
</g>
<path fill-rule="evenodd" clip-rule="evenodd" d="M63.4982 52.8814C63.5984 53.0378 63.7848 53.1501 64.0573 53.218C64.6004 52.6788 64.9462 52.3881 65.0949 52.346C65.2436 52.304 65.4132 52.2581 65.6036 52.2085C65.8623 51.8386 66.0907 51.6202 66.2887 51.5533C66.4866 51.4864 66.8705 51.426 67.4403 51.3722C67.5 51.6079 67.4072 51.7522 67.1619 51.8052C66.794 51.8847 66.483 51.8991 66.3858 52.0288C67.1154 52.2184 67.6163 52.5348 67.8885 52.9782C67.8975 53.1387 67.8154 53.2204 67.6422 53.2233C67.6491 53.4191 67.5279 53.48 67.2787 53.4061C67.0681 53.3437 66.8819 53.2095 66.6615 53.1048C66.4978 53.0385 66.32 53.0133 66.144 53.0317L67.0991 53.6778C66.966 53.8348 66.7868 53.8658 66.5615 53.7706C66.3362 53.6755 66.098 53.5656 65.8467 53.441C65.489 53.493 65.2743 53.519 65.2025 53.519C65.0949 53.519 64.6293 54.6896 64.0573 54.6537C63.4853 54.6177 63.2767 54.6537 62.1949 53.6778C61.4737 53.0272 60.8443 51.9171 60.3066 50.3475L62.1949 49.0478C62.4762 50.3859 62.6864 51.262 62.8256 51.6764C62.9649 52.119 63.1938 52.5289 63.4982 52.8814Z" fill="#FFDDC6"/>
<path fill-rule="evenodd" clip-rule="evenodd" d="M73.0827 40.0113C73.0275 40.8357 73.0501 41.4064 73.1505 41.7235C73.2509 42.0406 73.6028 42.2569 74.2063 42.3724C73.5883 42.9305 72.8062 43.185 71.8602 43.136C70.9141 43.087 70.1172 42.6473 69.4692 41.817C70.1928 41.7872 70.6245 41.5779 70.7644 41.1891C70.9043 40.8002 70.9578 40.3241 70.9248 39.7606L73.0827 40.0113Z" fill="#FFDDC6"/>
<mask id="mask10_327_850" style="mask-type:luminance" maskUnits="userSpaceOnUse" x="69" y="39" width="6" height="5">
<path fill-rule="evenodd" clip-rule="evenodd" d="M73.0827 40.0113C73.0275 40.8357 73.0501 41.4064 73.1505 41.7235C73.2509 42.0406 73.6028 42.2569 74.2063 42.3724C73.5883 42.9305 72.8062 43.185 71.8602 43.136C70.9141 43.087 70.1172 42.6473 69.4692 41.817C70.1928 41.7872 70.6245 41.5779 70.7644 41.1891C70.9043 40.8002 70.9578 40.3241 70.9248 39.7606L73.0827 40.0113Z" fill="white"/>
</mask>
<g mask="url(#mask10_327_850)">
<path fill-rule="evenodd" clip-rule="evenodd" d="M73.1687 40.2989C72.4148 40.9248 71.5084 41.3444 70.5396 41.516C70.7815 40.2489 70.9025 39.6154 70.9025 39.6154L73.2337 39.7595L73.1687 40.2989Z" fill="#FDBF93"/>
</g>
<path fill-rule="evenodd" clip-rule="evenodd" d="M69.7123 37.2315C69.263 34.8986 69.74 33.7686 71.1433 33.8413C71.8107 33.2335 72.72 33.2693 73.8712 33.9487C75.598 34.9677 74.9027 37.438 73.8533 38.6574C73.1537 39.4704 71.7734 38.995 69.7123 37.2315Z" fill="#021229"/>
<path fill-rule="evenodd" clip-rule="evenodd" d="M69.8654 36.5151C69.6701 36.4367 69.5396 36.4509 69.4739 36.5578C69.3824 36.7067 69.5309 36.8929 69.63 37.1484C69.7253 37.3939 69.6956 37.6993 69.8939 37.6576C70.0671 37.6211 70.0576 37.2402 69.8654 36.5151ZM74.4284 36.7618C74.6487 36.6981 74.7858 36.7229 74.8399 36.836C74.9151 36.9935 74.7415 37.1319 74.6159 37.3758C74.4952 37.6101 74.5531 37.9049 74.3092 37.8923C74.1369 37.8833 74.1766 37.5065 74.4284 36.7618Z" fill="#FFDDC6"/>
<path fill-rule="evenodd" clip-rule="evenodd" d="M74.4135 36.5317C74.5148 39.3116 72.9382 40.4642 71.9969 40.4155C71.0555 40.3667 69.6227 39.0769 70.1209 36.4891C70.4511 36.0223 70.6721 35.7276 70.7839 35.605C70.9475 35.4304 71.0561 35.2123 71.0964 34.9776C71.5044 35.3947 72.0509 35.7684 72.7357 36.0988C73.0263 36.239 73.5856 36.3833 74.4135 36.5317Z" fill="#FFDDC6"/>
<path fill-rule="evenodd" clip-rule="evenodd" d="M72.4069 38.29C72.317 38.448 72.2046 38.5236 72.0698 38.5166C71.9351 38.5096 71.8488 38.4238 71.811 38.2591C71.8452 38.2952 71.8864 38.324 71.9322 38.3437C71.978 38.3635 72.0274 38.3737 72.0774 38.3739C72.1933 38.3792 72.3081 38.35 72.4069 38.29Z" fill="#FDBF93"/>
<path d="M71.4183 37.5648C71.5328 37.5648 71.6257 37.473 71.6257 37.3597C71.6257 37.2464 71.5328 37.1546 71.4183 37.1546C71.3038 37.1546 71.2109 37.2464 71.2109 37.3597C71.2109 37.473 71.3038 37.5648 71.4183 37.5648Z" fill="#352A23"/>
<path d="M72.9647 37.6378C73.0792 37.6378 73.1721 37.546 73.1721 37.4327C73.1721 37.3194 73.0792 37.2276 72.9647 37.2276C72.8502 37.2276 72.7573 37.3194 72.7573 37.4327C72.7573 37.546 72.8502 37.6378 72.9647 37.6378Z" fill="#352A23"/>
<path fill-rule="evenodd" clip-rule="evenodd" d="M73.2224 36.6338C73.1299 36.579 72.7498 36.5223 72.6031 36.5147C72.4565 36.5071 72.4604 36.6561 72.5755 36.6411C72.7633 36.6335 72.9512 36.6503 73.1345 36.6911C73.2634 36.726 73.315 36.6885 73.2224 36.6338ZM71.1043 36.524C71.2021 36.4791 71.5861 36.462 71.7328 36.4696C71.8795 36.4772 71.8598 36.625 71.7469 36.5981C71.561 36.5712 71.3723 36.5684 71.1857 36.5901C71.0538 36.6115 71.0065 36.5688 71.1043 36.524Z" fill="#55473D"/>
<path fill-rule="evenodd" clip-rule="evenodd" d="M72.622 39.0803C72.229 39.5078 71.8538 39.4884 71.4966 39.0219L72.622 39.0803Z" fill="#8F6344"/>
<mask id="mask11_327_850" style="mask-type:luminance" maskUnits="userSpaceOnUse" x="71" y="39" width="2" height="1">
<path fill-rule="evenodd" clip-rule="evenodd" d="M72.622 39.0803C72.229 39.5078 71.8538 39.4884 71.4966 39.0219L72.622 39.0803Z" fill="white"/>
</mask>
<g mask="url(#mask11_327_850)">
<path fill-rule="evenodd" clip-rule="evenodd" d="M72.7442 38.811L71.419 38.7423L71.3916 38.9819C71.5893 39.0797 71.8023 39.1438 72.0216 39.1713C72.2581 39.1653 72.4924 39.1246 72.7168 39.0505L72.7442 38.811Z" fill="white"/>
</g>
<path fill-rule="evenodd" clip-rule="evenodd" d="M71.0962 34.9776C71.1334 35.4966 71.8046 36.1608 73.1098 36.9702C73.9613 37.5927 74.2561 38.5141 73.9944 39.7345C75.1338 38.561 75.4275 37.5873 74.8757 36.8135C74.5788 36.3971 73.2297 36.3272 72.5534 35.9952C72.0249 35.7203 71.535 35.3782 71.0962 34.9776Z" fill="#163057"/>
<path d="M71.9706 37.4248C71.9881 37.0948 71.7289 36.8131 71.3917 36.7956C71.0545 36.7781 70.7669 37.0315 70.7494 37.3614C70.7319 37.6914 70.9911 37.9731 71.3284 37.9906C71.6656 38.0081 71.9531 37.7547 71.9706 37.4248Z" stroke="white" stroke-width="0.55"/>
<path d="M73.6064 37.5023C73.6238 37.1723 73.3646 36.8906 73.0274 36.8731C72.6902 36.8556 72.4027 37.109 72.3852 37.439C72.3677 37.769 72.6269 38.0506 72.9641 38.0681C73.3013 38.0856 73.5889 37.8323 73.6064 37.5023Z" stroke="white" stroke-width="0.55"/>
<path d="M72.392 37.3395L71.9759 37.3179M70.7705 37.2171L69.9116 36.5733" stroke="white" stroke-width="0.55"/>
<path fill-rule="evenodd" clip-rule="evenodd" d="M71.0963 34.9776C71.1099 35.645 70.8764 36.2841 70.3958 36.895C69.6749 37.8113 69.6294 38.7925 70.6032 40.0892C69.6906 39.5922 69.2345 38.9078 69.2349 38.036C69.2352 37.3245 69.5397 36.9764 70.3591 36.1091C70.4821 35.9789 70.7278 35.6017 71.0963 34.9776Z" fill="#163057"/>
<path fill-rule="evenodd" clip-rule="evenodd" d="M73.4086 39.7452C74.6979 40.89 75.2034 41.974 74.9251 42.9973C74.5077 44.5323 73.0732 44.2726 73.2959 46.4786C72.1486 46.1549 71.5586 45.6215 71.5257 44.8784C71.4763 43.7637 72.9069 43.2398 72.9875 41.7194L73.0765 40.0396C73.1559 39.9788 73.2142 39.9319 73.2514 39.8989C73.2887 39.8658 73.3411 39.8146 73.4086 39.7452Z" fill="#021229"/>
<path d="M73.1228 40.0585C73.011 41.5719 72.7753 42.5405 72.4158 42.9643C71.8764 43.5999 70.5726 44.9983 72.1635 45.8936" stroke="#021229" stroke-width="0.55"/>
<path d="M81.8016 79.4274C82.7558 79.4274 83.5294 78.6622 83.5294 77.7183C83.5294 76.7744 82.7558 76.0092 81.8016 76.0092C80.8473 76.0092 80.0737 76.7744 80.0737 77.7183C80.0737 78.6622 80.8473 79.4274 81.8016 79.4274Z" fill="url(#paint5_linear_327_850)"/>
<path d="M15.1743 83.2558C15.9115 77.1821 15.9115 72.8068 15.1743 70.1299M14.3449 83.2558C13.9436 79.9957 12.81 76.8656 11.0273 74.095M16.0036 83.2558C16.1971 80.2091 17.2108 78.0214 19.0447 76.6928" stroke="#293D5A" stroke-width="0.385"/>
<path fill-rule="evenodd" clip-rule="evenodd" d="M11.9951 83.9394H18.2155L17.3957 91.0026C17.3768 91.166 17.2977 91.3168 17.1736 91.4262C17.0496 91.5357 16.8891 91.5962 16.7228 91.5962H13.4878C13.3215 91.5962 13.161 91.5357 13.037 91.4262C12.9129 91.3168 12.8338 91.166 12.8149 91.0026L11.9951 83.9394Z" fill="#85A1CC"/>
<path d="M11.9528 82.8456H18.3954C18.5309 82.8456 18.6609 82.8988 18.7567 82.9936C18.8525 83.0884 18.9063 83.2169 18.9063 83.3509V84.1177C18.9063 84.2517 18.8525 84.3803 18.7567 84.475C18.6609 84.5698 18.5309 84.623 18.3954 84.623H11.9528C11.8173 84.623 11.6873 84.5698 11.5915 84.475C11.4957 84.3803 11.4419 84.2517 11.4419 84.1177V83.3509C11.4419 83.2846 11.4551 83.2188 11.4808 83.1575C11.5065 83.0962 11.5441 83.0405 11.5915 82.9936C11.639 82.9467 11.6953 82.9094 11.7573 82.884C11.8193 82.8586 11.8857 82.8456 11.9528 82.8456Z" fill="#456594"/>
<path d="M16.6324 79.9941C16.364 78.2662 16.8084 76.9154 17.9654 75.942C19.701 74.4817 21.4108 74.5023 22.5877 74.8099C23.3723 75.015 23.9701 75.3923 24.3813 75.942C23.2021 76.0699 22.3349 76.3119 21.7796 76.6681C20.9468 77.2024 20.8586 77.9314 19.015 78.443C17.786 78.7841 16.9918 79.3011 16.6324 79.9941Z" fill="#4D84D5"/>
<path d="M15.5762 77.8862C14.567 77.2581 14.1087 76.4162 14.2011 75.3605C14.3397 73.7769 12.6514 72.8581 12.6514 70.3236C12.6514 67.7892 12.9122 66.8926 11.9951 64.2506C13.7987 64.7702 15.0829 65.7488 15.8476 67.1866C16.9946 69.3433 16.447 70.6361 16.8454 73.3623C17.1111 75.1798 16.688 76.6878 15.5762 77.8862Z" fill="#4D84D5"/>
<path d="M13.7622 79.8933C12.762 79.889 12.0644 79.4154 11.6694 78.4727C11.077 77.0585 10.2184 77.0517 9.64674 75.3367C9.26563 74.1934 8.66609 73.4832 7.84814 73.206C8.75177 72.6613 9.68689 72.5819 10.6535 72.9677C12.1035 73.5465 12.2957 74.779 13.4171 76.1654C14.1648 77.0897 14.2798 78.3324 13.7622 79.8933Z" fill="#4D84D5"/>
<path d="M51.7485 54H25.2515C24.5603 54 24 54.4105 24 54.9169V61.0831C24 61.5895 24.5603 62 25.2515 62H51.7485C52.4397 62 53 61.5895 53 61.0831V54.9169C53 54.4105 52.4397 54 51.7485 54Z" fill="url(#paint6_linear_327_850)"/>
<path d="M51.7485 63H25.2515C24.5603 63 24 63.4105 24 63.9169V70.0831C24 70.5895 24.5603 71 25.2515 71H51.7485C52.4397 71 53 70.5895 53 70.0831V63.9169C53 63.4105 52.4397 63 51.7485 63Z" fill="url(#paint7_linear_327_850)"/>
<path d="M51.7485 72H25.2515C24.5603 72 24 72.4105 24 72.9169V79.0831C24 79.5895 24.5603 80 25.2515 80H51.7485C52.4397 80 53 79.5895 53 79.0831V72.9169C53 72.4105 52.4397 72 51.7485 72Z" fill="url(#paint8_linear_327_850)"/>
<path d="M35 58H49.0204" stroke="white" stroke-width="2.75" stroke-linecap="round"/>
<path d="M35 67H49.0204" stroke="white" stroke-width="2.75" stroke-linecap="round"/>
<path d="M35 76H49.0204" stroke="white" stroke-width="2.75" stroke-linecap="round"/>
<path fill-rule="evenodd" clip-rule="evenodd" d="M27.9973 56H28.0027C28.5324 56 29.0404 56.2107 29.415 56.5858C29.7896 56.9609 30 57.4696 30 58C30 58.5304 29.7896 59.0391 29.415 59.4142C29.0404 59.7893 28.5324 60 28.0027 60H27.9973C27.4676 60 26.9596 59.7893 26.585 59.4142C26.2104 59.0391 26 58.5304 26 58C26 57.4696 26.2104 56.9609 26.585 56.5858C26.9596 56.2107 27.4676 56 27.9973 56Z" fill="white"/>
<path fill-rule="evenodd" clip-rule="evenodd" d="M27.9973 65H28.0027C28.5324 65 29.0404 65.2107 29.415 65.5858C29.7896 65.9609 30 66.4696 30 67C30 67.5304 29.7896 68.0391 29.415 68.4142C29.0404 68.7893 28.5324 69 28.0027 69H27.9973C27.4676 69 26.9596 68.7893 26.585 68.4142C26.2104 68.0391 26 67.5304 26 67C26 66.4696 26.2104 65.9609 26.585 65.5858C26.9596 65.2107 27.4676 65 27.9973 65Z" fill="white"/>
<path fill-rule="evenodd" clip-rule="evenodd" d="M27.9973 74H28.0027C28.5324 74 29.0404 74.2107 29.415 74.5858C29.7896 74.9609 30 75.4696 30 76C30 76.5304 29.7896 77.0391 29.415 77.4142C29.0404 77.7893 28.5324 78 28.0027 78H27.9973C27.4676 78 26.9596 77.7893 26.585 77.4142C26.2104 77.0391 26 76.5304 26 76C26 75.4696 26.2104 74.9609 26.585 74.5858C26.9596 74.2107 27.4676 74 27.9973 74Z" fill="white"/>
<path fill-rule="evenodd" clip-rule="evenodd" d="M27.994 57.3533C28.0331 57.2496 28.0995 57.1607 28.1848 57.0978C28.2701 57.035 28.3706 57.001 28.4736 57C28.7626 57 28.9706 57.2687 28.9968 57.5889C29.0043 57.6636 28.9986 57.7391 28.9798 57.8114C28.9364 58.0047 28.8402 58.1791 28.7039 58.3116L27.994 59L27.2961 58.3115C27.1598 58.179 27.0636 58.0046 27.0202 57.8114C27.0014 57.7391 26.9957 57.6635 27.0032 57.5888C27.0294 57.2687 27.2374 57 27.5264 57C27.6279 57.0012 27.7267 57.0355 27.8101 57.0984C27.8934 57.1614 27.9575 57.2502 27.994 57.3533Z" fill="url(#paint9_linear_327_850)"/>
<path fill-rule="evenodd" clip-rule="evenodd" d="M27.994 66.3533C28.0331 66.2496 28.0995 66.1607 28.1848 66.0978C28.2701 66.035 28.3706 66.001 28.4736 66C28.7626 66 28.9706 66.2687 28.9968 66.5889C29.0043 66.6636 28.9986 66.7391 28.9798 66.8114C28.9364 67.0047 28.8402 67.1791 28.7039 67.3116L27.994 68L27.2961 67.3115C27.1598 67.179 27.0636 67.0046 27.0202 66.8114C27.0014 66.7391 26.9957 66.6635 27.0032 66.5888C27.0294 66.2687 27.2374 66 27.5264 66C27.6279 66.0012 27.7267 66.0355 27.8101 66.0984C27.8934 66.1614 27.9575 66.2502 27.994 66.3533Z" fill="url(#paint10_linear_327_850)"/>
<path fill-rule="evenodd" clip-rule="evenodd" d="M27.994 75.3533C28.0331 75.2496 28.0995 75.1607 28.1848 75.0978C28.2701 75.035 28.3706 75.001 28.4736 75C28.7626 75 28.9706 75.2687 28.9968 75.5889C29.0043 75.6636 28.9986 75.7391 28.9798 75.8114C28.9364 76.0047 28.8402 76.1791 28.7039 76.3116L27.994 77L27.2961 76.3115C27.1598 76.179 27.0636 76.0046 27.0202 75.8114C27.0014 75.7391 26.9957 75.6635 27.0032 75.5888C27.0294 75.2687 27.2374 75 27.5264 75C27.6279 75.0012 27.7267 75.0355 27.8101 75.0984C27.8934 75.1614 27.9575 75.2502 27.994 75.3533Z" fill="url(#paint11_linear_327_850)"/>
</g>
<defs>
<linearGradient id="paint0_linear_327_850" x1="65.353" y1="26.2411" x2="65.353" y2="29.3848" gradientUnits="userSpaceOnUse">
<stop stop-color="#FFB47F"/>
<stop offset="1" stop-color="#F2751E"/>
</linearGradient>
<linearGradient id="paint1_linear_327_850" x1="9.78276" y1="29.7932" x2="9.78276" y2="36.4951" gradientUnits="userSpaceOnUse">
<stop stop-color="#FDC7A1"/>
<stop offset="1" stop-color="#FAA468"/>
</linearGradient>
<linearGradient id="paint2_linear_327_850" x1="39.8232" y1="26.2572" x2="39.8232" y2="91.5911" gradientUnits="userSpaceOnUse">
<stop stop-color="#C2DAFF"/>
<stop offset="1" stop-color="#95BFFF"/>
</linearGradient>
<linearGradient id="paint3_linear_327_850" x1="38.8666" y1="29.3716" x2="38.8666" y2="89.8833" gradientUnits="userSpaceOnUse">
<stop stop-color="#FCFDFF"/>
<stop offset="1" stop-color="#EBF3FF"/>
</linearGradient>
<linearGradient id="paint4_linear_327_850" x1="39.1933" y1="33.0754" x2="39.1933" y2="51.8133" gradientUnits="userSpaceOnUse">
<stop stop-color="#598FDF"/>
<stop offset="1" stop-color="#2D66BC"/>
</linearGradient>
<linearGradient id="paint5_linear_327_850" x1="81.8017" y1="76.0091" x2="81.8017" y2="79.4285" gradientUnits="userSpaceOnUse">
<stop stop-color="#A1C7FF"/>
<stop offset="1" stop-color="#2C79EC"/>
</linearGradient>
<linearGradient id="paint6_linear_327_850" x1="38.4967" y1="53.9993" x2="38.4967" y2="62.002" gradientUnits="userSpaceOnUse">
<stop stop-color="#D3E2F9"/>
<stop offset="1" stop-color="#B4C9E8"/>
</linearGradient>
<linearGradient id="paint7_linear_327_850" x1="38.4967" y1="62.9993" x2="38.4967" y2="71.002" gradientUnits="userSpaceOnUse">
<stop stop-color="#D3E2F9"/>
<stop offset="1" stop-color="#B4C9E8"/>
</linearGradient>
<linearGradient id="paint8_linear_327_850" x1="38.4967" y1="71.9993" x2="38.4967" y2="80.002" gradientUnits="userSpaceOnUse">
<stop stop-color="#D3E2F9"/>
<stop offset="1" stop-color="#B4C9E8"/>
</linearGradient>
<linearGradient id="paint9_linear_327_850" x1="27.9997" y1="57.0006" x2="27.9997" y2="59" gradientUnits="userSpaceOnUse">
<stop stop-color="#FDC7A1"/>
<stop offset="1" stop-color="#FAA468"/>
</linearGradient>
<linearGradient id="paint10_linear_327_850" x1="27.9997" y1="66.0006" x2="27.9997" y2="68" gradientUnits="userSpaceOnUse">
<stop stop-color="#FDC7A1"/>
<stop offset="1" stop-color="#FAA468"/>
</linearGradient>
<linearGradient id="paint11_linear_327_850" x1="27.9997" y1="75.0006" x2="27.9997" y2="77" gradientUnits="userSpaceOnUse">
<stop stop-color="#FDC7A1"/>
<stop offset="1" stop-color="#FAA468"/>
</linearGradient>
<clipPath id="clip0_327_850">
<rect width="92" height="91" fill="white"/>
</clipPath>
</defs>
</svg>
