<svg width="101" height="97" viewBox="0 0 101 97" fill="none" xmlns="http://www.w3.org/2000/svg">
<path d="M95.4883 55.6428C94.2643 53.8553 92.5914 49.8865 90.775 47.9194C89.136 46.0487 88.7685 43.579 89.84 41.4325C89.851 41.4105 89.8619 41.3888 89.8729 41.3675C92.0775 37.0723 96.1924 18.4737 75.4525 17.8057C72.9127 17.7239 70.3721 17.9361 67.8738 18.4143C53.0862 21.6222 47.8669 21.6089 33.1262 18.4143C30.6279 17.9361 28.0874 17.7239 25.5475 17.8057C4.80759 18.4737 8.92246 37.0723 11.1271 41.3675C11.1381 41.3888 11.149 41.4105 11.16 41.4325C12.2315 43.579 11.864 46.0487 10.225 47.9194C8.41312 49.8791 6.73083 53.8634 5.51173 55.6428C2.9911 59.9381 -1.71351 78.5366 21.9988 79.2047C24.9027 79.2865 27.8073 79.0742 30.6637 78.5961C34.6519 77.9285 41.8949 76.2783 50.5 76.1839C59.1052 76.2783 66.3481 77.9285 70.3364 78.5961C73.1927 79.0742 76.0974 79.2865 79.0013 79.2047C102.713 78.5366 98.0089 59.9381 95.4883 55.6428Z" fill="#E8EFF9"/>
<path d="M50.5 85.6885C76.531 85.6885 97.6333 82.8335 97.6333 79.3117C97.6333 75.7898 76.531 72.9348 50.5 72.9348C24.469 72.9348 3.36667 75.7898 3.36667 79.3117C3.36667 82.8335 24.469 85.6885 50.5 85.6885Z" fill="#E8EFF9"/>
<path d="M21.292 21.3483C19.6815 17.6422 13.5106 22.1541 21.1673 26.9382C29.4085 22.3135 22.6309 17.6563 21.292 21.3483ZM30.078 26.4089C29.2182 24.4303 25.9239 26.839 30.0114 29.393C34.4111 26.9241 30.7928 24.4379 30.078 26.4089Z" fill="#FD9F5E"/>
<path d="M74.7687 72.5882C74.7687 72.5882 84.5269 77.3319 87.4183 66.6874C87.4183 66.6874 90.3698 54.4231 93.5021 51.1834C96.5505 48.0306 96.1757 41.8641 86.2145 45.5888C85.586 45.8238 84.9763 46.1034 84.388 46.4203C82.0562 47.6761 76.1867 51.2389 73.5639 56.5057" fill="#C3D7F4"/>
<path d="M90.3224 48.252C90.2001 48.1174 89.9875 48.1035 89.8474 48.2208C89.7763 48.2804 88.0763 49.721 85.4029 53.3992C85.0185 53.9282 84.6334 54.4768 84.2484 55.0439C83.3826 53.3541 84.0183 51.2248 84.0265 51.1983C84.0793 51.0272 83.9778 50.8473 83.7997 50.7964C83.6213 50.7454 83.434 50.843 83.381 51.0142C83.3464 51.1257 82.5748 53.6898 83.8342 55.6613C82.9872 56.9385 82.1415 58.3038 81.3041 59.7466C81.304 59.7467 81.3039 59.7469 81.3039 59.747C81.1107 60.0797 80.918 60.4166 80.7259 60.7574C78.8031 64.1681 76.9272 67.9902 75.1503 72.1175C75.0793 72.2826 75.1609 72.4716 75.3328 72.5399C75.3749 72.5566 75.4184 72.5645 75.4613 72.5645C75.5935 72.5645 75.7189 72.4893 75.7725 72.3647C76.3238 71.0842 76.8701 69.8676 77.4088 68.7123C77.4121 68.7123 77.415 68.7123 77.4183 68.7123C77.7296 68.7123 78.3234 68.6792 79.0238 68.4748C79.959 68.202 81.273 67.5591 82.2216 66.0464C82.3176 65.8934 82.2662 65.6947 82.1069 65.6026C81.9477 65.5103 81.7407 65.5598 81.6448 65.7127C80.977 66.7777 80.038 67.4963 78.8541 67.8484C78.4076 67.9812 78.0076 68.0344 77.718 68.0544C79.1454 65.0386 80.5146 62.4573 81.7734 60.2742C82.0984 60.3483 82.857 60.4055 83.3479 60.3531C84.3218 60.273 85.7462 59.9066 87.0016 58.6162C87.1286 58.4858 87.1213 58.2812 86.9855 58.1592C86.8497 58.0373 86.6366 58.0443 86.5096 58.1747C85.6258 59.0831 84.5518 59.5985 83.3176 59.7065C82.83 59.7492 82.4114 59.7166 82.1218 59.6756C83.5794 57.1918 84.8773 55.2543 85.9303 53.8033C88.5628 50.1759 90.2732 48.7223 90.2902 48.708C90.4301 48.5906 90.4445 48.3865 90.3224 48.252Z" fill="white"/>
<path d="M77.3376 11.3115H43.4335C42.3179 11.3115 41.4135 12.1801 41.4135 13.2515V74.5321C41.4135 75.6036 42.3179 76.4721 43.4335 76.4721H77.3376C78.4532 76.4721 79.3576 75.6036 79.3576 74.5321V13.2515C79.3576 12.1801 78.4532 11.3115 77.3376 11.3115Z" fill="#73A1E5"/>
<path d="M75.2713 70.3859V20.8827H45.4998V70.3859H75.2713Z" fill="white"/>
<path d="M57.5234 66.6077C57.3472 66.6077 57.2038 66.4699 57.2038 66.3007C57.2038 66.1314 57.3472 65.9937 57.5234 65.9937C57.6997 65.9937 57.8432 66.1314 57.8432 66.3007C57.8432 66.4699 57.6997 66.6077 57.5234 66.6077ZM64.7693 66.6077C64.5931 66.6077 64.4496 66.4699 64.4496 66.3007C64.4496 66.1314 64.5931 65.9937 64.7693 65.9937C64.9456 65.9937 65.089 66.1314 65.089 66.3007C65.089 66.4699 64.9456 66.6077 64.7693 66.6077Z" fill="#FD9F5E"/>
<path d="M67.6183 54.9285C66.4871 54.9285 65.5701 55.8092 65.5701 56.8956C65.5701 56.985 65.5769 57.0728 65.5889 57.159L55.4939 56.6634L54.9978 55.4486C54.8135 54.9974 54.3683 54.7053 53.8636 54.7044L53.7607 54.7042C53.657 54.4752 53.4196 54.3149 53.1431 54.3149H51.7964C51.4246 54.3149 51.1231 54.6045 51.1231 54.9616C51.1231 55.3188 51.4246 55.6083 51.7964 55.6083H53.1431C53.4315 55.6083 53.6768 55.4339 53.7727 55.1892L53.8627 55.1893C54.1586 55.1898 54.4196 55.3611 54.5276 55.6257L57.4526 62.7875L56.4526 63.5857C55.7777 64.1026 55.9095 65.1614 56.669 65.526C56.47 65.7284 56.3475 66.0009 56.3475 66.3006C56.3475 66.9234 56.875 67.43 57.5234 67.43C58.1719 67.43 58.6995 66.9234 58.6995 66.3006C58.6995 66.0611 58.6212 65.8391 58.4883 65.6562H63.8045C63.6716 65.8391 63.5933 66.0611 63.5933 66.3006C63.5933 66.9234 64.1209 67.43 64.7694 67.43C65.4178 67.43 65.9454 66.9234 65.9454 66.3006C65.9454 66.0611 65.8671 65.8391 65.7342 65.6562H65.8882C66.0277 65.6562 66.1407 65.5476 66.1407 65.4137C66.1407 65.2797 66.0277 65.1712 65.8882 65.1712H57.2316C56.5591 65.1662 56.2613 64.3757 56.7755 63.9587L57.8555 63.0967L66.302 62.3531C66.4174 62.343 66.5108 62.2586 66.5285 62.1486L67.0684 58.7904C67.2435 58.8371 67.4277 58.8627 67.6183 58.8627C68.7495 58.8627 69.6665 57.982 69.6665 56.8956C69.6665 55.8092 68.7495 54.9285 67.6183 54.9285ZM58.1945 66.3006C58.1945 66.656 57.8935 66.9451 57.5234 66.9451C57.1535 66.9451 56.8525 66.656 56.8525 66.3006C56.8525 65.9453 57.1534 65.6562 57.5234 65.6562C57.8934 65.6562 58.1945 65.9453 58.1945 66.3006ZM65.4403 66.3006C65.4403 66.656 65.1393 66.9451 64.7693 66.9451C64.3993 66.9451 64.0983 66.656 64.0983 66.3006C64.0983 65.9453 64.3993 65.6562 64.7693 65.6562C65.1393 65.6562 65.4403 65.9453 65.4403 66.3006ZM62.1249 57.4746L62.2506 58.8215L60.6763 58.7747L60.4004 57.39L62.1249 57.4746ZM60.5337 60.6395L59.071 60.7019L58.6192 59.1989L60.2564 59.2475L60.5337 60.6395ZM59.8812 57.3644L60.1591 58.7594L58.4719 58.7093L58.0405 57.2741L59.8812 57.3644ZM55.6963 57.159L57.507 57.2479L57.9416 58.6936L56.3032 58.6449L55.6963 57.159ZM56.5038 59.1361L58.0888 59.1831L58.552 60.724L57.1764 60.7827L56.5038 59.1361ZM57.9202 62.604L57.3712 61.2599L58.6961 61.2033L59.0863 62.5014L57.9202 62.604ZM59.5984 62.4563L59.2151 61.1812L60.6296 61.1209L60.8733 62.3441L59.5984 62.4563ZM60.7736 59.2628L62.296 59.308L62.4129 60.5593L61.0436 60.6177L60.7736 59.2628ZM61.3786 62.2996L61.1395 61.0992L62.458 61.0429L62.5656 62.1951L61.3786 62.2996ZM64.2988 62.0425L63.0684 62.1508L62.963 61.0214L64.3525 60.9621L64.2988 62.0425ZM64.3767 60.4756L62.9179 60.5378L62.8045 59.3231L64.4315 59.3714L64.3767 60.4756ZM64.4556 58.8869L62.759 58.8365L62.6342 57.4996L64.5199 57.5922L64.4556 58.8869ZM66.0594 61.8875L64.8066 61.9978L64.8591 60.9405L66.221 60.8824L66.0594 61.8875ZM66.2996 60.3936L64.8833 60.454L64.9363 59.3864L66.4543 59.4315L66.2996 60.3936ZM66.532 58.9486L64.9604 58.9019L65.0242 57.617L65.727 57.6515C65.8996 58.0493 66.2044 58.3808 66.5887 58.5959L66.532 58.9486Z" fill="#FD9F5E"/>
<path d="M68.1592 56.9793C68.098 56.9172 68.0116 56.8729 67.9015 56.8469C67.9864 56.8169 68.0559 56.7727 68.1091 56.7149C68.2752 56.5417 68.2536 56.1878 68.0535 56.0447C67.7722 55.8261 67.2299 55.8995 66.9562 56.1306L67.101 56.3161C67.321 56.1717 67.6258 56.0749 67.8474 56.2224C67.9825 56.3251 67.9516 56.5678 67.8135 56.6562C67.7312 56.7158 67.617 56.7461 67.4738 56.7461H67.2514V56.9844H67.4712C67.8224 56.9844 67.9931 57.0853 67.9931 57.293C67.9931 57.5271 67.8392 57.6409 67.5226 57.6409C67.337 57.6414 67.1236 57.588 66.9572 57.5018V57.7659C67.2736 57.9209 67.8152 57.9236 68.0767 57.7281C68.2113 57.6278 68.2795 57.4831 68.2795 57.298C68.2795 57.1677 68.239 57.0605 68.1592 56.9793Z" fill="white"/>
<path d="M71.1965 34.9309H21.7717V51.3528H71.1965V34.9309Z" fill="#C2D5F2"/>
<path d="M66.8707 38.7914H56.4033C56.2173 38.7914 56.0666 38.9362 56.0666 39.1147V47.1546C56.0666 47.3332 56.2173 47.4779 56.4033 47.4779H66.8707C67.0566 47.4779 67.2073 47.3332 67.2073 47.1546V39.1147C67.2073 38.9362 67.0566 38.7914 66.8707 38.7914Z" fill="white"/>
<path d="M64.5818 40.686H58.6921L57.9992 46.5817H60.5283L61.6369 43.1184L62.7456 46.5817H65.2747L64.5818 40.686Z" fill="#FD9F5E"/>
<path d="M64.5821 39.6877H58.6917V40.686H64.5821V39.6877Z" fill="#A4C7FC"/>
<path d="M51.7409 38.7943H41.2735C41.0876 38.7943 40.9369 38.9391 40.9369 39.1176V47.1575C40.9369 47.3361 41.0876 47.4808 41.2735 47.4808H51.7409C51.9269 47.4808 52.0776 47.3361 52.0776 47.1575V39.1176C52.0776 38.9391 51.9269 38.7943 51.7409 38.7943Z" fill="white"/>
<path d="M44.6414 45.9297H48.5123V42.4749L49.3569 42.8918L50.0959 41.7764L48.4185 40.3455H47.4031C47.1436 41.2083 45.8708 41.2083 45.6113 40.3455H44.5959L42.9185 41.7764L43.6575 42.8918L44.502 42.4749V45.9297H48.373" fill="#73A1E5"/>
<path d="M36.5967 38.7843H26.1293C25.9434 38.7843 25.7926 38.929 25.7926 39.1076V47.1475C25.7926 47.326 25.9434 47.4708 26.1293 47.4708H36.5967C36.7826 47.4708 36.9334 47.326 36.9334 47.1475V39.1076C36.9334 38.9291 36.7826 38.7843 36.5967 38.7843Z" fill="white"/>
<path d="M33.6407 40.2262H29.0499V41.2134H33.6407V40.2262Z" fill="#A4C7FC"/>
<path d="M33.6967 41.2929L33.6407 41.2134H29.0499L27.7743 45.0929C28.2232 45.6334 29.6594 46.0289 31.363 46.0289C33.0666 46.0289 34.5028 45.6334 34.9517 45.0928L33.6967 41.2929Z" fill="#FD9F5E"/>
<path d="M65.3713 15.0715C65.8047 15.0715 66.156 14.734 66.156 14.3178C66.156 13.9015 65.8047 13.5641 65.3713 13.5641C64.9379 13.5641 64.5865 13.9015 64.5865 14.3178C64.5865 14.734 64.9379 15.0715 65.3713 15.0715Z" fill="white"/>
<path d="M62.2767 14.6396H55.0766C54.8907 14.6396 54.74 14.4948 54.74 14.3162C54.74 14.1376 54.8907 13.9929 55.0766 13.9929H62.2767C62.4626 13.9929 62.6133 14.1376 62.6133 14.3162C62.6133 14.4948 62.4626 14.6396 62.2767 14.6396Z" fill="white"/>
<path d="M60.3855 74.9648C61.2778 74.9648 62.0012 74.2701 62.0012 73.4131C62.0012 72.5561 61.2778 71.8614 60.3855 71.8614C59.4932 71.8614 58.7698 72.5561 58.7698 73.4131C58.7698 74.2701 59.4932 74.9648 60.3855 74.9648Z" fill="white"/>
<path d="M52.9869 17.3272H47.2014L42.2337 23.9941V26.5364C42.2337 28.4864 43.8526 30.0673 45.8496 30.0673C47.8466 30.0673 49.4655 28.4864 49.4655 26.5364V23.9941L52.9869 17.3272Z" fill="white"/>
<path d="M42.2474 23.9645L42.2337 23.9941V26.5364C42.2337 28.4864 43.8526 30.0672 45.8496 30.0672C47.8466 30.0672 49.4655 28.4864 49.4655 26.5364V23.9941L49.4752 23.9645H42.2474Z" fill="#DFE8F5"/>
<path d="M47.2011 17.3272H41.4157L35.0015 23.9941V26.5364C35.0015 28.4864 36.6204 30.0673 38.6174 30.0673C40.6144 30.0673 42.2333 28.4864 42.2333 26.5364V23.9941L47.2011 17.3272Z" fill="#FD9F5E"/>
<path d="M35.0151 23.9645L35.0013 23.9941V26.5364C35.0013 28.4864 36.6202 30.0672 38.6172 30.0672C40.6142 30.0672 42.2331 28.4864 42.2331 26.5364V23.9941L42.2429 23.9645H35.0151Z" fill="#FF6900"/>
<path d="M58.7723 17.3272H52.9868L49.4655 23.9941V26.5364C49.4655 28.4864 51.0844 30.0673 53.0814 30.0673C55.0784 30.0673 56.6973 28.4864 56.6973 26.5364V23.9941L58.7723 17.3272Z" fill="#FD9F5E"/>
<path d="M49.4752 23.9645L49.4655 23.9941V26.5364C49.4655 28.4864 51.0844 30.0672 53.0814 30.0672C55.0784 30.0672 56.6973 28.4864 56.6973 26.5364V23.9941L56.703 23.9645H49.4752Z" fill="#FF6900"/>
<path d="M61.9987 17.3272H58.7723L56.6973 23.9941V26.5364C56.6973 28.4864 58.3162 30.0673 60.3132 30.0673H60.4578C62.4548 30.0673 64.0737 28.4864 64.0737 26.5364V23.9941L61.9987 17.3272Z" fill="white"/>
<path d="M56.7031 23.9645L56.6973 23.9941V26.5364C56.6973 28.4864 58.3162 30.0672 60.3132 30.0672H60.4578C62.4548 30.0672 64.0737 28.4864 64.0737 26.5364V23.9941L64.068 23.9645H56.7031Z" fill="#DFE8F5"/>
<path d="M73.5696 17.3272H67.7842L71.3055 23.9941V26.5364C71.3055 28.4864 72.9244 30.0673 74.9214 30.0673C76.9184 30.0673 78.5373 28.4864 78.5373 26.5364V23.9941L73.5696 17.3272Z" fill="white"/>
<path d="M78.5236 23.9645H71.2958L71.3055 23.9941V26.5364C71.3055 28.4864 72.9244 30.0672 74.9214 30.0672C76.9184 30.0672 78.5373 28.4864 78.5373 26.5364V23.9941L78.5236 23.9645Z" fill="#DFE8F5"/>
<path d="M67.7842 17.3272H61.9987L64.0737 23.9941V26.5364C64.0737 28.4864 65.6926 30.0673 67.6896 30.0673C69.6866 30.0673 71.3055 28.4864 71.3055 26.5364V23.9941L67.7842 17.3272Z" fill="#FD9F5E"/>
<path d="M64.068 23.9645L64.0737 23.9941V26.5364C64.0737 28.4864 65.6926 30.0672 67.6896 30.0672C69.6866 30.0672 71.3055 28.4864 71.3055 26.5364V23.9941L71.2958 23.9645H64.068Z" fill="#FF6900"/>
<path d="M79.3555 17.3272H73.5701L78.5379 23.9941V26.5364C78.5379 28.4864 80.1568 30.0673 82.1538 30.0673C84.1508 30.0673 85.7697 28.4864 85.7697 26.5364V23.9941L79.3555 17.3272Z" fill="#FD9F5E"/>
<path d="M85.756 23.9645H78.5282L78.5379 23.9941V26.5364C78.5379 28.4864 80.1568 30.0672 82.1538 30.0672C84.1508 30.0672 85.7697 28.4864 85.7697 26.5364V23.9941L85.756 23.9645Z" fill="#FF6900"/>
<path d="M19.8572 75.4896H16.6037V80.3847H19.8572V75.4896Z" fill="#FFD2B3"/>
<path d="M19.8343 79.4043C18.7663 79.8679 17.5178 79.7162 16.6037 79.012V81.8684C16.6037 82.2855 16.9559 82.6236 17.3903 82.6236H23.8422C24.2334 82.6236 24.5651 82.3476 24.6208 81.9759C24.6713 81.6388 24.4805 81.3108 24.1549 81.1755L19.8952 79.4038C19.8757 79.3958 19.8536 79.3959 19.8343 79.4043Z" fill="#73A1E5"/>
<path d="M20.3878 80.1722C20.3194 80.1608 20.2541 80.2047 20.2421 80.2705C20.2322 80.3249 20.2616 80.3771 20.3109 80.4002C20.3213 80.4051 20.3325 80.4086 20.3445 80.4107C20.5978 80.4535 21.1165 80.4199 21.3895 80.0253L21.1524 79.9267C20.8937 80.249 20.4102 80.1758 20.3878 80.1722ZM21.5787 80.7366C21.5092 80.735 21.4514 80.7875 21.4494 80.8543C21.448 80.9034 21.4771 80.9464 21.5203 80.9666C21.5359 80.9739 21.5534 80.9783 21.5719 80.9788C21.5989 80.9794 22.2013 80.9887 22.4858 80.4813L22.2535 80.3847C22.0379 80.7401 21.6004 80.7371 21.5787 80.7366Z" fill="white"/>
<path d="M8.66722 74.496L7.78064 79.3264L10.9911 79.8699L11.8777 75.0395L8.66722 74.496Z" fill="#FFD2B3"/>
<path d="M11.1471 78.8986C10.0094 79.1777 8.80477 78.8195 8.0304 77.9719L7.51278 80.7905C7.43719 81.2021 7.7234 81.5945 8.15207 81.6671L14.5187 82.7449C14.9046 82.8103 15.282 82.5934 15.4043 82.2359C15.5152 81.9116 15.3863 81.5562 15.0896 81.3682L11.2073 78.9084C11.1896 78.8971 11.1677 78.8936 11.1471 78.8986Z" fill="#73A1E5"/>
<path d="M11.5542 79.7489C11.4887 79.7262 11.4164 79.7587 11.3926 79.8215C11.3729 79.8736 11.3926 79.93 11.437 79.961C11.4464 79.9675 11.4568 79.9729 11.4682 79.9769C11.7104 80.0615 12.2283 80.115 12.5692 79.7713L12.3531 79.6343C12.0395 79.9091 11.5757 79.7562 11.5542 79.7489ZM12.627 80.5048C12.5587 80.4915 12.4922 80.5337 12.4781 80.5993C12.4678 80.6475 12.4888 80.6947 12.5277 80.7219C12.5418 80.7317 12.5583 80.7389 12.5764 80.7425C12.6029 80.7477 13.1957 80.8574 13.5684 80.4043L13.3566 80.2701C13.0795 80.5848 12.6483 80.5089 12.627 80.5048Z" fill="white"/>
<path d="M21.6004 67.6365L19.8192 54.538H16.0784L16.1758 55.704C16.1758 55.704 14.682 63.1277 15.3257 63.9052C16.1132 64.8563 16.2222 66.803 16.1524 68.4138C16.1007 69.6038 15.8526 70.7739 15.4831 71.9108C14.8081 73.9873 15.1232 76.8094 15.1232 76.8094H22.1671C22.3695 74.2376 21.6004 67.6365 21.6004 67.6365Z" fill="#FF6900"/>
<path d="M11.7835 54.538L10.3088 62.6472C9.83218 65.3032 9.0063 67.8894 8.00465 70.4038C7.4235 71.8643 6.7435 74.285 7.24951 76.8094H13.4028L15.5484 65.6737C15.5484 65.6737 17.5981 57.8895 16.6452 54.538H11.7835Z" fill="#FD9F5E"/>
<path d="M12.6056 34.7174V40.937H16.8069C16.8069 40.937 15.7289 37.5162 15.9722 35.8058" fill="#FFD2B3"/>
<path d="M16.5931 40.2119C14.1922 41.4003 12.6567 39.8035 12.6567 39.8035C11.4235 40.5225 11.0681 42.0636 11.1541 43.2763C11.2488 44.6118 11.9776 49.2416 11.8704 50.7652C11.7262 52.8141 11.5858 52.6912 11.5805 54.6337C11.58 54.8125 11.731 54.9576 11.9172 54.9576H19.6423C19.8283 54.9576 19.979 54.8128 19.979 54.6342V47.4607C20.2099 43.5747 16.5931 40.2119 16.5931 40.2119Z" fill="#73A1E5"/>
<path d="M17.8433 44.0108C18.0665 44.0108 18.2473 43.8371 18.2473 43.6228C18.2473 43.4086 18.0665 43.2348 17.8433 43.2348C17.6202 43.2348 17.4393 43.4086 17.4393 43.6228C17.4393 43.8371 17.6202 44.0108 17.8433 44.0108Z" fill="white"/>
<path d="M18.6513 52.2235C18.8745 52.2235 19.0553 52.0498 19.0553 51.8355C19.0553 51.6212 18.8745 51.4475 18.6513 51.4475C18.4282 51.4475 18.2473 51.6212 18.2473 51.8355C18.2473 52.0498 18.4282 52.2235 18.6513 52.2235Z" fill="white"/>
<path d="M14.645 49.7985C14.8681 49.7985 15.049 49.6248 15.049 49.4105C15.049 49.1962 14.8681 49.0225 14.645 49.0225C14.4219 49.0225 14.241 49.1962 14.241 49.4105C14.241 49.6248 14.4219 49.7985 14.645 49.7985Z" fill="white"/>
<path d="M13.2983 53.4199C13.5215 53.4199 13.7023 53.2461 13.7023 53.0319C13.7023 52.8176 13.5215 52.6439 13.2983 52.6439C13.0752 52.6439 12.8943 52.8176 12.8943 53.0319C12.8943 53.2461 13.0752 53.4199 13.2983 53.4199Z" fill="white"/>
<path d="M15.9193 43.3164C16.6349 44.5409 17.0488 45.7845 17.0488 45.7845L24.3242 42.0007C24.2944 41.7317 24.408 41.4544 24.6499 41.2788L24.9229 41.0806C24.9229 41.0806 24.9573 40.6564 24.9849 40.3168C25.0041 40.0797 25.2056 39.8941 25.4534 39.8849H25.4537C25.7403 39.8742 25.9746 40.1015 25.9601 40.3762L25.942 40.7201C25.9423 40.7202 25.9423 40.7202 25.9426 40.7204C26.3043 40.4755 27.0737 39.9307 27.3905 39.7161C27.6171 39.5627 27.9312 39.6232 28.0794 39.8504C28.2152 40.0586 28.1565 40.3326 27.946 40.4731L26.8941 41.2019L27.3061 41.7077C27.5888 42.0547 27.5243 42.5562 27.162 42.8277L26.3754 43.4172C26.0867 43.6336 25.6961 43.6384 25.4063 43.4558C21.7382 46.6189 19.3057 47.9383 18.0526 48.5609C17.1352 49.0167 15.9182 48.8415 15.2358 48.099C14.5552 47.3585 13.7403 46.0111 13.0762 44.8238C12.6588 44.0775 12.9396 43.1476 13.7071 42.73C14.4866 42.306 15.4808 42.5661 15.9193 43.3164Z" fill="#FFD2B3"/>
<path d="M17.0488 45.7845C17.0488 45.7845 16.6349 44.5409 15.9193 43.3164C15.4808 42.5661 14.4866 42.306 13.7071 42.7301C12.9396 43.1477 12.6588 44.0775 13.0763 44.8239C13.7404 46.0112 14.5552 47.3587 15.2358 48.0991C15.9182 48.8416 17.1353 49.0168 18.0527 48.561C18.9819 48.0993 20.5601 47.2541 22.8095 45.5582C22.1918 44.8432 21.9639 43.9469 21.8856 43.269L17.0488 45.7845Z" fill="#2C79EC"/>
<path d="M17.9607 31.1615C19.3256 33.754 18.7621 36.352 18.2704 37.7337C18.0251 38.423 17.3554 38.8947 16.5955 38.8984C13.8966 38.9114 12.782 36.6919 12.501 36.0027C12.4532 35.8854 12.42 35.7636 12.4005 35.6391L11.8978 32.4268C11.745 31.4505 12.4834 30.5531 13.5096 30.4678L16.2198 30.2425C16.9407 30.1827 17.6348 30.5424 17.9607 31.1615Z" fill="#FFDEC7"/>
<path d="M15.5033 29.2424C17.8334 29.4562 19.5313 28.8245 19.5313 28.8245C19.5313 28.8245 20.2739 29.9277 19.8326 31.228C19.5792 31.9745 18.7892 32.4354 17.9826 32.2988C17.9633 32.2955 17.9438 32.2925 17.924 32.2898C17.3117 32.2041 16.703 32.4763 16.3537 32.9658C16.035 33.4125 15.6233 34.0894 15.5574 34.6812L15.4632 34.5235C15.1704 34.0328 14.4474 33.9936 14.0987 34.4495C13.9251 34.6763 13.8923 34.9751 14.0127 35.2316L14.4208 36.101C13.9333 36.7632 12.5897 37.3782 12.5897 37.3782C11.8747 36.7349 11.4835 35.981 11.277 35.2725C10.8067 33.6589 11.2187 31.9263 12.3165 30.6224C13.0021 29.808 14.03 29.1072 15.5033 29.2424Z" fill="#333333"/>
<path d="M28.0924 67.1058H44.0782L45.3632 83.2982H26.8075L28.0924 67.1058Z" fill="#FD9F5E"/>
<path d="M36.0853 75.2793C34.8737 75.2793 33.7041 74.8585 32.792 74.0944C31.8797 73.3301 31.2885 72.2754 31.1273 71.1248L30.8992 69.4974C30.8744 69.3204 31.0037 69.1577 31.188 69.1339C31.3724 69.11 31.5418 69.2342 31.5666 69.4112L31.7946 71.0385C32.0817 73.0875 33.9263 74.6327 36.0853 74.6327C38.2444 74.6327 40.089 73.0875 40.3761 71.0385L40.6041 69.4112C40.6289 69.2342 40.7985 69.1098 40.9827 69.1339C41.167 69.1577 41.2962 69.3205 41.2715 69.4974L41.0434 71.1248C40.8822 72.2754 40.2909 73.3301 39.3787 74.0944C38.4666 74.8585 37.297 75.2793 36.0853 75.2793Z" fill="white"/>
<path d="M41.6944 71.7933H53.0601L53.9736 83.2982H40.7808L41.6944 71.7933Z" fill="#FFB683"/>
<path d="M47.3772 77.6943C46.4923 77.6943 45.638 77.3871 44.9719 76.8293C44.3054 76.2713 43.8735 75.5014 43.7557 74.6613L43.5936 73.505C43.5687 73.328 43.698 73.1652 43.8823 73.1414C44.0665 73.1175 44.236 73.2417 44.2609 73.4187L44.423 74.5749C44.6207 75.9846 45.8907 77.0476 47.3772 77.0476C48.8637 77.0476 50.1338 75.9846 50.3315 74.5749L50.4936 73.4187C50.5184 73.2417 50.6881 73.1175 50.8722 73.1414C51.0564 73.1652 51.1857 73.328 51.1609 73.505L50.9988 74.6613C50.881 75.5013 50.4491 76.2713 49.7826 76.8293C49.1164 77.3871 48.2622 77.6943 47.3772 77.6943Z" fill="white"/>
</svg>
