<svg width="101" height="97" viewBox="0 0 101 97" fill="none" xmlns="http://www.w3.org/2000/svg">
<path d="M95.4878 55.6429C94.2638 53.8553 92.591 49.8865 90.7746 47.9194C89.1355 46.0488 88.768 43.579 89.8395 41.4326C89.8505 41.4105 89.8615 41.3888 89.8724 41.3675C92.0771 37.0723 96.192 18.4737 75.4521 17.8057C72.9122 17.7239 70.3716 17.9362 67.8733 18.4143C53.0857 21.6222 47.8665 21.609 33.1257 18.4143C30.6275 17.9362 28.0869 17.7239 25.547 17.8057C4.80713 18.4737 8.922 37.0723 11.1267 41.3675C11.1376 41.3888 11.1486 41.4105 11.1596 41.4326C12.2311 43.579 11.8636 46.0488 10.2245 47.9194C8.41266 49.8792 6.73037 53.8634 5.51127 55.6429C2.99064 59.9381 -1.71397 78.5366 21.9983 79.2047C24.9022 79.2865 27.8069 79.0742 30.6632 78.5961C34.6515 77.9285 41.8944 76.2783 50.4996 76.1839C59.1047 76.2784 66.3477 77.9285 70.3359 78.5961C73.1922 79.0742 76.0969 79.2865 79.0008 79.2047C102.713 78.5366 98.0084 59.9381 95.4878 55.6429Z" fill="#E8EFF9"/>
<path d="M50.4995 85.6885C76.5306 85.6885 97.6329 82.8335 97.6329 79.3117C97.6329 75.7898 76.5306 72.9348 50.4995 72.9348C24.4685 72.9348 3.36621 75.7898 3.36621 79.3117C3.36621 82.8335 24.4685 85.6885 50.4995 85.6885Z" fill="#E8EFF9"/>
<path d="M21.2925 21.3483C19.6819 17.6422 13.511 22.1541 21.1678 26.9382C29.4089 22.3134 22.6313 17.6563 21.2925 21.3483ZM30.0785 26.4089C29.2186 24.4303 25.9243 26.839 30.0119 29.393C34.4115 26.9241 30.7932 24.4378 30.0785 26.4089Z" fill="#FD9F5E"/>
<path d="M74.7682 72.5882C74.7682 72.5882 84.5265 77.3319 87.4178 66.6874C87.4178 66.6874 90.3694 54.4231 93.5017 51.1835C96.55 48.0306 96.1753 41.8641 86.2141 45.5888C85.5855 45.8238 84.9758 46.1034 84.3875 46.4203C82.0557 47.6762 76.1863 51.2389 73.5635 56.5057" fill="#C3D7F4"/>
<path d="M90.3227 48.252C90.2005 48.1174 89.9879 48.1035 89.8477 48.2208C89.7767 48.2804 88.0767 49.721 85.4032 53.3992C85.0188 53.9282 84.6338 54.4768 84.2487 55.0439C83.3829 53.3541 84.0187 51.2248 84.0268 51.1983C84.0796 51.0272 83.9781 50.8473 83.8 50.7964C83.6216 50.7454 83.4343 50.843 83.3813 51.0142C83.3468 51.1257 82.5751 53.6898 83.8346 55.6613C82.9876 56.9385 82.1418 58.3038 81.3044 59.7466C81.3044 59.7467 81.3043 59.7469 81.3042 59.747C81.1111 60.0797 80.9184 60.4166 80.7262 60.7574C78.8034 64.1681 76.9275 67.9902 75.1506 72.1175C75.0796 72.2826 75.1613 72.4716 75.3331 72.5399C75.3752 72.5566 75.4188 72.5645 75.4616 72.5645C75.5938 72.5645 75.7192 72.4893 75.7729 72.3647C76.3241 71.0842 76.8705 69.8676 77.4092 68.7123C77.4124 68.7123 77.4153 68.7123 77.4187 68.7123C77.7299 68.7123 78.3237 68.6792 79.0241 68.4748C79.9593 68.202 81.2734 67.5591 82.222 66.0464C82.3179 65.8934 82.2666 65.6947 82.1073 65.6026C81.948 65.5103 81.7411 65.5598 81.6452 65.7127C80.9773 66.7777 80.0384 67.4963 78.8544 67.8484C78.4079 67.9812 78.0079 68.0344 77.7183 68.0544C79.1457 65.0386 80.5149 62.4573 81.7738 60.2742C82.0987 60.3483 82.8574 60.4055 83.3482 60.3531C84.3221 60.273 85.7465 59.9066 87.0019 58.6162C87.1289 58.4858 87.1217 58.2812 86.9858 58.1592C86.85 58.0373 86.6369 58.0443 86.51 58.1747C85.6262 59.0831 84.5522 59.5985 83.3179 59.7065C82.8303 59.7492 82.4117 59.7166 82.1221 59.6756C83.5797 57.1918 84.8777 55.2543 85.9306 53.8033C88.5631 50.1759 90.2735 48.7223 90.2905 48.708C90.4304 48.5906 90.4449 48.3865 90.3227 48.252Z" fill="white"/>
<path d="M77.3372 11.3115H43.4331C42.3175 11.3115 41.4131 12.1801 41.4131 13.2515V74.5321C41.4131 75.6036 42.3175 76.4721 43.4331 76.4721H77.3372C78.4528 76.4721 79.3572 75.6036 79.3572 74.5321V13.2515C79.3572 12.1801 78.4528 11.3115 77.3372 11.3115Z" fill="#73A1E5"/>
<path d="M75.2715 70.386V20.8828H45.4999V70.386H75.2715Z" fill="white"/>
<path d="M57.5238 66.6077C57.3475 66.6077 57.2041 66.4699 57.2041 66.3007C57.2041 66.1314 57.3475 65.9937 57.5238 65.9937C57.7001 65.9937 57.8435 66.1314 57.8435 66.3007C57.8435 66.4699 57.7001 66.6077 57.5238 66.6077ZM64.7696 66.6077C64.5934 66.6077 64.45 66.4699 64.45 66.3007C64.45 66.1314 64.5934 65.9937 64.7696 65.9937C64.946 65.9937 65.0894 66.1314 65.0894 66.3007C65.0894 66.4699 64.946 66.6077 64.7696 66.6077Z" fill="#FD9F5E"/>
<path d="M67.6182 54.9285C66.487 54.9285 65.57 55.8092 65.57 56.8956C65.57 56.985 65.5768 57.0728 65.5888 57.159L55.4939 56.6634L54.9977 55.4486C54.8135 54.9974 54.3683 54.7053 53.8636 54.7044L53.7606 54.7042C53.657 54.4752 53.4196 54.3149 53.143 54.3149H51.7964C51.4245 54.3149 51.123 54.6045 51.123 54.9616C51.123 55.3188 51.4245 55.6083 51.7964 55.6083H53.143C53.4314 55.6083 53.6767 55.4339 53.7726 55.1892L53.8626 55.1893C54.1585 55.1898 54.4195 55.3611 54.5276 55.6257L57.4526 62.7875L56.4526 63.5857C55.7776 64.1026 55.9094 65.1614 56.669 65.526C56.4699 65.7284 56.3474 66.0009 56.3474 66.3006C56.3474 66.9234 56.8749 67.43 57.5234 67.43C58.1718 67.43 58.6994 66.9234 58.6994 66.3006C58.6994 66.0611 58.6211 65.8391 58.4882 65.6562H63.8044C63.6716 65.8391 63.5933 66.0611 63.5933 66.3006C63.5933 66.9234 64.1208 67.43 64.7693 67.43C65.4177 67.43 65.9453 66.9234 65.9453 66.3006C65.9453 66.0611 65.867 65.8391 65.7341 65.6562H65.8882C66.0276 65.6562 66.1407 65.5476 66.1407 65.4137C66.1407 65.2797 66.0276 65.1712 65.8882 65.1712H57.2315C56.559 65.1662 56.2612 64.3757 56.7754 63.9587L57.8554 63.0967L66.3019 62.3531C66.4173 62.343 66.5107 62.2586 66.5284 62.1486L67.0684 58.7904C67.2434 58.8371 67.4277 58.8627 67.6183 58.8627C68.7495 58.8627 69.6665 57.982 69.6665 56.8956C69.6664 55.8092 68.7494 54.9285 67.6182 54.9285ZM58.1944 66.3006C58.1944 66.656 57.8934 66.9451 57.5234 66.9451C57.1534 66.9451 56.8524 66.656 56.8524 66.3006C56.8524 65.9453 57.1534 65.6562 57.5234 65.6562C57.8934 65.6562 58.1944 65.9453 58.1944 66.3006ZM65.4403 66.3006C65.4403 66.656 65.1393 66.9451 64.7693 66.9451C64.3992 66.9451 64.0982 66.656 64.0982 66.3006C64.0982 65.9453 64.3992 65.6562 64.7693 65.6562C65.1393 65.6562 65.4403 65.9453 65.4403 66.3006ZM62.1248 57.4746L62.2506 58.8215L60.6763 58.7747L60.4004 57.39L62.1248 57.4746ZM60.5337 60.6395L59.0709 60.7019L58.6191 59.1989L60.2563 59.2475L60.5337 60.6395ZM59.8811 57.3644L60.159 58.7594L58.4719 58.7093L58.0404 57.2741L59.8811 57.3644ZM55.6963 57.159L57.5069 57.2479L57.9415 58.6936L56.3031 58.6449L55.6963 57.159ZM56.5038 59.1361L58.0887 59.1831L58.552 60.724L57.1763 60.7827L56.5038 59.1361ZM57.9201 62.604L57.3711 61.2599L58.696 61.2033L59.0862 62.5014L57.9201 62.604ZM59.5983 62.4563L59.215 61.1812L60.6296 61.1209L60.8733 62.3441L59.5983 62.4563ZM60.7735 59.2628L62.296 59.308L62.4128 60.5593L61.0435 60.6177L60.7735 59.2628ZM61.3786 62.2996L61.1394 61.0992L62.4579 61.0429L62.5655 62.1951L61.3786 62.2996ZM64.2988 62.0425L63.0683 62.1508L62.9629 61.0214L64.3524 60.9621L64.2988 62.0425ZM64.3766 60.4756L62.9178 60.5378L62.8044 59.3231L64.4314 59.3714L64.3766 60.4756ZM64.4555 58.8869L62.759 58.8365L62.6342 57.4996L64.5198 57.5922L64.4555 58.8869ZM66.0594 61.8875L64.8065 61.9978L64.859 60.9405L66.221 60.8824L66.0594 61.8875ZM66.2996 60.3936L64.8832 60.454L64.9362 59.3864L66.4543 59.4315L66.2996 60.3936ZM66.5319 58.9486L64.9603 58.9019L65.0241 57.617L65.7269 57.6515C65.8995 58.0493 66.2044 58.3808 66.5886 58.5959L66.5319 58.9486Z" fill="#FD9F5E"/>
<path d="M68.159 56.9793C68.0979 56.9172 68.0115 56.8729 67.9013 56.8469C67.9862 56.8169 68.0558 56.7727 68.1089 56.7149C68.275 56.5417 68.2534 56.1878 68.0534 56.0447C67.772 55.8261 67.2297 55.8995 66.9561 56.1306L67.1009 56.3161C67.3208 56.1717 67.6257 56.0749 67.8473 56.2224C67.9824 56.3251 67.9514 56.5678 67.8134 56.6562C67.7311 56.7158 67.6168 56.7461 67.4736 56.7461H67.2513V56.9844H67.471C67.8222 56.9844 67.993 57.0853 67.993 57.293C67.993 57.5271 67.8391 57.6409 67.5225 57.6409C67.3368 57.6414 67.1234 57.588 66.957 57.5018V57.7659C67.2734 57.9209 67.8151 57.9236 68.0765 57.7281C68.2111 57.6278 68.2794 57.4831 68.2794 57.298C68.2793 57.1677 68.2389 57.0605 68.159 56.9793Z" fill="white"/>
<path d="M71.1962 34.9309H21.7715V51.3528H71.1962V34.9309Z" fill="#C2D5F2"/>
<path d="M66.8705 38.7914H56.4031C56.2171 38.7914 56.0664 38.9361 56.0664 39.1147V47.1546C56.0664 47.3331 56.2171 47.4779 56.4031 47.4779H66.8705C67.0564 47.4779 67.2071 47.3331 67.2071 47.1546V39.1147C67.2071 38.9362 67.0564 38.7914 66.8705 38.7914Z" fill="white"/>
<path d="M64.5816 40.686H58.6919L57.999 46.5817H60.5281L61.6367 43.1184L62.7454 46.5817H65.2745L64.5816 40.686Z" fill="#FD9F5E"/>
<path d="M64.5818 39.6877H58.6914V40.686H64.5818V39.6877Z" fill="#A4C7FC"/>
<path d="M51.7406 38.7943H41.2732C41.0872 38.7943 40.9365 38.9391 40.9365 39.1176V47.1575C40.9365 47.3361 41.0872 47.4808 41.2732 47.4808H51.7406C51.9265 47.4808 52.0773 47.3361 52.0773 47.1575V39.1176C52.0773 38.9391 51.9265 38.7943 51.7406 38.7943Z" fill="white"/>
<path d="M44.6409 45.9297H48.5118V42.4749L49.3563 42.8918L50.0953 41.7764L48.4179 40.3455H47.4025C47.143 41.2083 45.8703 41.2083 45.6108 40.3455H44.5954L42.918 41.7764L43.657 42.8918L44.5015 42.4749V45.9297H48.3724" fill="#73A1E5"/>
<path d="M36.597 38.7843H26.1296C25.9437 38.7843 25.793 38.9291 25.793 39.1076V47.1475C25.793 47.3261 25.9437 47.4708 26.1296 47.4708H36.597C36.783 47.4708 36.9337 47.3261 36.9337 47.1475V39.1076C36.9337 38.9291 36.783 38.7843 36.597 38.7843Z" fill="white"/>
<path d="M33.6406 40.2262H29.0498V41.2134H33.6406V40.2262Z" fill="#A4C7FC"/>
<path d="M33.6968 41.2929L33.6408 41.2134H29.05L27.7744 45.0929C28.2233 45.6334 29.6595 46.0289 31.3631 46.0289C33.0667 46.0289 34.5029 45.6334 34.9518 45.0929L33.6968 41.2929Z" fill="#FD9F5E"/>
<path d="M65.3717 15.0715C65.8051 15.0715 66.1565 14.734 66.1565 14.3178C66.1565 13.9015 65.8051 13.5641 65.3717 13.5641C64.9383 13.5641 64.5869 13.9015 64.5869 14.3178C64.5869 14.734 64.9383 15.0715 65.3717 15.0715Z" fill="white"/>
<path d="M62.2769 14.6396H55.0769C54.891 14.6396 54.7402 14.4948 54.7402 14.3162C54.7402 14.1376 54.891 13.9929 55.0769 13.9929H62.2769C62.4628 13.9929 62.6136 14.1376 62.6136 14.3162C62.6136 14.4948 62.4628 14.6396 62.2769 14.6396Z" fill="white"/>
<path d="M60.3852 74.9648C61.2776 74.9648 62.0009 74.2701 62.0009 73.4131C62.0009 72.5561 61.2776 71.8614 60.3852 71.8614C59.4929 71.8614 58.7695 72.5561 58.7695 73.4131C58.7695 74.2701 59.4929 74.9648 60.3852 74.9648Z" fill="white"/>
<path d="M52.9866 17.3272H47.2012L42.2334 23.9941V26.5364C42.2334 28.4864 43.8523 30.0673 45.8493 30.0673C47.8463 30.0673 49.4652 28.4864 49.4652 26.5364V23.9941L52.9866 17.3272Z" fill="white"/>
<path d="M42.2472 23.9645L42.2334 23.9942V26.5364C42.2334 28.4865 43.8523 30.0673 45.8493 30.0673C47.8463 30.0673 49.4652 28.4865 49.4652 26.5364V23.9942L49.4749 23.9645H42.2472Z" fill="#DFE8F5"/>
<path d="M47.2006 17.3272H41.4152L35.001 23.9941V26.5364C35.001 28.4864 36.6199 30.0673 38.6169 30.0673C40.6139 30.0673 42.2328 28.4864 42.2328 26.5364V23.9941L47.2006 17.3272Z" fill="#FD9F5E"/>
<path d="M35.0147 23.9645L35.001 23.9942V26.5364C35.001 28.4865 36.6199 30.0673 38.6169 30.0673C40.6139 30.0673 42.2328 28.4865 42.2328 26.5364V23.9942L42.2425 23.9645H35.0147Z" fill="#FF6900"/>
<path d="M58.7717 17.3272H52.9862L49.4648 23.9941V26.5364C49.4648 28.4864 51.0837 30.0673 53.0807 30.0673C55.0778 30.0673 56.6966 28.4864 56.6966 26.5364V23.9941L58.7717 17.3272Z" fill="#FD9F5E"/>
<path d="M49.4746 23.9645L49.4648 23.9942V26.5364C49.4648 28.4865 51.0837 30.0673 53.0807 30.0673C55.0778 30.0673 56.6966 28.4865 56.6966 26.5364V23.9942L56.7024 23.9645H49.4746Z" fill="#FF6900"/>
<path d="M61.9987 17.3272H58.7723L56.6973 23.9941V26.5364C56.6973 28.4864 58.3162 30.0673 60.3132 30.0673H60.4578C62.4548 30.0673 64.0737 28.4864 64.0737 26.5364V23.9941L61.9987 17.3272Z" fill="white"/>
<path d="M56.703 23.9645L56.6973 23.9942V26.5364C56.6973 28.4865 58.3162 30.0673 60.3132 30.0673H60.4578C62.4548 30.0673 64.0737 28.4865 64.0737 26.5364V23.9942L64.0679 23.9645H56.703Z" fill="#DFE8F5"/>
<path d="M73.5696 17.3272H67.7842L71.3055 23.9941V26.5364C71.3055 28.4864 72.9244 30.0673 74.9214 30.0673C76.9184 30.0673 78.5373 28.4864 78.5373 26.5364V23.9941L73.5696 17.3272Z" fill="white"/>
<path d="M78.5237 23.9645H71.2959L71.3056 23.9942V26.5364C71.3056 28.4865 72.9245 30.0673 74.9215 30.0673C76.9185 30.0673 78.5374 28.4865 78.5374 26.5364V23.9942L78.5237 23.9645Z" fill="#DFE8F5"/>
<path d="M67.7835 17.3272H61.998L64.0731 23.9941V26.5364C64.0731 28.4864 65.692 30.0673 67.689 30.0673C69.686 30.0673 71.3049 28.4864 71.3049 26.5364V23.9941L67.7835 17.3272Z" fill="#FD9F5E"/>
<path d="M64.0674 23.9645L64.0731 23.9942V26.5364C64.0731 28.4865 65.692 30.0673 67.689 30.0673C69.686 30.0673 71.3049 28.4865 71.3049 26.5364V23.9942L71.2952 23.9645H64.0674Z" fill="#FF6900"/>
<path d="M79.3548 17.3272H73.5693L78.5372 23.9941V26.5364C78.5372 28.4864 80.1561 30.0673 82.1531 30.0673C84.1501 30.0673 85.769 28.4864 85.769 26.5364V23.9941L79.3548 17.3272Z" fill="#FD9F5E"/>
<path d="M85.7551 23.9645H78.5273L78.5371 23.9942V26.5364C78.5371 28.4865 80.156 30.0673 82.153 30.0673C84.15 30.0673 85.7689 28.4865 85.7689 26.5364V23.9942L85.7551 23.9645Z" fill="#FF6900"/>
<path d="M19.857 75.4896H16.6035V80.3847H19.857V75.4896Z" fill="#FFD2B3"/>
<path d="M19.8341 79.4043C18.7662 79.8679 17.5176 79.7162 16.6035 79.012V81.8684C16.6035 82.2855 16.9557 82.6236 17.3901 82.6236H23.8421C24.2332 82.6236 24.5649 82.3476 24.6206 81.9759C24.6711 81.6388 24.4803 81.3108 24.1547 81.1755L19.895 79.4038C19.8755 79.3958 19.8534 79.3959 19.8341 79.4043Z" fill="#73A1E5"/>
<path d="M20.3878 80.1722C20.3194 80.1608 20.2542 80.2047 20.2422 80.2705C20.2322 80.3249 20.2617 80.3771 20.3109 80.4002C20.3213 80.4051 20.3326 80.4086 20.3445 80.4107C20.5979 80.4535 21.1165 80.4199 21.3896 80.0253L21.1525 79.9267C20.8937 80.249 20.4103 80.1758 20.3878 80.1722ZM21.5788 80.7366C21.5092 80.735 21.4514 80.7875 21.4494 80.8543C21.448 80.9034 21.4772 80.9464 21.5204 80.9666C21.536 80.9739 21.5534 80.9783 21.572 80.9788C21.5989 80.9794 22.2014 80.9887 22.4858 80.4813L22.2535 80.3847C22.0379 80.7401 21.6004 80.7371 21.5788 80.7366Z" fill="white"/>
<path d="M8.66783 74.496L7.78125 79.3264L10.9917 79.8699L11.8783 75.0395L8.66783 74.496Z" fill="#FFD2B3"/>
<path d="M11.1474 78.8986C10.0097 79.1777 8.80507 78.8195 8.03071 77.9719L7.51308 80.7905C7.4375 81.2021 7.7237 81.5945 8.15238 81.6671L14.519 82.7449C14.9049 82.8103 15.2823 82.5934 15.4046 82.2359C15.5155 81.9116 15.3866 81.5562 15.0899 81.3682L11.2076 78.9084C11.1899 78.8971 11.168 78.8936 11.1474 78.8986Z" fill="#73A1E5"/>
<path d="M11.5549 79.7489C11.4895 79.7262 11.4172 79.7587 11.3934 79.8215C11.3737 79.8736 11.3933 79.93 11.4378 79.961C11.4471 79.9675 11.4575 79.9729 11.469 79.9769C11.7112 80.0615 12.2291 80.115 12.57 79.7713L12.3539 79.6343C12.0403 79.9091 11.5765 79.7562 11.5549 79.7489ZM12.6278 80.5048C12.5595 80.4915 12.493 80.5337 12.4789 80.5993C12.4686 80.6475 12.4896 80.6947 12.5285 80.7219C12.5426 80.7317 12.5591 80.7389 12.5772 80.7425C12.6037 80.7477 13.1965 80.8574 13.5692 80.4043L13.3574 80.2701C13.0803 80.5848 12.6491 80.5089 12.6278 80.5048Z" fill="white"/>
<path d="M21.6005 67.6365L19.8193 54.538H16.0784L16.1759 55.704C16.1759 55.704 14.682 63.1277 15.3257 63.9052C16.1132 64.8563 16.2223 66.803 16.1524 68.4138C16.1008 69.6038 15.8527 70.7739 15.4831 71.9108C14.8081 73.9873 15.1233 76.8094 15.1233 76.8094H22.1672C22.3696 74.2376 21.6005 67.6365 21.6005 67.6365Z" fill="#FF6900"/>
<path d="M11.7835 54.538L10.3088 62.6472C9.83218 65.3032 9.0063 67.8894 8.00465 70.4038C7.4235 71.8643 6.7435 74.285 7.24951 76.8094H13.4028L15.5484 65.6737C15.5484 65.6737 17.5981 57.8895 16.6452 54.538H11.7835Z" fill="#FD9F5E"/>
<path d="M12.6055 34.7174V40.937H16.8067C16.8067 40.937 15.7287 37.5162 15.9721 35.8058" fill="#FFD2B3"/>
<path d="M16.5928 40.2119C14.1919 41.4003 12.6564 39.8035 12.6564 39.8035C11.4231 40.5225 11.0678 42.0636 11.1538 43.2763C11.2485 44.6118 11.9773 49.2416 11.8701 50.7652C11.7259 52.8141 11.5855 52.6912 11.5802 54.6337C11.5797 54.8125 11.7307 54.9576 11.9169 54.9576H19.642C19.828 54.9576 19.9787 54.8128 19.9787 54.6342V47.4607C20.2096 43.5747 16.5928 40.2119 16.5928 40.2119Z" fill="#73A1E5"/>
<path d="M17.8435 44.0109C18.0666 44.0109 18.2475 43.8371 18.2475 43.6229C18.2475 43.4086 18.0666 43.2349 17.8435 43.2349C17.6203 43.2349 17.4395 43.4086 17.4395 43.6229C17.4395 43.8371 17.6203 44.0109 17.8435 44.0109Z" fill="white"/>
<path d="M18.6511 52.2235C18.8742 52.2235 19.0551 52.0498 19.0551 51.8355C19.0551 51.6212 18.8742 51.4475 18.6511 51.4475C18.4279 51.4475 18.2471 51.6212 18.2471 51.8355C18.2471 52.0498 18.4279 52.2235 18.6511 52.2235Z" fill="white"/>
<path d="M14.6452 49.7985C14.8683 49.7985 15.0492 49.6248 15.0492 49.4105C15.0492 49.1962 14.8683 49.0225 14.6452 49.0225C14.4221 49.0225 14.2412 49.1962 14.2412 49.4105C14.2412 49.6248 14.4221 49.7985 14.6452 49.7985Z" fill="white"/>
<path d="M13.2985 53.4199C13.5217 53.4199 13.7025 53.2461 13.7025 53.0319C13.7025 52.8176 13.5217 52.6439 13.2985 52.6439C13.0754 52.6439 12.8945 52.8176 12.8945 53.0319C12.8945 53.2461 13.0754 53.4199 13.2985 53.4199Z" fill="white"/>
<path d="M15.9191 43.3164C16.6347 44.5409 17.0486 45.7845 17.0486 45.7845L24.3241 42.0007C24.2943 41.7317 24.4079 41.4544 24.6498 41.2788L24.9228 41.0806C24.9228 41.0806 24.9572 40.6564 24.9847 40.3168C25.004 40.0797 25.2054 39.8941 25.4532 39.8849H25.4535C25.7401 39.8742 25.9744 40.1015 25.96 40.3762L25.9419 40.7201C25.9421 40.7202 25.9422 40.7202 25.9425 40.7204C26.3041 40.4755 27.0735 39.9307 27.3904 39.7161C27.6169 39.5627 27.9311 39.6232 28.0792 39.8504C28.2151 40.0586 28.1564 40.3326 27.9459 40.4731L26.894 41.2019L27.306 41.7077C27.5886 42.0547 27.5241 42.5562 27.1619 42.8277L26.3752 43.4172C26.0865 43.6336 25.6959 43.6384 25.4061 43.4558C21.7381 46.6189 19.3055 47.9383 18.0525 48.5609C17.1351 49.0167 15.918 48.8415 15.2356 48.099C14.555 47.3585 13.7402 46.0111 13.0761 44.8238C12.6586 44.0775 12.9394 43.1476 13.7069 42.73C14.4865 42.306 15.4806 42.5661 15.9191 43.3164Z" fill="#FFD2B3"/>
<path d="M17.0486 45.7845C17.0486 45.7845 16.6347 44.5409 15.9191 43.3164C15.4806 42.5661 14.4864 42.306 13.7069 42.7301C12.9394 43.1477 12.6586 44.0776 13.0761 44.8239C13.7402 46.0112 14.555 47.3587 15.2356 48.0992C15.918 48.8416 17.1351 49.0168 18.0525 48.561C18.9817 48.0993 20.5599 47.2541 22.8093 45.5583C22.1915 44.8432 21.9637 43.9469 21.8854 43.269L17.0486 45.7845Z" fill="#2C79EC"/>
<path d="M17.9609 31.1615C19.3258 33.754 18.7623 36.3519 18.2706 37.7337C18.0253 38.423 17.3556 38.8947 16.5957 38.8984C13.8968 38.9114 12.7822 36.6919 12.5012 36.0026C12.4534 35.8853 12.4203 35.7636 12.4008 35.6391L11.898 32.4268C11.7452 31.4505 12.4836 30.5531 13.5098 30.4678L16.22 30.2425C16.9409 30.1826 17.635 30.5424 17.9609 31.1615Z" fill="#FFDEC7"/>
<path d="M15.5032 29.2424C17.8333 29.4562 19.5312 28.8245 19.5312 28.8245C19.5312 28.8245 20.2737 29.9277 19.8325 31.228C19.5791 31.9745 18.7891 32.4354 17.9825 32.2988C17.9632 32.2955 17.9437 32.2925 17.9239 32.2898C17.3116 32.2041 16.7029 32.4763 16.3536 32.9658C16.0349 33.4125 15.6232 34.0894 15.5573 34.6812L15.4631 34.5235C15.1703 34.0328 14.4473 33.9936 14.0985 34.4495C13.925 34.6763 13.8922 34.9751 14.0126 35.2316L14.4207 36.101C13.9332 36.7632 12.5896 37.3782 12.5896 37.3782C11.8746 36.7349 11.4833 35.981 11.2769 35.2725C10.8066 33.6589 11.2186 31.9263 12.3164 30.6224C13.002 29.808 14.0298 29.1072 15.5032 29.2424Z" fill="#333333"/>
<path d="M28.0925 67.1058H44.0784L45.3633 83.2982H26.8076L28.0925 67.1058Z" fill="#FD9F5E"/>
<path d="M36.0856 75.2793C34.874 75.2793 33.7044 74.8585 32.7923 74.0944C31.88 73.3301 31.2888 72.2754 31.1276 71.1248L30.8995 69.4974C30.8747 69.3204 31.004 69.1577 31.1883 69.1339C31.3727 69.11 31.5421 69.2342 31.5669 69.4112L31.7949 71.0385C32.082 73.0875 33.9266 74.6327 36.0856 74.6327C38.2447 74.6327 40.0893 73.0875 40.3764 71.0385L40.6044 69.4112C40.6292 69.2342 40.7988 69.1098 40.983 69.1339C41.1673 69.1577 41.2965 69.3205 41.2718 69.4974L41.0437 71.1248C40.8825 72.2754 40.2913 73.3301 39.379 74.0944C38.4669 74.8585 37.2973 75.2793 36.0856 75.2793Z" fill="white"/>
<path d="M41.6948 71.7933H53.0605L53.974 83.2982H40.7812L41.6948 71.7933Z" fill="#FFB683"/>
<path d="M47.3776 77.6943C46.4926 77.6943 45.6383 77.3871 44.9722 76.8293C44.3058 76.2713 43.8738 75.5014 43.756 74.6613L43.5939 73.505C43.5691 73.328 43.6983 73.1652 43.8826 73.1414C44.0668 73.1175 44.2364 73.2417 44.2612 73.4187L44.4233 74.5749C44.621 75.9846 45.891 77.0476 47.3775 77.0476C48.8641 77.0476 50.1341 75.9846 50.3318 74.5749L50.4939 73.4187C50.5187 73.2417 50.6884 73.1175 50.8725 73.1414C51.0568 73.1652 51.186 73.328 51.1612 73.505L50.9991 74.6613C50.8813 75.5013 50.4494 76.2713 49.7829 76.8293C49.1168 77.3871 48.2625 77.6943 47.3776 77.6943Z" fill="white"/>
</svg>
