<svg width="136" height="141" viewBox="0 0 136 141" fill="none" xmlns="http://www.w3.org/2000/svg">
<path d="M14.5717 64.2018C10.763 40.5627 35.6597 34.2485 46.4769 37.8782C51.1359 39.4415 49.8425 43.8779 54.7772 47.9962C68.8703 59.7578 98.2981 39.3278 113.497 49.7129C120.998 54.8377 124.185 66.8872 119.887 74.0004C106.986 95.3515 17.9052 84.8914 14.5717 64.2018Z" fill="#EEF5FF"/>
<path d="M24.5932 102.5C22.805 102.738 19.9 103.176 19.8814 103.806C19.8647 104.374 22.204 104.84 23.0226 105.003C32.3855 106.868 34.4193 103.742 46.8077 105.091C53.3052 105.799 52.325 106.973 58.0873 107.268C65.9715 107.672 77.9881 105.219 87.8445 105.33C92.0496 105.377 92.116 105.774 97.839 106.092C100.087 106.216 115.835 107.071 116.115 105.765C116.165 105.529 115.786 104.871 108.976 103.262C108.976 103.262 76.464 95.5792 24.5932 102.5Z" fill="#DFE1E5"/>
<path d="M79.8869 102.598H56.1133C54.8428 102.598 53.6925 102.064 52.8598 101.201C52.0272 100.338 51.5122 99.145 51.5122 97.8277V38.4573C51.5122 37.2547 51.9414 36.1561 52.6497 35.3171C53.493 34.318 54.7321 33.687 56.1133 33.687H79.8869C81.0879 33.687 82.1815 34.1641 83.0009 34.9455C83.9151 35.8174 84.488 37.068 84.488 38.4573V97.8277C84.488 98.8156 84.1983 99.7334 83.7022 100.495C82.8753 101.764 81.4751 102.598 79.8869 102.598Z" fill="url(#paint0_linear_326_484)"/>
<path d="M79.1277 35.5502H56.5455C55.5802 35.5502 54.7162 36.0001 54.1379 36.7086C53.6732 37.278 53.3931 38.0144 53.3931 38.8186V96.9599C53.3931 97.7959 53.6958 98.5586 54.1938 99.1365C54.7711 99.8065 55.6108 100.228 56.5455 100.228H79.1277C79.9627 100.228 80.722 99.8917 81.286 99.3422C81.898 98.746 82.2802 97.8992 82.2802 96.9599V38.8186C82.2802 37.9491 81.9527 37.159 81.4186 36.5734C80.844 35.9434 80.0301 35.5502 79.1277 35.5502Z" fill="white"/>
<path d="M58.5556 38.1634H55.6913C55.4322 38.1634 55.2222 37.9456 55.2222 37.677C55.2222 37.4084 55.4322 37.1906 55.6913 37.1906H58.5556C58.8147 37.1906 59.0248 37.4084 59.0248 37.677C59.0248 37.9456 58.8147 38.1634 58.5556 38.1634ZM77.4561 38.1634H77.3294C77.0702 38.1634 76.8602 37.9456 76.8602 37.677C76.8602 37.4084 77.0702 37.1906 77.3294 37.1906H77.4561C77.7152 37.1906 77.9252 37.4084 77.9252 37.677C77.9252 37.9456 77.7152 38.1634 77.4561 38.1634ZM80.1936 38.1634H78.9393C78.6802 38.1634 78.4701 37.9456 78.4701 37.677C78.4701 37.4084 78.6802 37.1906 78.9393 37.1906H80.1936C80.4528 37.1906 80.6628 37.4084 80.6628 37.677C80.6628 37.9456 80.4528 38.1634 80.1936 38.1634Z" fill="#033D94"/>
<path d="M68.0001 38.5017C68.4394 38.5017 68.7956 38.1325 68.7956 37.677C68.7956 37.2215 68.4394 36.8523 68.0001 36.8523C67.5607 36.8523 67.2046 37.2215 67.2046 37.677C67.2046 38.1325 67.5607 38.5017 68.0001 38.5017Z" fill="#033D94"/>
<path d="M78.0513 78.8802H57.9487C57.1909 78.8802 56.5767 78.2433 56.5767 77.4577V61.0144C56.5767 60.2288 57.1909 59.592 57.9487 59.592H78.0513C78.809 59.592 79.4233 60.2288 79.4233 61.0144V77.4577C79.4233 78.2433 78.809 78.8802 78.0513 78.8802ZM78.0513 56.8562H57.9487C57.1909 56.8562 56.5767 56.2193 56.5767 55.4337V45.0517C56.5767 44.2662 57.1909 43.6293 57.9487 43.6293H78.0513C78.809 43.6293 79.4233 44.2662 79.4233 45.0517V55.4337C79.4233 56.2193 78.809 56.8562 78.0513 56.8562ZM78.0513 94.9179H57.9487C57.1909 94.9179 56.5767 94.2811 56.5767 93.4955V83.1135C56.5767 82.3279 57.1909 81.6911 57.9487 81.6911H78.0513C78.809 81.6911 79.4233 82.3279 79.4233 83.1135V93.4955C79.4233 94.2811 78.809 94.9179 78.0513 94.9179Z" fill="#EEF5FF"/>
<path opacity="0.59" d="M76.3372 65.8094L75.6654 63.5551C75.647 63.4932 75.605 63.4419 75.5491 63.4129L73.8828 62.5482C73.8459 62.529 73.8054 62.5214 73.7655 62.524C73.7623 62.5239 73.7592 62.523 73.7559 62.523C73.7559 62.523 73.4018 63.2792 72.4887 63.2792C71.5757 63.2792 71.2216 62.523 71.2216 62.523C71.2183 62.523 71.2152 62.5239 71.2119 62.524C71.172 62.5214 71.1316 62.529 71.0946 62.5482L69.4284 63.4129C69.3725 63.4419 69.3304 63.4932 69.312 63.5551L68.6403 65.8094C68.608 65.9176 68.6538 66.0343 68.7498 66.0883L69.9014 66.7372V69.099C69.9014 69.5759 70.1768 69.9966 70.603 70.171C71.0212 70.3421 71.6878 70.5459 72.4887 70.5459C73.2931 70.5459 73.972 70.3405 74.3998 70.1681C74.8236 69.9974 75.1083 69.5655 75.1083 69.0933V66.719L76.2277 66.0883C76.3236 66.0343 76.3694 65.9176 76.3372 65.8094ZM67.0207 49.5177L66.3489 47.2634C66.3305 47.2015 66.2884 47.1501 66.2325 47.1211L64.5663 46.2564C64.5293 46.2372 64.4889 46.2296 64.449 46.2323C64.4457 46.2321 64.4426 46.2313 64.4393 46.2313C64.4393 46.2313 64.0852 46.9874 63.1722 46.9874C62.2592 46.9874 61.9051 46.2313 61.9051 46.2313C61.9017 46.2313 61.8986 46.2321 61.8953 46.2323C61.8555 46.2296 61.815 46.2372 61.7781 46.2564L60.1118 47.1211C60.0559 47.1501 60.0139 47.2015 59.9955 47.2634L59.3237 49.5177C59.2915 49.6258 59.3373 49.7425 59.4332 49.7965L60.5849 50.4454V52.8072C60.5849 53.2841 60.8602 53.7049 61.2864 53.8792C61.7046 54.0503 62.3713 54.2542 63.1722 54.2542C63.9766 54.2542 64.6554 54.0487 65.0833 53.8763C65.507 53.7056 65.7917 53.2737 65.7917 52.8015V50.4273L66.9112 49.7965C67.0071 49.7425 67.0529 49.6258 67.0207 49.5177Z" fill="#88B6FC"/>
<path d="M76.2637 47.9184H69.7269C69.4944 47.9184 69.3042 47.7212 69.3042 47.4801C69.3042 47.2391 69.4944 47.0419 69.7269 47.0419H76.2637C76.4961 47.0419 76.6864 47.2391 76.6864 47.4801C76.6864 47.7212 76.4961 47.9184 76.2637 47.9184ZM73.4023 50.2427H69.6053C69.4397 50.2427 69.3042 50.1022 69.3042 49.9305V49.6784C69.3042 49.5067 69.4397 49.3662 69.6053 49.3662H73.4023C73.5679 49.3662 73.7034 49.5067 73.7034 49.6784V49.9305C73.7034 50.1022 73.5679 50.2427 73.4023 50.2427Z" fill="#88B6FC"/>
<path opacity="0.59" d="M67.0207 87.5795L66.3489 85.3252C66.3305 85.2633 66.2884 85.2119 66.2325 85.1829L64.5663 84.3182C64.5293 84.299 64.4889 84.2914 64.449 84.2941C64.4457 84.2939 64.4426 84.2931 64.4393 84.2931C64.4393 84.2931 64.0852 85.0492 63.1722 85.0492C62.2592 85.0492 61.9051 84.2931 61.9051 84.2931C61.9017 84.2931 61.8986 84.2939 61.8953 84.2941C61.8555 84.2914 61.815 84.299 61.7781 84.3182L60.1118 85.1829C60.0559 85.2119 60.0139 85.2633 59.9955 85.3252L59.3237 87.5795C59.2915 87.6876 59.3373 87.8043 59.4332 87.8583L60.5849 88.5072V90.869C60.5849 91.3459 60.8602 91.7667 61.2864 91.941C61.7046 92.1121 62.3713 92.316 63.1722 92.316C63.9766 92.316 64.6554 92.1105 65.0833 91.9381C65.507 91.7674 65.7917 91.3355 65.7917 90.8633V88.4891L66.9112 87.8583C67.0071 87.8043 67.0529 87.6876 67.0207 87.5795Z" fill="#88B6FC"/>
<path d="M76.2637 85.9802H69.727C69.4945 85.9802 69.3043 85.783 69.3043 85.542C69.3043 85.3009 69.4945 85.1037 69.727 85.1037H76.2637C76.4962 85.1037 76.6864 85.3009 76.6864 85.542C76.6864 85.783 76.4962 85.9802 76.2637 85.9802ZM73.2808 88.3045H69.727C69.4945 88.3045 69.3043 88.1073 69.3043 87.8663C69.3043 87.6252 69.4945 87.428 69.727 87.428H73.2808C73.5133 87.428 73.7035 87.6252 73.7035 87.8663C73.7035 88.1073 73.5133 88.3045 73.2808 88.3045ZM76.2637 73.4572H59.7362C59.5037 73.4572 59.3135 73.26 59.3135 73.0189C59.3135 72.7779 59.5037 72.5807 59.7362 72.5807H76.2637C76.4962 72.5807 76.6864 72.7779 76.6864 73.0189C76.6864 73.26 76.4962 73.4572 76.2637 73.4572ZM69.2438 75.7815H59.7362C59.5037 75.7815 59.3135 75.5843 59.3135 75.3433C59.3135 75.1022 59.5037 74.905 59.7362 74.905H69.2438C69.4763 74.905 69.6665 75.1022 69.6665 75.3433C69.6665 75.5843 69.4763 75.7815 69.2438 75.7815Z" fill="#88B6FC"/>
<path d="M60.5983 70.3174C60.8922 70.0128 60.8922 69.5188 60.5983 69.2141C60.3044 68.9094 59.8279 68.9094 59.5341 69.2141C59.2402 69.5188 59.2402 70.0128 59.5341 70.3174C59.8279 70.6221 60.3044 70.6221 60.5983 70.3174Z" fill="#88B6FC"/>
<path d="M64.6572 69.945C64.7527 69.5257 64.5022 69.1055 64.0977 69.0065C63.6932 68.9075 63.2879 69.1672 63.1924 69.5865C63.0969 70.0059 63.3474 70.4261 63.7519 70.5251C64.1564 70.6241 64.5617 70.3644 64.6572 69.945Z" fill="#88B6FC"/>
<path d="M117.295 100.892H94.4243V87.9699C94.4243 87.9699 94.1607 83.9014 105.86 83.9014C117.559 83.9014 117.295 87.9699 117.295 87.9699V100.892Z" fill="#FF6900"/>
<path d="M116.489 99.3711C116.331 99.3017 116.157 99.2634 115.974 99.2634H95.7456C95.367 99.2634 95.0256 99.4284 94.7847 99.6928C94.561 99.9383 94.4238 100.269 94.4238 100.634C94.4238 101.012 94.5718 101.355 94.811 101.603C95.0502 101.851 95.3806 102.004 95.7456 102.004H96.4757V103.385H98.6106V102.004H113.109V103.385H115.244V102.004H115.974C116.339 102.004 116.67 101.851 116.909 101.603C117.148 101.355 117.296 101.012 117.296 100.634C117.296 100.066 116.963 99.5791 116.489 99.3711Z" fill="#FF6900"/>
<path d="M89.8277 101.749C89.8277 101.749 87.1944 103.649 87.3908 103.996C87.5873 104.342 89.4682 105.372 90.3633 104.729C91.2584 104.086 91.9347 102.207 91.9347 102.207L91.4047 104.509L92.1006 104.575C92.1006 104.575 92.0314 102.963 92.4058 102.53C92.7803 102.098 93.5318 101.604 93.2272 100.888C92.9226 100.173 92.5348 98.7557 92.0659 99.0859C91.597 99.4162 89.8277 101.749 89.8277 101.749Z" fill="#033D94"/>
<path d="M90.2786 96.7513C90.2786 96.7513 90.215 99.1084 90.0416 99.6145C89.8682 100.121 88.1885 103.324 88.1885 103.324C88.1885 103.324 91.1352 101.828 91.6639 100.933C92.1927 100.038 92.4968 99.2445 92.066 99.0859C91.6353 98.9273 91.9276 97.2244 91.9276 97.2244L90.2786 96.7513Z" fill="white"/>
<path d="M88.1883 103.443C88.1578 103.443 88.1277 103.431 88.1056 103.407C88.0711 103.369 88.0638 103.313 88.0876 103.268C88.1044 103.236 89.7649 100.067 89.9334 99.5748C90.0658 99.1884 90.1421 97.5568 90.164 96.748C90.165 96.7115 90.182 96.6775 90.2104 96.6558C90.2386 96.6341 90.2751 96.6269 90.3091 96.6369L91.958 97.11C92.0149 97.1263 92.0505 97.1849 92.0401 97.2452C91.9073 98.0198 91.9014 98.8994 92.1041 98.9741C92.226 99.0189 92.3126 99.1077 92.3547 99.231C92.4652 99.555 92.2712 100.132 91.7615 100.995C91.2215 101.909 88.3602 103.369 88.2387 103.431C88.2226 103.439 88.2054 103.443 88.1883 103.443ZM90.3884 96.9061C90.3709 97.4414 90.3026 99.207 90.1492 99.6542C90.0068 100.07 88.9009 102.207 88.4636 103.047C89.2399 102.631 91.1629 101.553 91.5661 100.871C92.1756 99.8391 92.1865 99.4502 92.1387 99.3103C92.1194 99.2537 92.0851 99.2191 92.0275 99.1978C91.7925 99.1113 91.6922 98.7491 91.7207 98.0904C91.7344 97.7714 91.7746 97.4663 91.7978 97.3105L90.3884 96.9061Z" fill="#033D94"/>
<path d="M102.989 79.2506C102.989 79.2506 93.3657 76.6781 91.9031 77.8373C90.4406 78.9965 90.1149 83.2652 90.2751 85.7071C90.4352 88.1489 90.0324 96.1704 89.8818 96.7471C89.7311 97.3238 92.3485 97.8986 92.3485 97.8986C92.3485 97.8986 94.0225 90.4107 94.5872 88.7623C95.1519 87.1139 94.973 83.2549 94.973 83.2549C94.973 83.2549 100.556 86.3103 103.635 86.1721C107.422 86.0021 109.601 84.2013 109.424 81.6204C109.248 79.0396 102.989 79.2506 102.989 79.2506Z" fill="#033D94"/>
<path d="M99.2065 70.8694C99.2065 70.8694 98.3911 72.2473 97.8768 72.3884C97.3625 72.5296 93.4588 70.609 93.1315 70.1325C92.8043 69.656 92.4738 68.1867 92.06 68.0344C91.6462 67.882 89.3779 66.8433 89.3779 66.8433L90.7434 68.0835C90.7434 68.0835 90.262 68.4148 90.2514 68.5889C90.2408 68.7629 90.343 70.3261 90.8003 70.4945C91.2576 70.663 92.643 70.8426 93.2829 71.4087C93.9228 71.9749 97.2187 75.2227 98.2459 75.0161C99.2731 74.8096 100.912 72.1515 100.912 72.1515L99.2065 70.8694Z" fill="white"/>
<path d="M98.1479 75.1439C97.2568 75.1441 95.3602 73.496 93.603 71.8622C93.4306 71.7018 93.2944 71.5752 93.2083 71.4991C92.7644 71.1062 91.9307 70.9051 91.3221 70.7583C91.0917 70.7027 90.8926 70.6546 90.7618 70.6064C90.177 70.3911 90.1359 68.5989 90.1369 68.5814C90.1471 68.415 90.3815 68.2068 90.5577 68.0729L89.3023 66.9326C89.2597 66.894 89.2507 66.8289 89.2812 66.7794C89.3116 66.73 89.3722 66.7109 89.424 66.7347C89.4466 66.745 91.6931 67.7733 92.0982 67.9225C92.3995 68.0334 92.6174 68.6068 92.8482 69.2138C92.9802 69.5612 93.105 69.8893 93.2247 70.0636C93.3598 70.2604 94.3304 70.8282 95.4822 71.3844C96.8159 72.0285 97.681 72.3192 97.8473 72.2736C98.2326 72.1679 98.8885 71.1793 99.1087 70.8073C99.1254 70.7791 99.1526 70.7594 99.1839 70.7529C99.2153 70.7465 99.2477 70.7538 99.2735 70.7732L100.98 72.0554C101.029 72.0923 101.041 72.1625 101.009 72.2155C100.941 72.3258 99.3307 74.919 98.2674 75.1327C98.23 75.1403 98.19 75.1439 98.1479 75.1439ZM90.0131 67.2624L90.8186 67.9941C90.8455 68.0185 90.8598 68.0545 90.8574 68.0914C90.8551 68.1283 90.8363 68.1619 90.8066 68.1824C90.5877 68.3332 90.3775 68.5312 90.3655 68.5978C90.3491 68.8677 90.4982 70.2573 90.8384 70.3826C90.9571 70.4263 91.1504 70.4729 91.374 70.5269C92.0056 70.6793 92.8707 70.888 93.357 71.3184C93.4453 71.3964 93.5824 71.5239 93.756 71.6853C94.7505 72.6102 97.3916 75.0674 98.2239 74.8995C98.6168 74.8205 99.1874 74.3135 99.8738 73.4333C100.285 72.9058 100.625 72.3878 100.757 72.1812L99.2381 71.04C99.0226 71.3887 98.3786 72.3735 97.9059 72.5032C97.3195 72.6635 93.3758 70.6932 93.0381 70.2014C92.9021 70.0035 92.7724 69.6622 92.6351 69.3009C92.4521 68.8198 92.2245 68.2211 92.0215 68.1463C91.7506 68.0465 90.718 67.5822 90.0131 67.2624Z" fill="#033D94"/>
<path d="M103.341 63.9613C102.64 64.3982 101.122 65.6512 101.24 66.5617C101.359 67.4722 100.23 69.289 100.235 70.2363C100.24 71.1836 102.171 71.6846 102.088 73.2564C102.006 74.8282 102.396 79.3805 102.095 80.2575C101.795 81.1344 104.396 83.7368 106.946 83.3764C109.495 83.016 111.041 80.911 110.622 78.8751C110.204 76.8392 108.796 66.1669 107.192 64.8155C105.587 63.464 103.341 63.9613 103.341 63.9613Z" fill="#2C79EC"/>
<path d="M103.437 61.9105C103.437 61.9105 103.46 63.7071 103.341 63.9613C103.222 64.2155 105.315 64.2579 105.587 63.464C105.859 62.6701 104.172 61.2543 104.172 61.2543L103.437 61.9105Z" fill="white"/>
<path d="M103.942 64.2438C103.63 64.2438 103.338 64.2001 103.253 64.0792C103.217 64.0288 103.212 63.9653 103.238 63.9094C103.312 63.7516 103.332 62.6464 103.322 61.9121C103.322 61.8769 103.336 61.8434 103.362 61.8204L104.098 61.1643C104.14 61.1268 104.202 61.126 104.245 61.162C104.262 61.1767 104.678 61.5274 105.068 61.9826C105.612 62.6189 105.823 63.1307 105.695 63.5037C105.533 63.9778 104.873 64.1452 104.494 64.2028C104.33 64.2276 104.132 64.2438 103.942 64.2438ZM103.465 63.9507C103.634 64.018 104.263 64.0526 104.821 63.8895C105.074 63.8157 105.393 63.675 105.479 63.4242C105.67 62.8681 104.663 61.8372 104.174 61.4097L103.552 61.9644C103.556 62.34 103.562 63.5849 103.465 63.9507Z" fill="#033D94"/>
<path d="M101.563 59.2363C101.563 59.2363 101.384 62.1141 102.604 62.5344C103.824 62.9548 104.572 61.5851 104.633 61.4058C104.695 61.2264 104.278 59.1106 101.563 59.2363Z" fill="white"/>
<path d="M103.061 62.7326C102.898 62.7326 102.733 62.7042 102.568 62.6472C101.279 62.203 101.441 59.3499 101.448 59.2286C101.452 59.1682 101.499 59.1203 101.558 59.1176C103.119 59.0453 103.925 59.6983 104.325 60.2588C104.684 60.7627 104.788 61.3071 104.741 61.4455C104.703 61.5565 104.487 61.9617 104.128 62.2847C103.798 62.5817 103.435 62.7326 103.061 62.7326ZM101.672 59.3512C101.665 59.5784 101.658 60.1346 101.74 60.7142C101.834 61.384 102.066 62.224 102.64 62.4218C103.836 62.8342 104.52 61.3812 104.525 61.366C104.536 61.2936 104.447 60.7468 104.019 60.2441C103.654 59.8156 102.954 59.32 101.672 59.3512Z" fill="#033D94"/>
<path d="M100.564 57.0003C99.5432 58.6583 101.682 59.991 102.582 60.1691C103.481 60.3471 104.221 62.7898 104.192 63.5198C104.164 64.2499 104.111 65.4817 106.057 65.8407C108.003 66.1998 110.635 62.9052 109.168 62.224C107.17 61.297 106.812 56.9518 105.141 56.0047C103.023 54.804 101.563 55.3767 100.564 57.0003Z" fill="#033D94"/>
<path d="M101.643 65.4885C101.643 65.4885 98.6017 69.8472 98.3103 70.5216C98.019 71.196 100.197 72.8736 100.892 73.2545C101.587 73.6354 103.414 70.1497 103.688 69.4376C103.962 68.7256 103.266 65.7981 101.643 65.4885Z" fill="#2C79EC"/>
<path d="M101.951 72.5994C101.924 72.5994 101.897 72.5896 101.875 72.5696C101.828 72.5262 101.823 72.4512 101.865 72.402C102.259 71.9391 103.574 69.4069 103.587 69.3814C103.617 69.3236 103.687 69.3022 103.742 69.333C103.798 69.3641 103.819 69.4361 103.789 69.4939C103.735 69.5991 102.448 72.0759 102.037 72.5592C102.014 72.5858 101.983 72.5994 101.951 72.5994Z" fill="#033D94"/>
<path d="M40.296 97.7564C40.296 97.7564 40.3234 98.8371 40.0765 99.3206C39.8297 99.804 39.6102 99.9036 39.7199 100.074C39.8297 100.245 40.8809 102.371 41.9233 102.172C42.9657 101.973 43.7918 100.772 43.8193 100.53C43.8467 100.288 42.6421 99.119 42.7236 98.055C42.7583 97.6012 40.296 97.7564 40.296 97.7564Z" fill="white"/>
<path d="M41.7833 102.312C41.147 102.312 40.4391 101.618 39.6761 100.246C39.6483 100.196 39.6289 100.161 39.6184 100.145C39.5042 99.9669 39.6036 99.8268 39.7186 99.6646C39.7888 99.5657 39.8761 99.4426 39.9687 99.2613C40.1976 98.8129 40.1742 97.7702 40.174 97.7597C40.1723 97.6915 40.223 97.6341 40.2888 97.6299C40.6447 97.6074 42.4377 97.5135 42.7722 97.8667C42.8399 97.9383 42.8495 98.0141 42.8456 98.0651C42.7944 98.734 43.3015 99.4693 43.6372 99.9558C43.8578 100.276 43.9548 100.422 43.9408 100.545C43.9035 100.873 42.9992 102.095 41.9456 102.297C41.892 102.307 41.8379 102.312 41.7833 102.312ZM40.4194 97.8761C40.4186 98.1806 40.3952 98.9676 40.1847 99.3799C40.0837 99.5777 39.9865 99.7147 39.9156 99.8148C39.8074 99.9672 39.8069 99.9808 39.8218 100.004C39.8337 100.023 39.8562 100.063 39.8879 100.12C40.4181 101.073 41.1977 102.181 41.9013 102.047C42.8618 101.864 43.659 100.739 43.6972 100.521C43.6836 100.459 43.5478 100.262 43.4383 100.103C43.082 99.5867 42.5436 98.8062 42.6019 98.0449C42.5263 97.8945 41.5208 97.816 40.4194 97.8761Z" fill="#033D94"/>
<path d="M30.9459 99.0878C30.1115 99.1177 29.1644 99.8619 29.0737 100.596C28.9829 101.33 29.1491 104.427 29.6028 104.71C30.0566 104.992 31.4723 105.03 31.9078 104.71C32.3434 104.39 32.6356 102.495 32.5616 101.389C32.4876 100.284 31.8715 99.0545 30.9459 99.0878Z" fill="#2C79EC"/>
<path d="M30.0709 99.3768C30.0709 99.3768 29.978 100.726 29.9083 101.4C29.8386 102.074 30.2568 103.086 31.2325 102.989C32.2081 102.893 32.3772 101.648 32.3054 101.266C32.1814 100.607 31.8829 99.0878 31.8829 99.0878L30.0709 99.3768Z" fill="white"/>
<path d="M31.1059 103.123C30.7667 103.123 30.4666 102.995 30.2317 102.748C29.8669 102.365 29.7455 101.788 29.7871 101.386C29.8558 100.722 29.9484 99.3812 29.9493 99.3678C29.9534 99.3087 29.9963 99.2605 30.0527 99.2515L31.8646 98.9625C31.9293 98.9522 31.99 98.9963 32.003 99.0624C32.006 99.0777 32.303 100.59 32.4257 101.242C32.4805 101.533 32.4117 102.172 32.0899 102.619C31.8771 102.914 31.5926 103.081 31.2443 103.116C31.1975 103.12 31.1514 103.123 31.1059 103.123ZM30.1861 99.4867C30.163 99.8131 30.0882 100.852 30.0302 101.413C29.9948 101.756 30.0971 102.246 30.4056 102.57C30.6217 102.797 30.8962 102.895 31.2212 102.863C31.4978 102.836 31.7242 102.703 31.8941 102.467C32.178 102.073 32.2247 101.497 32.1858 101.291C32.0834 100.746 31.8593 99.6018 31.7867 99.2314L30.1861 99.4867Z" fill="#033D94"/>
<path d="M27.9889 67.4908C27.9889 67.4908 26.4548 75.6906 27.2214 83.4222C27.9881 91.1538 28.7756 97.9444 28.983 98.9276C29.1905 99.9108 30.3463 100.034 31.2946 99.8494C32.243 99.665 32.895 98.9276 32.9246 98.436C32.9542 97.9444 33.9017 78.2004 33.9017 76.823C33.9017 75.4457 37.9155 81.9652 38.5845 85.8491C39.2535 89.733 39.9224 97.709 39.9224 97.709C39.9224 97.709 40.3907 98.8187 41.6617 98.68C42.9328 98.5412 43.9362 97.8477 43.9362 97.0848C43.9362 96.3219 44.4045 84.1152 43.401 80.7861C42.3976 77.457 38.7852 68.1633 37.5141 67.123C36.2431 66.0826 27.9889 67.4908 27.9889 67.4908Z" fill="#033D94"/>
<path d="M26.9597 60.8416C26.9597 60.8416 26.1415 65.0008 26.3527 65.3839C26.5638 65.7669 27.989 67.4908 27.989 67.4908L28.992 61.17L26.9597 60.8416Z" fill="white"/>
<path d="M27.9889 67.6175C27.9537 67.6175 27.9196 67.6018 27.8961 67.5732C27.8375 67.5025 26.4608 65.8358 26.2464 65.4467C26.0293 65.0528 26.6457 61.803 26.8398 60.8163C26.8529 60.7499 26.9135 60.7059 26.9783 60.7164L29.0106 61.0448C29.0428 61.0499 29.0717 61.0683 29.0908 61.0957C29.1099 61.123 29.1177 61.1572 29.1124 61.1905L28.1095 67.5114C28.1017 67.56 28.0676 67.5996 28.0218 67.6128C28.0109 67.616 27.9998 67.6175 27.9889 67.6175ZM27.0561 60.9854C26.6721 62.9565 26.3477 65.0888 26.4589 65.3216C26.6189 65.6117 27.5275 66.7321 27.911 67.2006L28.8512 61.2755L27.0561 60.9854Z" fill="#033D94"/>
<path d="M40.2894 58.5682L42.5841 61.1475C42.5841 61.1475 46.9319 58.0924 47.3909 57.1908C47.8498 56.2893 49.3232 54.7867 49.3232 54.7867L48.8643 56.0389L50.845 54.2859L50.0237 55.7384L51.8111 54.1607L50.5068 56.1891L51.8111 55.2626L50.6759 56.8402L51.7145 56.139L50.386 57.7668C50.386 57.7668 49.3232 58.1925 48.5744 58.6182C47.8257 59.044 44.1783 63.8772 42.56 64.0274C40.9416 64.1777 38.5986 59.9705 38.5986 59.9705L40.2894 58.5682Z" fill="white"/>
<path d="M42.4762 64.158C40.8087 64.158 38.5879 60.2053 38.4925 60.0339C38.4623 59.9797 38.4748 59.9107 38.5219 59.8716L40.2128 58.4692C40.2629 58.4276 40.3354 58.4333 40.379 58.4822L42.6023 60.9814C44.1207 59.9099 46.9374 57.8094 47.2824 57.1317C47.7449 56.2232 49.1765 54.7583 49.2372 54.6964C49.2781 54.6547 49.3417 54.6481 49.3897 54.6807C49.4378 54.7132 49.4576 54.7761 49.4372 54.8318L49.1479 55.6209L50.7653 54.1895C50.8107 54.1493 50.8775 54.1491 50.9231 54.1887C50.9689 54.2285 50.9803 54.2966 50.9501 54.35L50.4941 55.1565L51.7316 54.0642C51.778 54.0233 51.8465 54.024 51.892 54.066C51.9376 54.108 51.9463 54.1784 51.9125 54.231L50.9588 55.7142L51.7417 55.158C51.791 55.1229 51.8576 55.13 51.8989 55.1748C51.9403 55.2194 51.9445 55.2887 51.9087 55.3383L51.1837 56.346L51.6475 56.0329C51.6983 55.9987 51.7657 56.008 51.8059 56.0552C51.846 56.1024 51.8467 56.1729 51.8075 56.2209L50.479 57.8486C50.4658 57.8649 50.4488 57.8774 50.4297 57.885C50.4192 57.8892 49.3657 58.3127 48.6329 58.7294C48.402 58.8606 47.8197 59.5031 47.1455 60.247C45.6912 61.8514 43.6995 64.0488 42.5705 64.1537C42.5393 64.1566 42.5078 64.158 42.4762 64.158ZM38.7576 60.0007C38.919 60.2802 39.43 61.1408 40.0696 61.9788C41.0731 63.2938 41.9304 63.9598 42.5487 63.9012C43.585 63.805 45.6204 61.5594 46.9673 60.0734C47.7122 59.2516 48.2505 58.6577 48.5153 58.5071C49.1932 58.1217 50.1352 57.7326 50.3124 57.6604L51.0827 56.7166L50.7422 56.9464C50.6926 56.98 50.627 56.9718 50.5864 56.927C50.5459 56.8822 50.5421 56.8137 50.5776 56.7645L51.2727 55.7984L50.5756 56.2937C50.5273 56.3279 50.4622 56.3219 50.4206 56.2793C50.3789 56.2367 50.3723 56.1694 50.4048 56.1188L51.2236 54.8454L50.1026 55.8349C50.0573 55.875 49.9905 55.8752 49.9448 55.8355C49.8991 55.7958 49.8878 55.7276 49.9179 55.6743L50.3725 54.8704L48.9433 56.1352C48.9008 56.1729 48.8391 56.1759 48.7936 56.1424C48.7479 56.1091 48.7299 56.048 48.7497 55.9939L49 55.3111C48.5325 55.8208 47.7939 56.67 47.4987 57.25C47.0308 58.1689 42.8309 61.127 42.6524 61.2525C42.6023 61.2876 42.5349 61.2796 42.494 61.2335L40.2765 58.7409L38.7576 60.0007Z" fill="#033D94"/>
<path d="M32.0083 53.1618C29.6188 53.4617 28.1278 55.8691 27.0542 58.3736C25.9805 60.878 25.7792 60.878 25.9805 61.2607C26.1818 61.6433 27.8594 62.0955 28.0942 61.9216C28.0942 61.9216 27.5574 66.4783 27.3897 67.7305C27.2219 68.9827 29.1914 69.7828 33.0715 69.5393C36.9516 69.2958 38.3607 69.0175 38.7633 67.3479C39.1659 65.6782 37.6897 60.7389 37.7904 60.7389C37.891 60.7389 38.8304 61.1563 40.0383 59.9736C41.2461 58.791 40.9441 57.9909 40.9441 57.9909C40.9441 57.9909 39.7119 56.4816 39.0988 55.6952C37.7039 53.9058 36.2611 52.8431 34.1347 53.0024C32.0083 53.1618 32.0083 53.1618 32.0083 53.1618Z" fill="#2C79EC"/>
<path d="M33.9041 50.851L34.1347 53.0024C34.1347 53.0024 33.8016 53.3477 33.0587 53.3477C32.3157 53.3477 32.0083 53.2415 32.0083 53.1618C32.0083 53.0821 32.5207 50.6119 32.5207 50.6119L33.9041 50.851Z" fill="white"/>
<path d="M33.0588 53.4745C31.8862 53.4745 31.8862 53.2391 31.8862 53.1618C31.8862 53.0808 32.209 51.5128 32.4014 50.5853C32.4151 50.5191 32.4768 50.4759 32.5409 50.487L33.9244 50.726C33.9783 50.7353 34.0197 50.7807 34.0257 50.837L34.2563 52.9884C34.2604 53.0267 34.2475 53.0648 34.2213 53.092C34.2062 53.1077 33.8434 53.4745 33.0588 53.4745ZM32.1383 53.1193C32.2251 53.1579 32.4871 53.221 33.0588 53.221C33.5934 53.221 33.8997 53.0299 34.0061 52.9483L33.793 50.9602L32.6158 50.7568C32.434 51.6348 32.1862 52.8461 32.1383 53.1193Z" fill="#033D94"/>
<path d="M33.1295 51.2919C32.8904 52.3238 32.7537 52.5752 31.9696 52.5602C31.1854 52.5451 30.3518 51.4288 29.655 51.1659C28.9582 50.903 28.5551 47.7784 29.9535 46.9517C31.3519 46.125 32.3929 44.364 33.7723 45.1941C35.1517 46.0241 33.5068 49.4117 33.2255 49.725C32.9443 50.0383 33.1295 51.2919 33.1295 51.2919Z" fill="#033D94"/>
<path d="M33.636 46.5157C33.636 46.5157 35.6063 47.5067 35.514 47.8226C35.4217 48.1386 35.2988 48.3168 35.3721 48.5619C35.4455 48.8069 36.2894 50.6822 35.4831 51.153C34.6768 51.6239 32.9158 51.6586 32.7689 51.5119C32.622 51.3652 32.4712 51.0499 32.4712 51.0499C32.4712 51.0499 31.5851 51.1411 31.4526 50.7132C31.3201 50.2852 31.5325 49.8668 31.7542 49.916C31.9759 49.9651 32.0029 50.2549 32.1432 50.1948C32.2835 50.1347 31.9147 49.7163 31.9978 49.5759C32.0809 49.4356 33.5801 48.8854 33.636 46.5157Z" fill="white"/>
<path d="M33.3371 51.715C33.063 51.715 32.7734 51.6921 32.6844 51.6032C32.5698 51.4887 32.4576 51.2908 32.4005 51.1824C32.151 51.196 31.4728 51.1919 31.3365 50.7519C31.2433 50.451 31.295 50.1071 31.4621 49.9156C31.5522 49.8122 31.668 49.7671 31.7801 49.7921C31.8389 49.8051 31.8876 49.8299 31.9286 49.8598C31.8715 49.7343 31.8339 49.611 31.8939 49.5096C31.9219 49.4623 31.9713 49.4295 32.0697 49.3642C32.4523 49.11 33.4688 48.4349 33.5142 46.5126C33.5152 46.4695 33.5372 46.4299 33.5727 46.4075C33.6083 46.385 33.6523 46.3828 33.6897 46.4016C33.6947 46.4042 34.1917 46.6547 34.6709 46.9408C35.5392 47.4593 35.6828 47.683 35.6313 47.8593C35.6055 47.9475 35.5775 48.0255 35.5527 48.0943C35.4895 48.2699 35.4477 48.386 35.4892 48.5243C35.4968 48.5499 35.5172 48.6041 35.5431 48.6728C35.7621 49.2535 36.3437 50.7961 35.5434 51.2635C35.0498 51.5517 34.2952 51.6546 33.8893 51.6903C33.8384 51.6948 33.5946 51.715 33.3371 51.715ZM32.8486 51.4152C33.0338 51.5082 34.6503 51.4941 35.4234 51.0426C36.0387 50.6833 35.4944 49.2395 35.3155 48.7651C35.2867 48.6888 35.2659 48.6337 35.2557 48.5994C35.1896 48.3785 35.2517 48.2057 35.3237 48.0057C35.347 47.9407 35.3712 47.8737 35.3937 47.7982C35.3348 47.6245 34.5329 47.1215 33.7506 46.7153C33.6394 48.6226 32.6007 49.3125 32.2015 49.5776C32.1676 49.6001 32.1303 49.6249 32.109 49.6409C32.1172 49.6886 32.1674 49.7899 32.1958 49.847C32.2643 49.9852 32.3236 50.1045 32.2865 50.209C32.2699 50.2559 32.2357 50.2924 32.1902 50.312C32.0332 50.3792 31.9351 50.2453 31.8825 50.1734C31.8378 50.1123 31.7956 50.0547 31.7289 50.0399C31.6962 50.0325 31.661 50.0653 31.6433 50.0856C31.5493 50.1934 31.4937 50.4302 31.5693 50.6744C31.6526 50.9433 32.2551 50.9445 32.4595 50.9238C32.5094 50.9188 32.5584 50.9464 32.5809 50.9936C32.6198 51.0746 32.7422 51.3053 32.8486 51.4152Z" fill="#033D94"/>
<path d="M39.4 99.9214C38.6646 100.262 39.2584 100.83 39.1027 101.344C38.947 101.857 38.6073 102.459 38.9754 103.369C39.3434 104.278 41.33 104.184 43.1235 104.209C44.9171 104.233 47.5603 104.331 47.8907 103.524C48.221 102.716 46.5455 102.178 46.2387 101.811C45.9319 101.444 44.436 100.323 44.1152 99.9214C43.7945 99.5198 42.783 98.9571 42.5856 99.75C42.3882 100.543 42.8506 101.003 43.3719 101.042C43.3719 101.042 42.4252 101.924 41.9071 101.848C41.389 101.771 41.389 100.735 41.0929 100.684C40.7969 100.632 40.7228 100.888 40.3281 100.658C39.9333 100.428 39.6932 99.7858 39.4 99.9214ZM31.0745 101.647C30.71 101.647 30.5124 102.251 29.901 102.281C29.2896 102.311 30.1804 103.477 31.0274 103.447C31.8743 103.417 32.9239 102.186 32.2177 102.195C31.592 102.202 31.4449 101.647 31.0745 101.647Z" fill="#2C79EC"/>
<defs>
<linearGradient id="paint0_linear_326_484" x1="60.3215" y1="59.6156" x2="120.095" y2="121.369" gradientUnits="userSpaceOnUse">
<stop stop-color="#033D94"/>
<stop offset="0.143" stop-color="#033888"/>
<stop offset="0.403" stop-color="#032B67"/>
<stop offset="0.748" stop-color="#041733"/>
<stop offset="1" stop-color="#030508"/>
</linearGradient>
</defs>
</svg>
