<svg width="136" height="141" viewBox="0 0 136 141" fill="none" xmlns="http://www.w3.org/2000/svg">
<path d="M14.5717 64.2018C10.763 40.5627 35.6597 34.2485 46.4769 37.8782C51.1359 39.4415 49.8425 43.8779 54.7772 47.9962C68.8703 59.7578 98.2981 39.3278 113.497 49.7129C120.998 54.8377 124.185 66.8872 119.887 74.0004C106.986 95.3515 17.9052 84.8914 14.5717 64.2018Z" fill="#EEF5FF"/>
<path d="M24.5933 102.5C22.8051 102.738 19.9001 103.176 19.8816 103.806C19.8648 104.374 22.2041 104.84 23.0227 105.003C32.3856 106.868 34.4195 103.742 46.8079 105.091C53.3054 105.799 52.3251 106.973 58.0874 107.268C65.9716 107.672 77.9883 105.219 87.8446 105.33C92.0497 105.377 92.1161 105.774 97.8391 106.092C100.087 106.216 115.835 107.071 116.115 105.765C116.166 105.529 115.786 104.871 108.976 103.262C108.976 103.262 76.4641 95.5792 24.5933 102.5Z" fill="#DFE1E5"/>
<path d="M79.8867 102.598H56.1132C54.8426 102.598 53.6924 102.064 52.8597 101.201C52.0271 100.338 51.5121 99.145 51.5121 97.8277V38.4573C51.5121 37.2547 51.9413 36.1561 52.6495 35.3171C53.4929 34.318 54.732 33.687 56.1132 33.687H79.8867C81.0878 33.687 82.1814 34.1641 83.0008 34.9455C83.915 35.8174 84.4879 37.068 84.4879 38.4573V97.8277C84.4879 98.8156 84.1982 99.7334 83.7021 100.495C82.8752 101.764 81.475 102.598 79.8867 102.598Z" fill="url(#paint0_linear_356_341)"/>
<path d="M79.1278 35.5502H56.5457C55.5803 35.5502 54.7163 36.0001 54.138 36.7086C53.6733 37.278 53.3932 38.0144 53.3932 38.8186V96.9599C53.3932 97.7959 53.6959 98.5586 54.1939 99.1365C54.7712 99.8065 55.6109 100.228 56.5457 100.228H79.1278C79.9629 100.228 80.7221 99.8917 81.2861 99.3422C81.8981 98.746 82.2803 97.8992 82.2803 96.9599V38.8186C82.2803 37.9491 81.9528 37.159 81.4187 36.5734C80.8441 35.9434 80.0303 35.5502 79.1278 35.5502Z" fill="white"/>
<path d="M58.5555 38.1634H55.6912C55.4321 38.1634 55.222 37.9456 55.222 37.677C55.222 37.4084 55.4321 37.1906 55.6912 37.1906H58.5555C58.8146 37.1906 59.0246 37.4084 59.0246 37.677C59.0246 37.9456 58.8146 38.1634 58.5555 38.1634ZM77.456 38.1634H77.3292C77.0701 38.1634 76.8601 37.9456 76.8601 37.677C76.8601 37.4084 77.0701 37.1906 77.3292 37.1906H77.456C77.7151 37.1906 77.9251 37.4084 77.9251 37.677C77.9251 37.9456 77.7151 38.1634 77.456 38.1634ZM80.1935 38.1634H78.9392C78.6801 38.1634 78.47 37.9456 78.47 37.677C78.47 37.4084 78.6801 37.1906 78.9392 37.1906H80.1935C80.4526 37.1906 80.6627 37.4084 80.6627 37.677C80.6627 37.9456 80.4526 38.1634 80.1935 38.1634Z" fill="#033D94"/>
<path d="M68 38.5017C68.4394 38.5017 68.7955 38.1325 68.7955 37.677C68.7955 37.2215 68.4394 36.8523 68 36.8523C67.5607 36.8523 67.2045 37.2215 67.2045 37.677C67.2045 38.1325 67.5607 38.5017 68 38.5017Z" fill="#033D94"/>
<path d="M78.0513 78.8802H57.9487C57.1909 78.8802 56.5767 78.2433 56.5767 77.4577V61.0144C56.5767 60.2288 57.1909 59.592 57.9487 59.592H78.0513C78.809 59.592 79.4233 60.2288 79.4233 61.0144V77.4577C79.4233 78.2433 78.809 78.8802 78.0513 78.8802ZM78.0513 56.8562H57.9487C57.1909 56.8562 56.5767 56.2193 56.5767 55.4337V45.0517C56.5767 44.2662 57.1909 43.6293 57.9487 43.6293H78.0513C78.809 43.6293 79.4233 44.2662 79.4233 45.0517V55.4337C79.4233 56.2193 78.809 56.8562 78.0513 56.8562ZM78.0513 94.9179H57.9487C57.1909 94.9179 56.5767 94.2811 56.5767 93.4955V83.1135C56.5767 82.3279 57.1909 81.6911 57.9487 81.6911H78.0513C78.809 81.6911 79.4233 82.3279 79.4233 83.1135V93.4955C79.4233 94.2811 78.809 94.9179 78.0513 94.9179Z" fill="#EEF5FF"/>
<path opacity="0.59" d="M76.3372 65.8094L75.6654 63.5551C75.647 63.4932 75.605 63.4419 75.5491 63.4129L73.8828 62.5482C73.8459 62.529 73.8054 62.5214 73.7655 62.524C73.7623 62.5239 73.7592 62.523 73.7559 62.523C73.7559 62.523 73.4018 63.2792 72.4887 63.2792C71.5757 63.2792 71.2216 62.523 71.2216 62.523C71.2183 62.523 71.2152 62.5239 71.2119 62.524C71.172 62.5214 71.1316 62.529 71.0946 62.5482L69.4284 63.4129C69.3725 63.4419 69.3304 63.4932 69.312 63.5551L68.6403 65.8094C68.608 65.9176 68.6538 66.0343 68.7498 66.0883L69.9014 66.7372V69.099C69.9014 69.5759 70.1768 69.9966 70.603 70.171C71.0212 70.3421 71.6878 70.5459 72.4887 70.5459C73.2931 70.5459 73.972 70.3405 74.3998 70.1681C74.8236 69.9974 75.1083 69.5655 75.1083 69.0933V66.719L76.2277 66.0883C76.3236 66.0343 76.3694 65.9176 76.3372 65.8094ZM67.0207 49.5177L66.3489 47.2634C66.3305 47.2015 66.2884 47.1501 66.2325 47.1211L64.5663 46.2564C64.5293 46.2372 64.4889 46.2296 64.449 46.2323C64.4457 46.2321 64.4426 46.2313 64.4393 46.2313C64.4393 46.2313 64.0852 46.9874 63.1722 46.9874C62.2592 46.9874 61.9051 46.2313 61.9051 46.2313C61.9017 46.2313 61.8986 46.2321 61.8953 46.2323C61.8555 46.2296 61.815 46.2372 61.7781 46.2564L60.1118 47.1211C60.0559 47.1501 60.0139 47.2015 59.9955 47.2634L59.3237 49.5177C59.2915 49.6258 59.3373 49.7425 59.4332 49.7965L60.5849 50.4454V52.8072C60.5849 53.2841 60.8602 53.7049 61.2864 53.8792C61.7046 54.0503 62.3713 54.2542 63.1722 54.2542C63.9766 54.2542 64.6554 54.0487 65.0833 53.8763C65.507 53.7056 65.7917 53.2737 65.7917 52.8015V50.4273L66.9112 49.7965C67.0071 49.7425 67.0529 49.6258 67.0207 49.5177Z" fill="#88B6FC"/>
<path d="M76.2638 47.9184H69.727C69.4945 47.9184 69.3043 47.7212 69.3043 47.4802C69.3043 47.2391 69.4945 47.0419 69.727 47.0419H76.2638C76.4963 47.0419 76.6865 47.2391 76.6865 47.4802C76.6865 47.7212 76.4963 47.9184 76.2638 47.9184ZM73.4025 50.2427H69.6054C69.4398 50.2427 69.3043 50.1023 69.3043 49.9306V49.6784C69.3043 49.5067 69.4398 49.3662 69.6054 49.3662H73.4025C73.5681 49.3662 73.7036 49.5067 73.7036 49.6784V49.9306C73.7036 50.1023 73.5681 50.2427 73.4025 50.2427Z" fill="#88B6FC"/>
<path opacity="0.59" d="M67.0207 87.5795L66.3489 85.3252C66.3305 85.2633 66.2884 85.2119 66.2325 85.1829L64.5663 84.3182C64.5293 84.299 64.4889 84.2914 64.449 84.2941C64.4457 84.2939 64.4426 84.2931 64.4393 84.2931C64.4393 84.2931 64.0852 85.0492 63.1722 85.0492C62.2592 85.0492 61.9051 84.2931 61.9051 84.2931C61.9017 84.2931 61.8986 84.2939 61.8953 84.2941C61.8555 84.2914 61.815 84.299 61.7781 84.3182L60.1118 85.1829C60.0559 85.2119 60.0139 85.2633 59.9955 85.3252L59.3237 87.5795C59.2915 87.6876 59.3373 87.8043 59.4332 87.8583L60.5849 88.5072V90.869C60.5849 91.3459 60.8602 91.7667 61.2864 91.941C61.7046 92.1121 62.3713 92.316 63.1722 92.316C63.9766 92.316 64.6554 92.1105 65.0833 91.9381C65.507 91.7674 65.7917 91.3355 65.7917 90.8633V88.4891L66.9112 87.8583C67.0071 87.8043 67.0529 87.6876 67.0207 87.5795Z" fill="#88B6FC"/>
<path d="M76.2637 85.9802H69.727C69.4945 85.9802 69.3043 85.783 69.3043 85.542C69.3043 85.3009 69.4945 85.1037 69.727 85.1037H76.2637C76.4962 85.1037 76.6864 85.3009 76.6864 85.542C76.6864 85.783 76.4962 85.9802 76.2637 85.9802ZM73.2808 88.3045H69.727C69.4945 88.3045 69.3043 88.1073 69.3043 87.8663C69.3043 87.6252 69.4945 87.428 69.727 87.428H73.2808C73.5133 87.428 73.7035 87.6252 73.7035 87.8663C73.7035 88.1073 73.5133 88.3045 73.2808 88.3045ZM76.2637 73.4572H59.7362C59.5037 73.4572 59.3135 73.26 59.3135 73.0189C59.3135 72.7779 59.5037 72.5807 59.7362 72.5807H76.2637C76.4962 72.5807 76.6864 72.7779 76.6864 73.0189C76.6864 73.26 76.4962 73.4572 76.2637 73.4572ZM69.2438 75.7815H59.7362C59.5037 75.7815 59.3135 75.5843 59.3135 75.3433C59.3135 75.1022 59.5037 74.905 59.7362 74.905H69.2438C69.4763 74.905 69.6665 75.1022 69.6665 75.3433C69.6665 75.5843 69.4763 75.7815 69.2438 75.7815Z" fill="#88B6FC"/>
<path d="M60.5982 70.3174C60.892 70.0128 60.892 69.5188 60.5982 69.2141C60.3043 68.9094 59.8278 68.9094 59.5339 69.2141C59.2401 69.5188 59.2401 70.0128 59.5339 70.3174C59.8278 70.6221 60.3043 70.6221 60.5982 70.3174Z" fill="#88B6FC"/>
<path d="M64.6571 69.945C64.7526 69.5257 64.5021 69.1055 64.0977 69.0065C63.6932 68.9075 63.2879 69.1672 63.1924 69.5865C63.0969 70.0059 63.3474 70.4261 63.7519 70.5251C64.1563 70.6241 64.5616 70.3644 64.6571 69.945Z" fill="#88B6FC"/>
<path d="M117.295 100.892H94.4243V87.9699C94.4243 87.9699 94.1607 83.9014 105.86 83.9014C117.559 83.9014 117.295 87.9699 117.295 87.9699V100.892Z" fill="#FF6900"/>
<path d="M116.489 99.3711C116.33 99.3017 116.157 99.2634 115.974 99.2634H95.7456C95.367 99.2634 95.0256 99.4284 94.7846 99.6928C94.5609 99.9383 94.4238 100.269 94.4238 100.634C94.4238 101.012 94.5717 101.355 94.8109 101.603C95.0501 101.851 95.3806 102.004 95.7456 102.004H96.4756V103.385H98.6105V102.004H113.109V103.385H115.244V102.004H115.974C116.339 102.004 116.67 101.851 116.909 101.603C117.148 101.355 117.296 101.012 117.296 100.634C117.296 100.066 116.963 99.5791 116.489 99.3711Z" fill="#FF6900"/>
<path d="M89.8278 101.749C89.8278 101.749 87.1945 103.649 87.391 103.996C87.5874 104.342 89.4683 105.372 90.3634 104.729C91.2586 104.086 91.9348 102.207 91.9348 102.207L91.4048 104.509L92.1007 104.575C92.1007 104.575 92.0315 102.963 92.406 102.53C92.7804 102.098 93.5319 101.604 93.2273 100.888C92.9227 100.173 92.5349 98.7557 92.066 99.0859C91.5972 99.4162 89.8278 101.749 89.8278 101.749Z" fill="#033D94"/>
<path d="M90.2786 96.7513C90.2786 96.7513 90.215 99.1084 90.0416 99.6145C89.8682 100.121 88.1885 103.324 88.1885 103.324C88.1885 103.324 91.1352 101.828 91.6639 100.933C92.1927 100.038 92.4968 99.2445 92.066 99.0859C91.6353 98.9273 91.9276 97.2244 91.9276 97.2244L90.2786 96.7513Z" fill="white"/>
<path d="M88.1885 103.443C88.158 103.443 88.1279 103.431 88.1058 103.407C88.0713 103.369 88.064 103.313 88.0878 103.268C88.1046 103.236 89.7651 100.067 89.9336 99.5748C90.066 99.1884 90.1423 97.5568 90.1642 96.748C90.1651 96.7115 90.1822 96.6775 90.2106 96.6558C90.2388 96.6341 90.2753 96.6269 90.3092 96.6369L91.9581 97.11C92.015 97.1263 92.0507 97.1849 92.0403 97.2452C91.9075 98.0198 91.9015 98.8994 92.1043 98.9741C92.2262 99.0189 92.3128 99.1077 92.3549 99.231C92.4654 99.555 92.2714 100.132 91.7616 100.995C91.2217 101.909 88.3604 103.369 88.2389 103.431C88.2228 103.439 88.2056 103.443 88.1885 103.443ZM90.3886 96.9061C90.3711 97.4414 90.3027 99.207 90.1494 99.6542C90.007 100.07 88.9011 102.207 88.4638 103.047C89.2401 102.631 91.1631 101.553 91.5662 100.871C92.1758 99.8391 92.1866 99.4502 92.1388 99.3103C92.1196 99.2537 92.0853 99.2191 92.0277 99.1978C91.7927 99.1113 91.6923 98.7491 91.7208 98.0904C91.7346 97.7714 91.7748 97.4663 91.798 97.3105L90.3886 96.9061Z" fill="#033D94"/>
<path d="M102.989 79.2506C102.989 79.2506 93.3661 76.6781 91.9035 77.8373C90.4409 78.9965 90.1153 83.2652 90.2754 85.7071C90.4355 88.1489 90.0328 96.1704 89.8821 96.7471C89.7314 97.3238 92.3489 97.8986 92.3489 97.8986C92.3489 97.8986 94.0229 90.4107 94.5876 88.7623C95.1523 87.1139 94.9734 83.2549 94.9734 83.2549C94.9734 83.2549 100.556 86.3103 103.635 86.1721C107.422 86.0021 109.601 84.2013 109.425 81.6204C109.248 79.0396 102.989 79.2506 102.989 79.2506Z" fill="#033D94"/>
<path d="M99.2066 70.8694C99.2066 70.8694 98.3912 72.2473 97.8768 72.3884C97.3625 72.5296 93.4589 70.609 93.1316 70.1325C92.8043 69.656 92.4739 68.1867 92.0601 68.0344C91.6463 67.882 89.378 66.8433 89.378 66.8433L90.7434 68.0835C90.7434 68.0835 90.2621 68.4148 90.2515 68.5889C90.2409 68.7629 90.343 70.3261 90.8003 70.4945C91.2577 70.663 92.6431 70.8426 93.283 71.4087C93.9229 71.9749 97.2187 75.2227 98.246 75.0161C99.2732 74.8096 100.913 72.1515 100.913 72.1515L99.2066 70.8694Z" fill="white"/>
<path d="M98.1481 75.1439C97.257 75.1441 95.3604 73.496 93.6032 71.8622C93.4308 71.7018 93.2946 71.5752 93.2086 71.4991C92.7646 71.1062 91.931 70.9051 91.3224 70.7583C91.0919 70.7027 90.8929 70.6546 90.762 70.6064C90.1772 70.3911 90.1361 68.5989 90.1372 68.5814C90.1473 68.415 90.3817 68.2068 90.5579 68.0729L89.3025 66.9326C89.2599 66.894 89.251 66.8289 89.2814 66.7794C89.3118 66.73 89.3725 66.7109 89.4243 66.7347C89.4469 66.745 91.6933 67.7733 92.0984 67.9225C92.3997 68.0334 92.6176 68.6068 92.8484 69.2138C92.9804 69.5612 93.1052 69.8893 93.2249 70.0636C93.36 70.2604 94.3306 70.8282 95.4824 71.3844C96.8162 72.0285 97.6813 72.3192 97.8475 72.2736C98.2328 72.1679 98.8887 71.1793 99.1089 70.8073C99.1256 70.7791 99.1528 70.7594 99.1842 70.7529C99.2156 70.7465 99.2479 70.7538 99.2737 70.7732L100.98 72.0554C101.029 72.0923 101.042 72.1625 101.009 72.2155C100.941 72.3258 99.331 74.919 98.2677 75.1327C98.2303 75.1403 98.1903 75.1439 98.1481 75.1439ZM90.0133 67.2624L90.8189 67.9941C90.8457 68.0185 90.8601 68.0545 90.8577 68.0914C90.8554 68.1283 90.8365 68.1619 90.8068 68.1824C90.5879 68.3332 90.3777 68.5312 90.3657 68.5978C90.3494 68.8677 90.4984 70.2573 90.8387 70.3826C90.9574 70.4263 91.1506 70.4729 91.3743 70.5269C92.0059 70.6793 92.8709 70.888 93.3573 71.3184C93.4455 71.3964 93.5827 71.5239 93.7562 71.6853C94.7508 72.6102 97.3919 75.0674 98.2241 74.8995C98.617 74.8205 99.1876 74.3135 99.8741 73.4333C100.286 72.9058 100.625 72.3878 100.757 72.1812L99.2384 71.04C99.0229 71.3887 98.3788 72.3735 97.9061 72.5032C97.3197 72.6635 93.3761 70.6932 93.0383 70.2014C92.9024 70.0035 92.7726 69.6622 92.6353 69.3009C92.4524 68.8198 92.2248 68.2211 92.0218 68.1463C91.7508 68.0465 90.7182 67.5822 90.0133 67.2624Z" fill="#033D94"/>
<path d="M103.341 63.9613C102.641 64.3982 101.122 65.6512 101.241 66.5617C101.36 67.4722 100.23 69.289 100.235 70.2363C100.24 71.1836 102.171 71.6846 102.089 73.2564C102.006 74.8282 102.396 79.3805 102.096 80.2575C101.795 81.1344 104.397 83.7368 106.946 83.3764C109.495 83.016 111.041 80.911 110.623 78.8751C110.204 76.8392 108.797 66.1669 107.192 64.8155C105.587 63.464 103.341 63.9613 103.341 63.9613Z" fill="#2C79EC"/>
<path d="M103.437 61.9105C103.437 61.9105 103.46 63.7071 103.341 63.9613C103.222 64.2155 105.315 64.2579 105.587 63.464C105.859 62.6701 104.172 61.2543 104.172 61.2543L103.437 61.9105Z" fill="white"/>
<path d="M103.942 64.2438C103.63 64.2438 103.338 64.2001 103.253 64.0792C103.217 64.0288 103.212 63.9653 103.238 63.9094C103.312 63.7516 103.332 62.6464 103.322 61.9121C103.322 61.8769 103.336 61.8434 103.362 61.8204L104.098 61.1643C104.14 61.1268 104.201 61.126 104.245 61.162C104.262 61.1767 104.678 61.5274 105.068 61.9826C105.612 62.6189 105.823 63.1307 105.695 63.5037C105.533 63.9778 104.872 64.1452 104.493 64.2028C104.33 64.2276 104.132 64.2438 103.942 64.2438ZM103.465 63.9507C103.634 64.018 104.263 64.0526 104.821 63.8895C105.074 63.8157 105.393 63.675 105.479 63.4242C105.67 62.8681 104.663 61.8372 104.174 61.4097L103.552 61.9644C103.556 62.34 103.561 63.5849 103.465 63.9507Z" fill="#033D94"/>
<path d="M101.563 59.2363C101.563 59.2363 101.384 62.1141 102.604 62.5344C103.824 62.9548 104.572 61.5851 104.633 61.4058C104.695 61.2264 104.278 59.1106 101.563 59.2363Z" fill="white"/>
<path d="M103.061 62.7326C102.898 62.7326 102.734 62.7042 102.568 62.6472C101.279 62.203 101.441 59.3499 101.449 59.2286C101.452 59.1682 101.499 59.1203 101.558 59.1176C103.119 59.0453 103.925 59.6983 104.325 60.2588C104.685 60.7627 104.788 61.3071 104.741 61.4455C104.703 61.5565 104.487 61.9617 104.128 62.2847C103.798 62.5817 103.436 62.7326 103.061 62.7326ZM101.673 59.3512C101.665 59.5784 101.659 60.1346 101.74 60.7142C101.834 61.384 102.066 62.224 102.64 62.4218C103.837 62.8342 104.52 61.3812 104.525 61.366C104.536 61.2936 104.447 60.7468 104.019 60.2441C103.655 59.8156 102.955 59.32 101.673 59.3512Z" fill="#033D94"/>
<path d="M100.564 57.0003C99.5435 58.6583 101.682 59.991 102.582 60.1691C103.481 60.3471 104.221 62.7898 104.192 63.5198C104.164 64.2499 104.111 65.4817 106.057 65.8407C108.003 66.1998 110.636 62.9052 109.168 62.224C107.17 61.297 106.812 56.9518 105.141 56.0047C103.024 54.804 101.564 55.3767 100.564 57.0003Z" fill="#033D94"/>
<path d="M101.643 65.4885C101.643 65.4885 98.6017 69.8472 98.3103 70.5216C98.0189 71.196 100.197 72.8736 100.892 73.2545C101.587 73.6354 103.414 70.1497 103.688 69.4376C103.962 68.7256 103.266 65.7981 101.643 65.4885Z" fill="#2C79EC"/>
<path d="M101.951 72.5994C101.924 72.5994 101.897 72.5896 101.875 72.5696C101.828 72.5262 101.823 72.4512 101.865 72.402C102.259 71.9391 103.574 69.4069 103.587 69.3814C103.617 69.3236 103.687 69.3022 103.742 69.333C103.798 69.3641 103.819 69.4361 103.789 69.4939C103.734 69.5991 102.448 72.0759 102.037 72.5592C102.014 72.5858 101.983 72.5994 101.951 72.5994Z" fill="#033D94"/>
<path d="M40.2962 97.7564C40.2962 97.7564 40.3237 98.8371 40.0768 99.3206C39.8299 99.804 39.6105 99.9036 39.7202 100.074C39.8299 100.245 40.8812 102.371 41.9235 102.172C42.9659 101.973 43.7921 100.772 43.8195 100.53C43.8469 100.288 42.6424 99.119 42.7238 98.055C42.7586 97.6012 40.2962 97.7564 40.2962 97.7564Z" fill="white"/>
<path d="M41.7835 102.312C41.1471 102.312 40.4392 101.618 39.6762 100.246C39.6484 100.196 39.629 100.161 39.6185 100.145C39.5043 99.9669 39.6037 99.8268 39.7187 99.6646C39.7889 99.5657 39.8762 99.4426 39.9688 99.2613C40.1977 98.8129 40.1744 97.7702 40.1741 97.7597C40.1724 97.6915 40.2231 97.6341 40.2889 97.6299C40.6448 97.6074 42.4379 97.5135 42.7723 97.8667C42.84 97.9383 42.8496 98.0141 42.8457 98.0651C42.7945 98.734 43.3017 99.4693 43.6373 99.9558C43.8579 100.276 43.9549 100.422 43.941 100.545C43.9037 100.873 42.9993 102.095 41.9457 102.297C41.8922 102.307 41.838 102.312 41.7835 102.312ZM40.4195 97.8761C40.4187 98.1806 40.3953 98.9676 40.1848 99.3799C40.0838 99.5777 39.9866 99.7147 39.9157 99.8148C39.8075 99.9672 39.807 99.9808 39.8219 100.004C39.8339 100.023 39.8563 100.063 39.888 100.12C40.4182 101.073 41.1978 102.181 41.9014 102.047C42.8619 101.864 43.6591 100.739 43.6973 100.521C43.6837 100.459 43.548 100.262 43.4384 100.103C43.0822 99.5867 42.5437 98.8062 42.602 98.0449C42.5264 97.8945 41.5209 97.816 40.4195 97.8761Z" fill="#033D94"/>
<path d="M30.9463 99.0878C30.1119 99.1177 29.1648 99.8619 29.074 100.596C28.9833 101.33 29.1495 104.427 29.6032 104.71C30.0569 104.992 31.4726 105.03 31.9082 104.71C32.3438 104.39 32.6359 102.495 32.562 101.389C32.488 100.284 31.8719 99.0545 30.9463 99.0878Z" fill="#2C79EC"/>
<path d="M30.0714 99.3768C30.0714 99.3768 29.9785 100.726 29.9088 101.4C29.8391 102.074 30.2573 103.086 31.2329 102.989C32.2086 102.893 32.3777 101.648 32.3059 101.266C32.1819 100.607 31.8834 99.0878 31.8834 99.0878L30.0714 99.3768Z" fill="white"/>
<path d="M31.106 103.123C30.7668 103.123 30.4668 102.995 30.2318 102.748C29.867 102.365 29.7457 101.788 29.7872 101.386C29.8559 100.722 29.9485 99.3812 29.9495 99.3678C29.9535 99.3087 29.9964 99.2605 30.0528 99.2515L31.8648 98.9625C31.9294 98.9522 31.9901 98.9963 32.0031 99.0624C32.0061 99.0777 32.3031 100.59 32.4258 101.242C32.4806 101.533 32.4118 102.172 32.09 102.619C31.8772 102.914 31.5927 103.081 31.2445 103.116C31.1977 103.12 31.1515 103.123 31.106 103.123ZM30.1862 99.4867C30.1632 99.8131 30.0883 100.852 30.0303 101.413C29.9949 101.756 30.0972 102.246 30.4057 102.57C30.6218 102.797 30.8963 102.895 31.2213 102.863C31.498 102.836 31.7243 102.703 31.8942 102.467C32.1781 102.073 32.2248 101.497 32.1859 101.291C32.0835 100.746 31.8595 99.6018 31.7868 99.2314L30.1862 99.4867Z" fill="#033D94"/>
<path d="M27.9893 67.4908C27.9893 67.4908 26.4551 75.6906 27.2218 83.4222C27.9884 91.1538 28.7759 97.9444 28.9834 98.9276C29.1908 99.9108 30.3466 100.034 31.295 99.8494C32.2433 99.665 32.8953 98.9276 32.925 98.436C32.9546 97.9444 33.9021 78.2004 33.9021 76.823C33.9021 75.4457 37.9159 81.9652 38.5849 85.8491C39.2538 89.733 39.9228 97.709 39.9228 97.709C39.9228 97.709 40.3911 98.8187 41.6621 98.68C42.9331 98.5412 43.9366 97.8477 43.9366 97.0848C43.9366 96.3219 44.4049 84.1152 43.4014 80.7861C42.398 77.457 38.7855 68.1633 37.5145 67.123C36.2435 66.0826 27.9893 67.4908 27.9893 67.4908Z" fill="#033D94"/>
<path d="M26.96 60.8416C26.96 60.8416 26.1418 65.0008 26.3529 65.3839C26.5641 65.7669 27.9893 67.4908 27.9893 67.4908L28.9922 61.17L26.96 60.8416Z" fill="white"/>
<path d="M27.9893 67.6175C27.9542 67.6175 27.9201 67.6018 27.8966 67.5732C27.838 67.5025 26.4613 65.8358 26.2469 65.4467C26.0298 65.0528 26.6462 61.803 26.8402 60.8163C26.8533 60.7499 26.914 60.7059 26.9788 60.7164L29.0111 61.0448C29.0433 61.0499 29.0722 61.0683 29.0913 61.0957C29.1104 61.123 29.1182 61.1572 29.1129 61.1905L28.1099 67.5114C28.1022 67.56 28.068 67.5996 28.0223 67.6128C28.0114 67.616 28.0003 67.6175 27.9893 67.6175ZM27.0566 60.9854C26.6725 62.9565 26.3482 65.0888 26.4594 65.3216C26.6193 65.6117 27.528 66.7321 27.9115 67.2006L28.8517 61.2755L27.0566 60.9854Z" fill="#033D94"/>
<path d="M40.2896 58.5682L42.5842 61.1475C42.5842 61.1475 46.9321 58.0924 47.391 57.1908C47.8499 56.2893 49.3234 54.7867 49.3234 54.7867L48.8644 56.0389L50.8451 54.2859L50.0238 55.7384L51.8113 54.1607L50.5069 56.1891L51.8113 55.2626L50.676 56.8402L51.7146 56.139L50.3861 57.7668C50.3861 57.7668 49.3234 58.1925 48.5746 58.6182C47.8258 59.044 44.1784 63.8772 42.5601 64.0274C40.9417 64.1777 38.5988 59.9705 38.5988 59.9705L40.2896 58.5682Z" fill="white"/>
<path d="M42.4767 64.158C40.8092 64.158 38.5884 60.2053 38.4929 60.0339C38.4627 59.9797 38.4753 59.9107 38.5224 59.8716L40.2132 58.4692C40.2633 58.4276 40.3359 58.4333 40.3794 58.4822L42.6028 60.9814C44.1212 59.9099 46.9379 57.8094 47.2829 57.1317C47.7454 56.2232 49.1769 54.7583 49.2377 54.6964C49.2786 54.6547 49.3422 54.6481 49.3902 54.6807C49.4383 54.7132 49.4581 54.7761 49.4376 54.8318L49.1484 55.6209L50.7658 54.1895C50.8112 54.1493 50.878 54.1491 50.9236 54.1887C50.9693 54.2285 50.9808 54.2966 50.9506 54.35L50.4946 55.1565L51.7321 54.0642C51.7785 54.0233 51.847 54.024 51.8925 54.066C51.938 54.108 51.9468 54.1784 51.913 54.231L50.9592 55.7142L51.7422 55.158C51.7915 55.1229 51.8581 55.13 51.8994 55.1748C51.9408 55.2194 51.945 55.2887 51.9092 55.3383L51.1842 56.346L51.648 56.0329C51.6988 55.9987 51.7662 56.008 51.8063 56.0552C51.8464 56.1024 51.8472 56.1729 51.808 56.2209L50.4795 57.8486C50.4663 57.8649 50.4493 57.8774 50.4302 57.885C50.4197 57.8892 49.3662 58.3127 48.6334 58.7294C48.4025 58.8606 47.8202 59.5031 47.1459 60.247C45.6917 61.8514 43.7 64.0488 42.571 64.1537C42.5398 64.1566 42.5083 64.158 42.4767 64.158ZM38.7581 60.0007C38.9195 60.2802 39.4305 61.1408 40.07 61.9788C41.0736 63.2938 41.9309 63.9598 42.5492 63.9012C43.5855 63.805 45.6209 61.5594 46.9678 60.0734C47.7127 59.2516 48.251 58.6577 48.5158 58.5071C49.1937 58.1217 50.1357 57.7326 50.3128 57.6604L51.0832 56.7166L50.7427 56.9464C50.6931 56.98 50.6274 56.9718 50.5869 56.927C50.5464 56.8822 50.5426 56.8137 50.5781 56.7645L51.2732 55.7984L50.576 56.2937C50.5278 56.3279 50.4627 56.3219 50.4211 56.2793C50.3794 56.2367 50.3728 56.1694 50.4053 56.1188L51.2241 54.8454L50.1031 55.8349C50.0578 55.875 49.991 55.8752 49.9453 55.8355C49.8996 55.7958 49.8882 55.7276 49.9184 55.6743L50.373 54.8704L48.9438 56.1352C48.9013 56.1729 48.8396 56.1759 48.7941 56.1424C48.7484 56.1091 48.7304 56.048 48.7502 55.9939L49.0004 55.3111C48.533 55.8208 47.7944 56.67 47.4991 57.25C47.0313 58.1689 42.8314 61.127 42.6529 61.2525C42.6028 61.2876 42.5354 61.2796 42.4945 61.2335L40.277 58.7409L38.7581 60.0007Z" fill="#033D94"/>
<path d="M32.0085 53.1618C29.619 53.4617 28.128 55.8691 27.0544 58.3736C25.9808 60.878 25.7795 60.878 25.9808 61.2607C26.1821 61.6433 27.8596 62.0955 28.0945 61.9216C28.0945 61.9216 27.5577 66.4783 27.3899 67.7305C27.2222 68.9827 29.1916 69.7828 33.0717 69.5393C36.9518 69.2958 38.361 69.0175 38.7636 67.3479C39.1662 65.6782 37.69 60.7389 37.7906 60.7389C37.8913 60.7389 38.8307 61.1563 40.0385 59.9736C41.2463 58.791 40.9444 57.9909 40.9444 57.9909C40.9444 57.9909 39.7121 56.4816 39.0991 55.6952C37.7041 53.9058 36.2613 52.8431 34.1349 53.0024C32.0085 53.1618 32.0085 53.1618 32.0085 53.1618Z" fill="#2C79EC"/>
<path d="M33.9044 50.851L34.1349 53.0024C34.1349 53.0024 33.8019 53.3477 33.0589 53.3477C32.316 53.3477 32.0085 53.2415 32.0085 53.1618C32.0085 53.0821 32.5209 50.6119 32.5209 50.6119L33.9044 50.851Z" fill="white"/>
<path d="M33.059 53.4745C31.8864 53.4745 31.8864 53.2391 31.8864 53.1618C31.8864 53.0807 32.2091 51.5127 32.4015 50.5853C32.4152 50.5191 32.4769 50.4759 32.5411 50.4869L33.9245 50.726C33.9784 50.7353 34.0198 50.7806 34.0259 50.837L34.2564 52.9884C34.2605 53.0267 34.2476 53.0648 34.2214 53.092C34.2064 53.1076 33.8436 53.4745 33.059 53.4745ZM32.1384 53.1193C32.2252 53.1579 32.4872 53.221 33.059 53.221C33.5935 53.221 33.8998 53.0299 34.0062 52.9483L33.7931 50.9602L32.616 50.7568C32.4342 51.6348 32.1864 52.8461 32.1384 53.1193Z" fill="#033D94"/>
<path d="M33.1296 51.2919C32.8905 52.3238 32.7539 52.5752 31.9697 52.5602C31.1856 52.5451 30.3519 51.4288 29.6551 51.1659C28.9583 50.903 28.5553 47.7784 29.9536 46.9517C31.352 46.125 32.393 44.364 33.7724 45.1941C35.1518 46.0241 33.5069 49.4117 33.2257 49.725C32.9445 50.0383 33.1296 51.2919 33.1296 51.2919Z" fill="#033D94"/>
<path d="M33.6364 46.5157C33.6364 46.5157 35.6067 47.5067 35.5143 47.8226C35.422 48.1386 35.2991 48.3168 35.3725 48.5619C35.4458 48.8069 36.2897 50.6822 35.4834 51.153C34.6772 51.6239 32.9161 51.6586 32.7693 51.5119C32.6224 51.3652 32.4715 51.0499 32.4715 51.0499C32.4715 51.0499 31.5855 51.1411 31.453 50.7132C31.3204 50.2852 31.5328 49.8668 31.7546 49.916C31.9763 49.9651 32.0033 50.2549 32.1436 50.1948C32.2839 50.1347 31.9151 49.7163 31.9982 49.5759C32.0812 49.4356 33.5804 48.8854 33.6364 46.5157Z" fill="white"/>
<path d="M33.3371 51.715C33.063 51.715 32.7734 51.6922 32.6844 51.6032C32.5698 51.4887 32.4576 51.2909 32.4005 51.1824C32.151 51.196 31.4728 51.1919 31.3365 50.7519C31.2433 50.451 31.295 50.1071 31.4621 49.9156C31.5522 49.8122 31.668 49.7671 31.7801 49.7921C31.8389 49.8051 31.8876 49.8299 31.9286 49.8598C31.8715 49.7344 31.8339 49.611 31.8939 49.5096C31.9219 49.4623 31.9713 49.4296 32.0697 49.3642C32.4523 49.1101 33.4688 48.4349 33.5142 46.5126C33.5152 46.4695 33.5372 46.4299 33.5727 46.4075C33.6083 46.385 33.6523 46.3828 33.6897 46.4016C33.6947 46.4042 34.1917 46.6547 34.6709 46.9409C35.5392 47.4593 35.6828 47.683 35.6313 47.8594C35.6055 47.9475 35.5775 48.0255 35.5527 48.0943C35.4895 48.2699 35.4477 48.386 35.4892 48.5243C35.4968 48.5499 35.5172 48.6041 35.5431 48.6728C35.7621 49.2535 36.3437 50.7961 35.5434 51.2635C35.0498 51.5517 34.2952 51.6547 33.8893 51.6903C33.8384 51.6948 33.5946 51.715 33.3371 51.715ZM32.8486 51.4152C33.0338 51.5082 34.6503 51.4942 35.4234 51.0426C36.0387 50.6833 35.4944 49.2395 35.3155 48.7651C35.2867 48.6888 35.2659 48.6337 35.2557 48.5995C35.1896 48.3785 35.2517 48.2057 35.3237 48.0057C35.347 47.9407 35.3712 47.8737 35.3937 47.7983C35.3348 47.6246 34.5329 47.1215 33.7506 46.7153C33.6394 48.6226 32.6007 49.3125 32.2015 49.5776C32.1676 49.6001 32.1303 49.6249 32.109 49.641C32.1172 49.6886 32.1674 49.7899 32.1958 49.847C32.2643 49.9852 32.3236 50.1046 32.2865 50.209C32.2699 50.2559 32.2357 50.2924 32.1902 50.312C32.0332 50.3792 31.9351 50.2453 31.8825 50.1734C31.8378 50.1123 31.7956 50.0547 31.7289 50.0399C31.6962 50.0325 31.661 50.0654 31.6433 50.0856C31.5493 50.1934 31.4937 50.4302 31.5693 50.6744C31.6526 50.9433 32.2551 50.9446 32.4595 50.9238C32.5094 50.9188 32.5584 50.9464 32.5809 50.9936C32.6198 51.0746 32.7422 51.3053 32.8486 51.4152Z" fill="#033D94"/>
<path d="M39.4004 99.9214C38.6649 100.262 39.2588 100.83 39.1031 101.344C38.9474 101.857 38.6077 102.459 38.9757 103.369C39.3437 104.278 41.3303 104.184 43.1239 104.209C44.9175 104.233 47.5606 104.331 47.891 103.524C48.2214 102.716 46.5458 102.178 46.239 101.811C45.9322 101.444 44.4363 100.323 44.1156 99.9214C43.7949 99.5198 42.7833 98.9571 42.5859 99.75C42.3886 100.543 42.8509 101.003 43.3722 101.042C43.3722 101.042 42.4256 101.924 41.9075 101.848C41.3894 101.771 41.3894 100.735 41.0933 100.684C40.7972 100.632 40.7232 100.888 40.3285 100.658C39.9337 100.428 39.6935 99.7858 39.4004 99.9214ZM31.0748 101.647C30.7103 101.647 30.5127 102.251 29.9014 102.281C29.29 102.311 30.1808 103.477 31.0277 103.447C31.8747 103.417 32.9243 102.186 32.2181 102.195C31.5924 102.202 31.4452 101.647 31.0748 101.647Z" fill="#2C79EC"/>
<defs>
<linearGradient id="paint0_linear_356_341" x1="60.3214" y1="59.6156" x2="120.095" y2="121.369" gradientUnits="userSpaceOnUse">
<stop stop-color="#033D94"/>
<stop offset="0.143" stop-color="#033888"/>
<stop offset="0.403" stop-color="#032B67"/>
<stop offset="0.748" stop-color="#041733"/>
<stop offset="1" stop-color="#030508"/>
</linearGradient>
</defs>
</svg>
